<svg xmlns="http://www.w3.org/2000/svg" xmlns:xlink="http://www.w3.org/1999/xlink" width="2000" height="1300" viewBox="0 0 2000 1300">
<defs>
<radialGradient id="radial-gradient" cx="983.67" cy="-1424.43" r="867.43" gradientTransform="matrix(1, 0, 0, -0.79, 0, -480.59)" gradientUnits="userSpaceOnUse">
<stop offset="0" stop-color="#63b0db"/>
<stop offset="1" stop-color="#00b5ff" stop-opacity="0"/>
</radialGradient>
<linearGradient id="linear-gradient" x1="19.13" y1="750.13" x2="694.58" y2="750.13" gradientUnits="userSpaceOnUse">
<stop offset="0" stop-color="#2f7186" stop-opacity="0"/>
<stop offset="0.4" stop-color="#2f7186"/>
<stop offset="1" stop-color="#2f7186"/>
</linearGradient>
<linearGradient id="linear-gradient-2" x1="563.7" y1="946.02" x2="217.79" y2="946.02" gradientUnits="userSpaceOnUse">
<stop offset="0" stop-color="#99b8c4" stop-opacity="0"/>
<stop offset="0.4" stop-color="#99b8c4"/>
<stop offset="1" stop-color="#99b8c4"/>
</linearGradient>
<linearGradient id="linear-gradient-3" x1="730.74" y1="626.41" x2="1526.49" y2="626.41" gradientUnits="userSpaceOnUse">
<stop offset="0" stop-color="#2f7186" stop-opacity="0"/>
<stop offset="0.1" stop-color="#2f7186"/>
<stop offset="0.9" stop-color="#2f7186"/>
<stop offset="1" stop-color="#2f7186" stop-opacity="0"/>
</linearGradient>
<linearGradient id="linear-gradient-4" x1="1543.94" y1="935.57" x2="1178.2" y2="935.57" xlink:href="#linear-gradient-2"/>
<linearGradient id="linear-gradient-5" x1="564.18" y1="16.22" x2="564.18" y2="854.95" xlink:href="#linear-gradient"/>
<linearGradient id="linear-gradient-6" x1="601.21" y1="1005.69" x2="1836.61" y2="1005.69" gradientUnits="userSpaceOnUse">
<stop offset="0" stop-color="#2f7186" stop-opacity="0"/>
<stop offset="0.1" stop-color="#2f7186"/>
<stop offset="0.7" stop-color="#2f7186"/>
<stop offset="1" stop-color="#2f7186" stop-opacity="0"/>
</linearGradient>
<linearGradient id="linear-gradient-7" x1="1106.88" y1="1246.32" x2="952.21" y2="1091.65" xlink:href="#linear-gradient-2"/>
<linearGradient id="linear-gradient-8" x1="267.92" y1="790.36" x2="1300.09" y2="790.36" xlink:href="#linear-gradient-2"/>
<linearGradient id="linear-gradient-9" x1="260.01" y1="792.38" x2="1260.13" y2="792.38" gradientUnits="userSpaceOnUse">
<stop offset="0" stop-color="#f8e4bf" stop-opacity="0"/>
<stop offset="0.4" stop-color="#f8e4bf"/>
<stop offset="1" stop-color="#f8e4bf"/>
</linearGradient>
</defs>
<!--<g id="Layer_1" data-name="Layer 1">
<rect width="2000" height="1300" fill="#26566a"/>
</g>-->
<g id="river">
<path d="M1325.5,1297.9a4.42,4.42,0,0,0,4.2-5.9c-15.9-46.9-101.3-361.6-131.8-409.7-28.6-45.1-57.5-54.7-78.8-85.4-23.78-54.57-47.06-249.26-29.4-330.3,3.51-46.51,8.25-95.88,44.6-129.4,13-14.9,29.6-31.8,31-52.7,2-44.62-50.75-66.73-88.2-51.8-20.2,6.6-37.1,19.8-52.9,33.5-13.88,12.13-26.25,29-45.8,31.8-34,5-97.4-61.4-170.9-76.2-59.17-7.51-125.36-12.21-138.3-82.2-.36-13.74.31-111.57.3-130.4a4.4,4.4,0,0,0-4.4-4.5c-7-.2-14-.3-21.1-.5a4.39,4.39,0,0,0-4.5,4c-8.5,76.1,10.1,177.4,29.9,196.5,123.76,85.09,171.41-17.09,253.69,174.71,35.8,85.14,53.48,33.6,98.21,85.29,15.5,21.1,21.4,57,7.2,82.6-7.14,12.93-18.82,22.05-16.5,36.2a4.48,4.48,0,0,1-6.5,4.8c-49.9-26.3-91.1-36.7-107.4-34.8-15,1.8-21.5,4.5-21.5,4.5-68.66,40.42-66.57-53.09-165.9-73.9-5.57-1.58-8,7.49-2.8,9.5,48.5,19.1,76.7,42.5,93.8,61.1,48.64,60.58,51.95,4.46,134.6,15.6,88.35,25.13,123.79,122.91,135.6,211.3,4,31.93,23.85,79.34-8.1,114.9-13.9,15.9-5.5,55.1,3.8,100.3,1.4,7-6.6,14.9-4.9,22.2s16.2,10.8,18.2,18.3-8.4,11-6.3,18.6c3.7,13.6-3.7,31.3,0,44.3,1.9,6.5,29.1,11.9,31.3,18.2,1.9,5.2-17.7,12.4-15.7,17.4,2.7,6.9,2,12.4,4.7,18.6,9.8,22.4,36.4,124,36.8,132.4a4.44,4.44,0,0,0,2.9,3.8l19.2,7.3c11.41,1.49,3.41-13.05,1.6-20.3-4.4-12.7-21.6-105.2-29.1-123.8-.8-1.9-14.5,3.1-14.7-3.7-.4-10.7,7.5-15.9,11.5-37.9,1.8-10-26.5-5-30.3-14.9-4-10.6.8-26.8-2.7-37.3-3.3-10,11.6-14.4,9.1-23.9-2.8-10.8-18.6-17-19.8-26.5-6.4-52.3,15.4-94,39.6-94.9,19.7-.7,41.2,23.7,45.8,26.1,31,16,36,46.9,36.8,52.9,4.46,15.84,17.28,23,22,36.6,8.3,24.2,7.2,40.2,15.5,61.8,2.9,7.5,4.6,27.5,7.5,35.2,4.5,12.1,8.8,29.8,13.3,43,4.3,12.5,25.9,113.3,30.1,125.1a4.2,4.2,0,0,0,4.2,2.9C1304.7,1298,1315.1,1298,1325.5,1297.9Zm-374-949.1c-23.13-58.61-5-25.55,31.8-27.5,12.8.1,18.3-11.9,34.5-27.5,19-21.45,85.32-67.93,110.2-7.7,11.7,37.8-51.3,57.9-57.6,123.4-2.6,27.3-7.1,51.2-8.8,66.1a4.49,4.49,0,0,1-8.8.6C1039.19,408.87,981.56,435.65,951.5,348.8Zm182.1,448.1c.1.2-2.7-4.1.1.1Z" fill="url(#radial-gradient)"/>
</g>
<g id="street">
<path d="M612.7,605.19l214.5,108c5.3,2.7,66.5,28.8,66.5,28.8" fill="none" stroke="#2f7186" stroke-miterlimit="10" stroke-width="10"/>
<path d="M685.82,912.8c-.32-.57-31.75-57.85-65.5-115.39C557.75,690.7,543.47,678.9,540.59,677.82l-.39-.1-.29-.13-176.8-76.7A38.58,38.58,0,0,0,340.67,598L20.87,654.37l-1.74-9.84,319.8-56.35a48.44,48.44,0,0,1,28.2,3.55l176.41,76.53c4.79,1.3,16.76,7.13,84.73,122.93,34.08,58.07,66,116.23,66.31,116.81Z" fill="url(#linear-gradient)"/>
<path d="M222,619.1c82.9,129.4,82.1,177,140.5,254l78.8,105.6c27.1,35.9,52.3,77.5,56.4,83,20.1,27.3,60.3,94.8,61,213.9" fill="none" stroke-miterlimit="10" stroke-width="10" stroke-dasharray="5.67" stroke="url(#linear-gradient-2)"/>
<path d="M1517.11,1236.23c-40.47-109.55-148.18-263.07-234.72-386.42C1220,760.91,1170.76,690.7,1161.7,659.18c-1.51-5.22-4.28-21.42-8.12-43.84-7.41-43.26-18.61-108.64-26.49-125.19-46.38-96.77-236.07-281.81-238-283.66l-.18-.19a21.61,21.61,0,0,0-15.83-6.9H794.8c-.44,0-.88,0-1.32-.07l-.48,0h-.34c-13.64-.93-25.21-11.66-27.57-25.53l-34.35-155,9.77-2.17,34.4,155.27,0,.13c1.55,9.38,9.23,16.64,18.28,17.32.37,0,.74,0,1.11.07l.48,0h78.3a31.67,31.67,0,0,1,23.08,10c9.07,8.83,193,188.42,239.93,286.44,8.48,17.81,19.37,81.39,27.32,127.81,3.5,20.43,6.53,38.08,7.88,42.77,8.6,29.91,59.88,103,119.27,187.65,86.87,123.82,195,277.93,235.91,388.7Z" fill="url(#linear-gradient-3)"/>
<path d="M1539.2,1213.9c-56.5-168.1-272.7-434.8-356.9-555.4" fill="none" stroke-miterlimit="10" stroke-width="10" stroke-dasharray="5.67" stroke="url(#linear-gradient-4)"/>
<polygon points="272.9 860.1 261 855 268.7 844.1 272.9 860.1" fill="#2f7186"/>
<polygon points="271.6 843.1 275.8 859.1 274.4 859.6 270.2 843.5 271.6 843.1" fill="#2f7186"/>
<polygon points="211.5 483.4 203.8 474.7 214.2 468.8 211.5 483.4" fill="#2f7186"/>
<polygon points="217 469.1 214.2 483.8 212.9 483.5 215.7 468.9 217 469.1" fill="#2f7186"/>
<path d="M218,476.6l162.6,28.5,7.5,1.8c120.3,28.2,224.6,98.29,224.6,98.29" fill="none" stroke="#2f7186" stroke-miterlimit="10" stroke-width="10"/>
<path d="M277,855l-2.44-9.7,143.3-36.1a40.47,40.47,0,0,0,20.5-12.29c2.25-2.57,229.32-261.93,238.08-272.46,9.37-11.27,17.82-26.87,24.44-45.11l.25-.57c7-13.61,105.63-338.47,143.06-462.5l9.58,2.89c-5.48,18.14-133.45,442.06-143.58,463.83-7,19.21-16,35.76-26.07,47.86-8.83,10.62-228.91,262-238.28,272.69a50.32,50.32,0,0,1-25.56,15.36Z" fill="url(#linear-gradient-5)"/>
<path d="M605.8,1230.64l-4.59-8.89c55.29-28.53,397.31-180.88,400.76-182.42l1-.43H1004l406.5-.5,420.9-257.66,5.22,8.52-423.3,259.14h-1.4l-406.84.5C984.76,1057.94,659.38,1203,605.8,1230.64Z" fill="url(#linear-gradient-6)"/>
<path d="M774.6,275.7,969.5,543.9c12.5,13.7,17.8,32.2,16.8,50.9a244.57,244.57,0,0,1-3.4,30.5c-4.8,23-5.49,44.49-41.58,84.7a1.07,1.07,0,0,1-.16.14c-37.25,32.17-53.58,42-73.16,53.26" fill="none" stroke="#2f7186" stroke-miterlimit="10" stroke-width="10"/>
<line x1="885.4" y1="423.4" x2="1031.1" y2="349.6" fill="none" stroke="#2f7186" stroke-miterlimit="10" stroke-width="10"/>
<path d="M859.6,725.7c-6.4-1.1-16.6,7.1-13.7,15.5,5.8,16.9,34.6,7.2,44.9-1" fill="none" stroke="#2f7186" stroke-miterlimit="10" stroke-width="5"/>
<path d="M875.5,757.3c-21,14-67.1-1.4-40.2-37.4" fill="none" stroke="#2f7186" stroke-miterlimit="10" stroke-width="5"/>
<path d="M854.5,768.1c3.9-3.2,29.8-9.7,41.9-7.2,19.9,4.2,36.8,14.3,41,30.3" fill="none" stroke="#a1c4d6" stroke-miterlimit="10" stroke-width="5"/>
<line x1="1005.4" y1="1044.4" x2="1053.7" y2="1293.57" fill="none" stroke-miterlimit="10" stroke-width="15" stroke-dasharray="5.67" stroke="url(#linear-gradient-7)"/>
<line x1="245.3" y1="351.6" x2="408.6" y2="392.3" fill="none" stroke="#a1c4d6" stroke-miterlimit="10" stroke-width="15" stroke-dasharray="5.67"/>
<path d="M277.88,1286.26l-10-11.21,336.3-298.56c7.95-7.2,196.8-178,259.66-219.36,10.42-6.88,77.31-44.33,117.17-60,40.43-15.91,122.92-35.59,126.42-36.42a74.68,74.68,0,0,1,9-1c6.12-.52,14.5-1.23,19.77-2.26l1.66-.33a62.88,62.88,0,0,0,10.5-2.63,39,39,0,0,0,22.23-24.34l.06-.18,115.2-335.5,14.18,4.88L1184.92,634.75a54,54,0,0,1-30.74,33.58c-3.91,1.63-8.28,2.49-13.34,3.49l-1.67.33c-6.1,1.2-15,2-21.41,2.5-2.68.23-6,.51-6.88.66-3.92.94-85.63,20.54-124.33,35.77-39,15.33-104.25,51.86-114.42,58.58-61.91,40.72-255.94,216.23-257.9,218Zm833.14-611-.12,0Z" fill="url(#linear-gradient-8)"/>
<g>
<polygon points="1286.1 289.2 1298.5 281.6 1303.3 294.8 1286.1 289.2" fill="#a1c4d6"/>
<polygon points="1302.3 298 1285.1 292.4 1285.6 290.8 1302.9 296.4 1302.3 298" fill="#a1c4d6"/>
</g>
<g>
<polygon points="238.1 357.9 230.6 348.1 242.2 342.6 238.1 357.9" fill="#a1c4d6"/>
<polygon points="245.1 343.2 241 358.5 239.6 358.2 243.7 342.8 245.1 343.2" fill="#a1c4d6"/>
</g>
<path d="M892.79,736.24c2.76-1.46,34.77-13.68,42.25-12.58,9.77,1.43,13.47,13.64-1.46,21.46-3.26,1.7-4.76,5.43-1.27,18.87" fill="none" stroke="#2f7186" stroke-miterlimit="10" stroke-width="5"/>
<path d="M408.6,392.3a76.83,76.83,0,0,1,12.5,4.3L674.4,512.1a46.78,46.78,0,0,1,21.9,20.7c13.9,26.4,43.9,83.4,61.1,115.9a90.05,90.05,0,0,0,25.8,30.1c17,12.7,67.5,49,115.6,63.5l2.8,1.1c60.1,28.6,74.5,183.6,103.3,302.8" fill="none" stroke="#a1c4d6" stroke-miterlimit="10" stroke-width="15"/>
</g>
<g id="location">
<path d="M222.9,295.46a14.07,14.07,0,1,0-19.9,19.9l8.8,8.8a1.53,1.53,0,0,0,2.14.16l.16-.16h0l8.8-8.8A14.32,14.32,0,0,0,222.9,295.46ZM220.5,313l-7.6,7.6-7.6-7.6a10.75,10.75,0,1,1,15.2,0Zm-12.6-12.6a7.15,7.15,0,1,0,10.11,0h0a7.12,7.12,0,0,0-10.07,0h0Zm7.8,7.7a3.89,3.89,0,0,1-5.5-5.5,3.84,3.84,0,0,1,5.42-.09h0l.08.08a3.54,3.54,0,0,1,1.1,2.8A3.7,3.7,0,0,1,215.7,308.06Z" fill="#a5a5a5"/>
<path d="M129.2,425.91a14.07,14.07,0,0,0-19.9,19.9l8.8,8.8a1.53,1.53,0,0,0,2.14.16l.16-.16h0l8.8-8.8A14.32,14.32,0,0,0,129.2,425.91Zm-2.4,17.5-7.6,7.6-7.6-7.6a10.75,10.75,0,1,1,15.2,0Zm-12.6-12.6a7.15,7.15,0,1,0,10.11,0h0a7.11,7.11,0,0,0-10.07,0h0Zm7.8,7.7a3.89,3.89,0,0,1-5.5-5.5,3.84,3.84,0,0,1,5.42-.09h0l.08.08a3.53,3.53,0,0,1,1.1,2.8A3.71,3.71,0,0,1,122,438.51Z" fill="#a5a5a5"/>
<path d="M153.31,876a14.07,14.07,0,0,0-19.9,19.9l8.8,8.8a1.51,1.51,0,0,0,2.14.16l.16-.16h0l8.8-8.8A14.32,14.32,0,0,0,153.31,876Zm-2.4,17.5-7.6,7.6-7.6-7.6a10.75,10.75,0,1,1,15.2,0Zm-12.6-12.6a7.15,7.15,0,1,0,10.11,0h0a7.12,7.12,0,0,0-10.07,0h0Zm7.8,7.7a3.89,3.89,0,0,1-5.5-5.5A3.82,3.82,0,0,1,146,883h0l.08.08a3.58,3.58,0,0,1,1.1,2.8A3.74,3.74,0,0,1,146.11,888.62Z" fill="#a5a5a5"/>
<path d="M1367.52,316a14.07,14.07,0,0,0-19.9,19.9l8.8,8.8a1.53,1.53,0,0,0,2.14.16l.16-.16h0l8.8-8.8A14.32,14.32,0,0,0,1367.52,316Zm-2.4,17.5-7.6,7.6-7.6-7.6a10.75,10.75,0,1,1,15.2,0Zm-12.6-12.6a7.15,7.15,0,1,0,10.11,0h0a7.12,7.12,0,0,0-10.07,0h0Zm7.8,7.7a3.89,3.89,0,0,1-5.5-5.5,3.84,3.84,0,0,1,5.42-.09h0l.08.08a3.51,3.51,0,0,1,1.1,2.8A3.7,3.7,0,0,1,1360.32,328.6Z" fill="#a5a5a5"/>
</g>
<g id="metro">
<path d="M261,1266c110.4-97,377.5-335,428.1-379.6a37.12,37.12,0,0,1,25.2-9.3c15.3.2,37.6.3,40.7-.8,6.1-2.2,38.9-32.3,40.4-33.8,4.3-3.8-3.3-92.8-6.7-110.6a53.48,53.48,0,0,1-.9-13.9c.5-7,60.8-129.4,89.5-139.4,82.7-28.9,130.4,34.8,145.9,73.7,4.8,12.2,23.1,8.9,35.8,5.7a483.43,483.43,0,0,1,60.8-11c10.5-1.3,17.3-1.6,25.1-6.7,17.8-11.8,19.4-36.3,21.8-42.2,8-19.6,81.2-246.6,92-280" fill="none" stroke-miterlimit="10" stroke-width="3" stroke-dasharray="5.67 4.25" stroke="url(#linear-gradient-9)"/>
<polygon points="1261.1 319.8 1259.9 313.9 1255.4 317.9 1261.1 319.8" fill="#f8e4bf"/>
<path d="M396.83,410.54l160.06,67.9L670.2,535.2c3.7,1.6,7.6,3.7,9,7.5,14.1,39,105.1,177.1,105.1,177.1" fill="none" stroke="#f8e4bf" stroke-miterlimit="10" stroke-width="3" stroke-dasharray="5.67 4.25"/>
<polygon points="394.53 411.79 392.03 408.19 396.43 407.79 394.53 411.79" fill="#f8e4bf"/>
</g>
</svg>
