<svg  xmlns="http://www.w3.org/2000/svg" xmlns:xlink="http://www.w3.org/1999/xlink" x="0px" y="0px" width="450px" height="150px" viewBox="0 0 450 150">
<rect x="77" y="85.9" fill="#231F20" width="363.5" height="1.2"/>
<g>
<defs>
<path id="SVGID_1_" d="M155.6,113.6c0,11.2-9.1,20.2-20.2,20.2c-11.2,0-20.2-9-20.2-20.2s9.1-20.2,20.2-20.2
C146.5,93.4,155.6,102.4,155.6,113.6z M135.3,103.9c-5.7,0-10.3,4.6-10.3,10.3c0,5.7,4.6,10.3,10.3,10.3s10.3-4.6,10.3-10.3
S141,103.9,135.3,103.9z"/>
</defs>
<clipPath id="SVGID_00000034802169302983428270000003627012870334546873_">
<use xlink:href="#SVGID_1_"  overflow="visible"/>
</clipPath>
<g clip-path="url(#SVGID_00000034802169302983428270000003627012870334546873_)">
<g>
<path fill="#93021E" d="M116.1,110.5c-0.2,1.5-0.2,3-0.2,4.6l19.4,16.7v-17.9L116.1,110.5z"/>
<path fill="#E0183A" d="M116.1,110.5l19.2,3.4l9.5-2.1c-2.3-9.8-10.5-16.3-18.4-14.5C120.2,98.6,116.9,103.7,116.1,110.5z"/>
<g>
<g>
<defs>
<path id="SVGID_00000104696136040294091610000016251235909533634733_" d="M126.4,97.2c-7.5,1.7-10.7,8.9-10.5,17.8l19.4,16.7
l9.5-20C142.5,101.9,134.3,95.4,126.4,97.2z"/>
</defs>
<clipPath id="SVGID_00000020370501683784517930000017952720752285766022_">
<use xlink:href="#SVGID_00000104696136040294091610000016251235909533634733_"  overflow="visible"/>
</clipPath>
<g clip-path="url(#SVGID_00000020370501683784517930000017952720752285766022_)">
<rect x="112.4" y="114.1" fill="#93021E" width="22.9" height="0.2"/>
<polygon fill="#94021F" points="135.3,114.3 112.5,114.2 112.5,114 135.3,114.1	"/>
<polygon fill="#94021F" points="135.3,114.3 112.5,114.1 112.5,113.9 135.3,114.1	"/>
<polygon fill="#94021F" points="135.3,114.3 112.6,114 112.6,113.8 135.3,114.1	"/>
<polygon fill="#94021F" points="135.3,114.3 112.6,114 112.6,113.7 135.3,114.1	"/>
<polygon fill="#95031F" points="135.3,114.3 112.6,113.9 112.6,113.7 135.3,114.1	"/>
<polygon fill="#95031F" points="135.3,114.3 112.7,113.8 112.7,113.6 135.3,114.1	"/>
<polygon fill="#960320" points="135.3,114.3 112.7,113.7 112.7,113.5 135.3,114.1	"/>
<polygon fill="#960320" points="135.3,114.3 112.8,113.6 112.8,113.4 135.3,114.1	"/>
<polygon fill="#970320" points="135.3,114.3 112.8,113.5 112.8,113.3 135.3,114.1	"/>
<polygon fill="#970320" points="135.3,114.3 112.8,113.4 112.8,113.2 135.3,114.1	"/>
<polygon fill="#970320" points="135.3,114.3 112.9,113.4 112.9,113.1 135.3,114.1	"/>
<polygon fill="#970320" points="135.3,114.3 112.9,113.3 112.9,113.1 135.3,114.1	"/>
<polygon fill="#980421" points="135.3,114.3 112.9,113.2 113,113 135.3,114.1	"/>
<polygon fill="#980421" points="135.3,114.3 113,113.1 113,112.9 135.3,114.1	"/>
<polygon fill="#990421" points="135.3,114.3 113,113 113,112.8 135.3,114.1	"/>
<polygon fill="#990421" points="135.3,114.3 113.1,112.9 113.1,112.7 135.3,114.1	"/>
<polygon fill="#9A0421" points="135.3,114.3 113.1,112.8 113.1,112.6 135.3,114.1	"/>
<polygon fill="#9A0421" points="135.3,114.3 113.2,112.8 113.2,112.6 135.3,114.1	"/>
<polygon fill="#9A0422" points="135.3,114.3 113.2,112.7 113.2,112.5 135.3,114.1	"/>
<polygon fill="#9A0422" points="135.3,114.3 113.2,112.6 113.3,112.4 135.3,114.1	"/>
<polygon fill="#9B0522" points="135.3,114.3 113.3,112.5 113.3,112.3 135.3,114.1	"/>
<polygon fill="#9B0522" points="135.3,114.3 113.3,112.4 113.3,112.2 135.3,114.1	"/>
<polygon fill="#9C0522" points="135.3,114.3 113.3,112.3 113.4,112.1 135.3,114.1	"/>
<polygon fill="#9C0522" points="135.3,114.3 113.4,112.2 113.4,112 135.3,114.1	"/>
<polygon fill="#9D0523" points="135.3,114.3 113.4,112.2 113.4,112 135.3,114.1	"/>
<polygon fill="#9D0523" points="135.3,114.3 113.5,112.1 113.5,111.9 135.4,114.1	"/>
<polygon fill="#9D0623" points="135.3,114.3 113.5,112 113.5,111.8 135.4,114.1	"/>
<polygon fill="#9D0623" points="135.3,114.3 113.5,111.9 113.6,111.7 135.4,114.1	"/>
<polygon fill="#9E0623" points="135.3,114.3 113.6,111.8 113.6,111.6 135.4,114.1	"/>
<polygon fill="#9E0623" points="135.3,114.3 113.6,111.7 113.6,111.5 135.4,114.1	"/>
<polygon fill="#9F0624" points="135.3,114.3 113.7,111.7 113.7,111.4 135.4,114.1	"/>
<polygon fill="#9F0624" points="135.3,114.3 113.7,111.6 113.7,111.4 135.4,114.1	"/>
<polygon fill="#9F0624" points="135.3,114.3 113.7,111.5 113.8,111.3 135.4,114.1	"/>
<polygon fill="#9F0624" points="135.3,114.3 113.8,111.4 113.8,111.2 135.4,114.1	"/>
<polygon fill="#A00724" points="135.3,114.3 113.8,111.3 113.8,111.1 135.4,114.1	"/>
<polygon fill="#A00724" points="135.3,114.3 113.9,111.2 113.9,111 135.4,114.1	"/>
<polygon fill="#A10724" points="135.3,114.3 113.9,111.1 113.9,110.9 135.4,114.1	"/>
<polygon fill="#A10724" points="135.3,114.3 113.9,111 114,110.9 135.4,114.1	"/>
<polygon fill="#A20725" points="135.3,114.3 114,111 114,110.8 135.4,114.1	"/>
<polygon fill="#A20725" points="135.3,114.3 114,110.9 114,110.7 135.4,114.1	"/>
<polygon fill="#A20825" points="135.3,114.3 114.1,110.8 114.1,110.6 135.4,114.1	"/>
<polygon fill="#A20825" points="135.3,114.3 114.1,110.7 114.1,110.5 135.4,114.1	"/>
<polygon fill="#A30825" points="135.3,114.3 114.1,110.6 114.2,110.4 135.4,114.1	"/>
<polygon fill="#A30825" points="135.3,114.3 114.2,110.5 114.2,110.3 135.4,114.1	"/>
<polygon fill="#A40826" points="135.3,114.3 114.2,110.5 114.2,110.3 135.4,114.1	"/>
<polygon fill="#A40826" points="135.3,114.3 114.3,110.4 114.3,110.2 135.4,114.1	"/>
<polygon fill="#A50826" points="135.3,114.3 114.3,110.3 114.3,110.1 135.4,114.1	"/>
<polygon fill="#A50826" points="135.3,114.3 114.3,110.2 114.4,110 135.4,114.1	"/>
<polygon fill="#A50926" points="135.3,114.3 114.4,110.1 114.4,109.9 135.4,114.1	"/>
<polygon fill="#A50926" points="135.3,114.3 114.4,110 114.5,109.8 135.4,114.1	"/>
<polygon fill="#A60927" points="135.3,114.3 114.5,109.9 114.5,109.7 135.4,114.1	"/>
<polygon fill="#A60927" points="135.3,114.3 114.5,109.9 114.5,109.7 135.4,114.1	"/>
<polygon fill="#A70927" points="135.3,114.3 114.5,109.8 114.6,109.6 135.4,114.1	"/>
<polygon fill="#A70927" points="135.3,114.3 114.6,109.7 114.6,109.5 135.4,114.1	"/>
<polygon fill="#A80A27" points="135.3,114.3 114.6,109.6 114.7,109.4 135.4,114.1	"/>

<rect x="124.9" y="101.2" transform="matrix(0.2251 -0.9743 0.9743 0.2251 -12.0884 208.4445)" fill="#A80A27" width="0.2" height="21.2"/>
<polygon fill="#A80A27" points="135.3,114.3 114.7,109.4 114.7,109.2 135.4,114.1	"/>
<polygon fill="#A80A27" points="135.3,114.3 114.7,109.3 114.8,109.2 135.4,114.1	"/>
<polygon fill="#A90A28" points="135.3,114.3 114.8,109.3 114.8,109.1 135.4,114.1	"/>
<polygon fill="#A90A28" points="135.3,114.3 114.8,109.2 114.9,109 135.4,114.1	"/>
<polygon fill="#AA0A28" points="135.3,114.3 114.8,109.1 114.9,108.9 135.4,114.1	"/>
<polygon fill="#AA0A28" points="135.3,114.3 114.9,109 114.9,108.8 135.4,114.1	"/>
<polygon fill="#AB0B28" points="135.3,114.3 114.9,108.9 115,108.7 135.4,114.1	"/>
<polygon fill="#AB0B28" points="135.3,114.3 115,108.8 115,108.6 135.4,114.1	"/>
<polygon fill="#AC0B29" points="135.3,114.3 115,108.7 115.1,108.6 135.4,114.1	"/>
<polygon fill="#AC0B29" points="135.3,114.3 115,108.7 115.1,108.5 135.4,114.1	"/>
<polygon fill="#AC0B29" points="135.3,114.3 115.1,108.6 115.1,108.4 135.4,114.1	"/>
<polygon fill="#AC0B29" points="135.3,114.3 115.1,108.5 115.2,108.3 135.4,114.1	"/>
<polygon fill="#AD0C29" points="135.3,114.3 115.2,108.4 115.2,108.2 135.4,114.1	"/>
<polygon fill="#AD0C29" points="135.3,114.3 115.2,108.3 115.2,108.1 135.4,114.1	"/>
<polygon fill="#AE0C2A" points="135.3,114.3 115.2,108.2 115.3,108 135.4,114.1	"/>
<polygon fill="#AE0C2A" points="135.3,114.3 115.3,108.2 115.3,108 135.4,114.1	"/>
<polygon fill="#AF0C2A" points="135.3,114.3 115.3,108.1 115.4,107.9 135.4,114.1	"/>
<polygon fill="#AF0C2A" points="135.3,114.3 115.3,108 115.4,107.8 135.4,114.1	"/>
<polygon fill="#AF0C2A" points="135.3,114.3 115.4,107.9 115.4,107.7 135.4,114.1	"/>
<polygon fill="#AF0C2A" points="135.3,114.3 115.4,107.8 115.5,107.6 135.4,114.1	"/>
<polygon fill="#B00D2A" points="135.3,114.3 115.5,107.7 115.5,107.5 135.4,114.1	"/>
<polygon fill="#B00D2A" points="135.3,114.3 115.5,107.6 115.6,107.5 135.4,114.1	"/>
<polygon fill="#B10D2B" points="135.3,114.3 115.5,107.6 115.6,107.4 135.4,114.1	"/>
<polygon fill="#B10D2B" points="135.3,114.3 115.6,107.5 115.7,107.3 135.4,114.1	"/>
<polygon fill="#B20D2B" points="135.3,114.3 115.6,107.4 115.7,107.2 135.4,114.1	"/>
<polygon fill="#B20D2B" points="135.3,114.3 115.7,107.3 115.7,107.1 135.4,114.1	"/>
<polygon fill="#B20D2B" points="135.3,114.3 115.7,107.2 115.8,107 135.4,114.1	"/>
<polygon fill="#B20D2B" points="135.3,114.3 115.7,107.1 115.8,106.9 135.4,114.1	"/>
<polygon fill="#B30D2C" points="135.3,114.3 115.8,107 115.9,106.9 135.4,114.1	"/>
<polygon fill="#B30D2C" points="135.3,114.3 115.8,106.9 115.9,106.8 135.4,114.1	"/>
<polygon fill="#B40E2C" points="135.3,114.3 115.9,106.9 115.9,106.7 135.4,114.1	"/>
<polygon fill="#B40E2C" points="135.3,114.3 115.9,106.8 116,106.6 135.4,114.1	"/>
<polygon fill="#B50E2C" points="135.3,114.3 115.9,106.7 116,106.5 135.4,114.1	"/>
<polygon fill="#B50E2C" points="135.3,114.3 116,106.6 116.1,106.4 135.4,114.1	"/>
<polygon fill="#B50E2C" points="135.3,114.3 116,106.5 116.1,106.4 135.4,114.1	"/>
<polygon fill="#B50E2C" points="135.3,114.3 116.1,106.4 116.1,106.3 135.4,114.1	"/>
<polygon fill="#B60E2D" points="135.3,114.3 116.1,106.4 116.2,106.2 135.4,114.1	"/>
<polygon fill="#B60E2D" points="135.3,114.3 116.1,106.3 116.2,106.1 135.4,114.1	"/>
<polygon fill="#B70F2D" points="135.3,114.3 116.2,106.2 116.3,106 135.4,114.1	"/>
<rect x="125.7" y="99.7" transform="matrix(0.3933 -0.9194 0.9194 0.3933 -24.9099 182.4579)" fill="#B70F2D" width="0.2" height="20.8"/>
<polygon fill="#B80F2D" points="135.3,114.3 116.3,106 116.3,105.8 135.4,114.1	"/>
<polygon fill="#B80F2D" points="135.3,114.3 116.3,105.9 116.4,105.7 135.4,114.1	"/>
<polygon fill="#B90F2D" points="135.3,114.3 116.3,105.8 116.4,105.7 135.4,114.1	"/>
<polygon fill="#B90F2D" points="135.3,114.3 116.4,105.8 116.5,105.6 135.4,114.1	"/>
<polygon fill="#B90F2E" points="135.3,114.3 116.4,105.7 116.5,105.5 135.4,114.1	"/>
<polygon fill="#B90F2E" points="135.3,114.3 116.5,105.6 116.5,105.4 135.4,114.1	"/>
<polygon fill="#B90F2E" points="135.3,114.3 116.5,105.5 116.6,105.3 135.4,114.1	"/>
<polygon fill="#BA0F2E" points="135.3,114.3 116.5,105.4 116.6,105.2 135.4,114.1	"/>
<rect x="125.9" y="99.3" transform="matrix(0.431 -0.9024 0.9024 0.431 -27.2976 176.0982)" fill="#BA0F2E" width="0.2" height="20.8"/>
<polygon fill="#BB102E" points="135.3,114.3 116.6,105.2 116.7,105.1 135.4,114.1	"/>
<polygon fill="#BB102E" points="135.3,114.3 116.7,105.2 116.7,105 135.4,114.1	"/>
<polygon fill="#BC102E" points="135.3,114.3 116.7,105.1 116.8,104.9 135.4,114.1	"/>
<polygon fill="#BC102E" points="135.3,114.3 116.7,105 116.8,104.8 135.4,114.1	"/>
<polygon fill="#BC102F" points="135.3,114.3 116.8,104.9 116.9,104.7 135.4,114.1	"/>
<polygon fill="#BC102F" points="135.3,114.3 116.8,104.8 116.9,104.6 135.4,114.1	"/>
<polygon fill="#BD102F" points="135.3,114.3 116.8,104.7 116.9,104.6 135.4,114.1	"/>
<polygon fill="#BD102F" points="135.3,114.3 116.9,104.6 117,104.5 135.4,114.1	"/>
<polygon fill="#BE102F" points="135.3,114.3 116.9,104.6 117,104.4 135.4,114.1	"/>
<polygon fill="#BE102F" points="135.3,114.3 117,104.5 117.1,104.3 135.4,114.1	"/>
<polygon fill="#BF112F" points="135.3,114.3 117,104.4 117.1,104.2 135.4,114.1	"/>
<polygon fill="#BF112F" points="135.3,114.3 117,104.3 117.1,104.1 135.4,114.1	"/>
<polygon fill="#BF1130" points="135.3,114.3 117.1,104.2 117.2,104.1 135.4,114.1	"/>
<polygon fill="#BF1130" points="135.3,114.3 117.1,104.1 117.2,104 135.4,114.1	"/>
<polygon fill="#C01130" points="135.3,114.3 117.2,104.1 117.3,103.9 135.4,114.1	"/>
<polygon fill="#C01130" points="135.3,114.3 117.2,104 117.3,103.8 135.4,114.1	"/>
<polygon fill="#C11130" points="135.3,114.3 117.2,103.9 117.3,103.7 135.4,114.1	"/>
<polygon fill="#C11130" points="135.3,114.3 117.3,103.8 117.4,103.6 135.4,114.1	"/>
<polygon fill="#C21130" points="135.3,114.3 117.3,103.7 117.4,103.5 135.4,114.1	"/>
<polygon fill="#C21130" points="135.3,114.3 117.4,103.6 117.4,103.5 135.4,114.1	"/>
<polygon fill="#C21231" points="135.3,114.3 117.4,103.5 117.5,103.4 135.4,114.1	"/>
<polygon fill="#C21231" points="135.3,114.3 117.4,103.5 117.5,103.3 135.4,114.1	"/>
<polygon fill="#C31231" points="135.3,114.3 117.5,103.4 117.6,103.2 135.4,114.1	"/>
<polygon fill="#C31231" points="135.3,114.3 117.5,103.3 117.6,103.1 135.4,114.1	"/>
<polygon fill="#C41231" points="135.3,114.3 117.6,103.2 117.7,103 135.4,114.1	"/>
<polygon fill="#C41231" points="135.3,114.3 117.6,103.1 117.7,102.9 135.4,114.1	"/>
<polygon fill="#C51231" points="135.3,114.3 117.6,103 117.7,102.9 135.4,114.1	"/>
<polygon fill="#C51231" points="135.3,114.3 117.7,102.9 117.8,102.8 135.4,114.1	"/>
<polygon fill="#C51232" points="135.3,114.3 117.7,102.9 117.8,102.7 135.4,114.1	"/>
<polygon fill="#C51232" points="135.3,114.3 117.8,102.8 117.8,102.6 135.4,114.1	"/>
<polygon fill="#C61332" points="135.3,114.3 117.8,102.7 117.9,102.5 135.4,114.1	"/>
<polygon fill="#C61332" points="135.3,114.3 117.8,102.6 117.9,102.4 135.4,114.1	"/>
<polygon fill="#C71332" points="135.3,114.3 117.9,102.5 118,102.4 135.4,114.1	"/>
<polygon fill="#C71332" points="135.3,114.3 117.9,102.4 118,102.3 135.4,114.1	"/>
<polygon fill="#C81332" points="135.3,114.3 118,102.3 118.1,102.2 135.4,114.1	"/>
<polygon fill="#C81332" points="135.3,114.3 118,102.3 118.1,102.1 135.4,114.1	"/>
<polygon fill="#C81333" points="135.3,114.3 118,102.2 118.1,102 135.4,114.1	"/>
<polygon fill="#C81333" points="135.3,114.3 118.1,102.1 118.2,101.9 135.4,114.1	"/>
<polygon fill="#C91333" points="135.3,114.3 118.1,102 118.2,101.8 135.4,114.1	"/>
<polygon fill="#C91333" points="135.3,114.3 118.2,101.9 118.3,101.8 135.4,114.1	"/>
<polygon fill="#CA1333" points="135.3,114.3 118.2,101.8 118.3,101.7 135.4,114.1	"/>
<polygon fill="#CA1333" points="135.3,114.3 118.2,101.7 118.3,101.6 135.4,114.1	"/>
<polygon fill="#CB1433" points="135.3,114.3 118.3,101.7 118.4,101.5 135.4,114.1	"/>
<polygon fill="#CB1433" points="135.3,114.3 118.3,101.6 118.4,101.4 135.4,114.1	"/>
<polygon fill="#CB1434" points="135.3,114.3 118.3,101.5 118.5,101.3 135.4,114.1	"/>
<polygon fill="#CB1434" points="135.3,114.3 118.4,101.4 118.5,101.2 135.4,114.1	"/>
<polygon fill="#CC1434" points="135.3,114.3 118.4,101.3 118.5,101.2 135.4,114.1	"/>
<polygon fill="#CC1434" points="135.3,114.3 118.5,101.2 118.6,101.1 135.4,114.1	"/>
<polygon fill="#CD1434" points="135.3,114.3 118.5,101.1 118.6,101 135.4,114.1	"/>
<polygon fill="#CD1434" points="135.3,114.3 118.5,101.1 118.7,100.9 135.4,114.1	"/>
<polygon fill="#CE1434" points="135.3,114.3 118.6,101 118.7,100.8 135.4,114.1	"/>
<polygon fill="#CE1434" points="135.3,114.3 118.6,100.9 118.7,100.7 135.4,114.1	"/>
<polygon fill="#CE1435" points="135.3,114.3 118.6,100.8 118.8,100.7 135.4,114.1	"/>
<polygon fill="#CE1435" points="135.3,114.3 118.7,100.7 118.8,100.6 135.4,114.1	"/>
<polygon fill="#CF1435" points="135.3,114.3 118.7,100.6 118.8,100.5 135.4,114.1	"/>
<polygon fill="#CF1435" points="135.3,114.3 118.8,100.5 118.9,100.4 135.4,114.1	"/>
<polygon fill="#D01535" points="135.3,114.3 118.8,100.5 118.9,100.3 135.4,114.1	"/>
<polygon fill="#D01535" points="135.3,114.3 118.8,100.4 119,100.2 135.4,114.1	"/>
<polygon fill="#D11535" points="135.3,114.3 118.9,100.3 119,100.2 135.4,114.1	"/>
<polygon fill="#D11535" points="135.3,114.3 118.9,100.2 119.1,100.1 135.4,114.1	"/>
<polygon fill="#D11536" points="135.3,114.3 119,100.1 119.1,100 135.4,114.1	"/>
<polygon fill="#D11536" points="135.3,114.3 119,100 119.1,99.9 135.4,114.1	"/>
<polygon fill="#D21536" points="135.3,114.3 119,100 119.2,99.8 135.4,114.1	"/>
<polygon fill="#D21536" points="135.3,114.3 119.1,99.9 119.2,99.7 135.4,114.1	"/>
<polygon fill="#D31536" points="135.3,114.3 119.1,99.8 119.3,99.6 135.4,114.1	"/>
<polygon fill="#D31536" points="135.3,114.3 119.2,99.7 119.3,99.6 135.4,114.1	"/>
<polygon fill="#D41536" points="135.3,114.3 119.2,99.6 119.3,99.5 135.4,114.1	"/>
<polygon fill="#D41536" points="135.3,114.3 119.2,99.5 119.4,99.4 135.4,114.1	"/>
<polygon fill="#D41536" points="135.3,114.3 119.3,99.4 119.4,99.3 135.4,114.1	"/>
<polygon fill="#D41536" points="135.3,114.3 119.3,99.4 119.5,99.2 135.4,114.1	"/>
<polygon fill="#D51637" points="135.3,114.3 119.4,99.3 119.5,99.1 135.4,114.1	"/>
<polygon fill="#D51637" points="135.3,114.3 119.4,99.2 119.5,99 135.4,114.1	"/>
<polygon fill="#D61637" points="135.3,114.3 119.4,99.1 119.6,99 135.4,114.1	"/>
<polygon fill="#D61637" points="135.3,114.3 119.5,99 119.6,98.9 135.4,114.1	"/>
<polygon fill="#D71637" points="135.3,114.3 119.5,98.9 119.7,98.8 135.4,114.1	"/>
<polygon fill="#D71637" points="135.3,114.3 119.6,98.8 119.7,98.7 135.4,114.1	"/>
<polygon fill="#D71637" points="135.3,114.3 119.6,98.8 119.8,98.6 135.4,114.1	"/>
<polygon fill="#D71637" points="135.3,114.3 119.6,98.7 119.8,98.5 135.4,114.1	"/>
<polygon fill="#D81637" points="135.3,114.3 119.7,98.6 119.8,98.4 135.4,114.1	"/>
<polygon fill="#D81637" points="135.3,114.3 119.7,98.5 119.9,98.4 135.4,114.1	"/>
<polygon fill="#D91638" points="135.3,114.3 119.8,98.4 119.9,98.3 135.4,114.1	"/>
<polygon fill="#D91638" points="135.3,114.3 119.8,98.3 119.9,98.2 135.4,114.1	"/>
<polygon fill="#DA1738" points="135.3,114.3 119.8,98.3 120,98.1 135.4,114.1	"/>
<polygon fill="#DA1738" points="135.3,114.3 119.9,98.2 120,98 135.4,114.1	"/>
<polygon fill="#DB1738" points="135.3,114.3 119.9,98.1 120.1,97.9 135.4,114.1	"/>
<polygon fill="#DB1738" points="135.3,114.3 120,98 120.1,97.8 135.4,114.1	"/>
<polygon fill="#DB1738" points="135.3,114.3 120,97.9 120.2,97.8 135.4,114.1	"/>
<polygon fill="#DB1738" points="135.3,114.3 120,97.8 120.2,97.7 135.4,114.1	"/>
<polygon fill="#DC1739" points="135.3,114.3 120.1,97.7 120.2,97.6 135.4,114.1	"/>
<polygon fill="#DC1739" points="135.3,114.3 120.1,97.6 120.3,97.5 135.4,114.1	"/>
<polygon fill="#DD1739" points="135.3,114.3 120.2,97.6 120.3,97.4 135.4,114.1	"/>
<polygon fill="#DD1739" points="135.3,114.3 120.2,97.5 120.3,97.3 135.4,114.1	"/>
<polygon fill="#DD1739" points="135.3,114.3 120.2,97.4 120.4,97.3 135.4,114.1	"/>
<polygon fill="#DD1739" points="135.3,114.3 120.3,97.3 120.4,97.2 135.4,114.1	"/>
<polygon fill="#DE1739" points="135.3,114.3 120.3,97.2 120.5,97.1 135.4,114.1	"/>
<polygon fill="#DE1739" points="135.3,114.3 120.3,97.1 120.5,97 135.4,114.1	"/>
<polygon fill="#DF1839" points="135.3,114.3 120.4,97.1 120.5,96.9 135.4,114.1	"/>
<polygon fill="#DF1839" points="135.3,114.3 120.4,97 120.6,96.8 135.4,114.1	"/>
<polygon fill="#E0183A" points="135.3,114.3 120.5,96.9 120.6,96.7 135.4,114.1	"/>
<polygon fill="#E0183A" points="135.3,114.3 120.5,96.8 120.7,96.7 135.4,114.1	"/>
<polygon fill="#E0183A" points="135.3,114.3 120.5,96.7 120.7,96.6 135.4,114.1	"/>
</g>
</g>
</g>
</g>
<g>
<path fill="#93021E" d="M153.5,105.8c-1.6-4.4-4.6-7.5-9.2-8.6c-7.9-1.8-16.2,4.7-18.4,14.5l0,0l9.5,2.1L153.5,105.8z"/>
<path fill="#E0183A" d="M153.5,105.8l-18.2,8.1v17.9l19.4-16.7C154.9,111.6,154.5,108.5,153.5,105.8z"/>
<g>
<g>
<defs>
<path id="SVGID_00000158016513509204490220000010745535794086262176_" d="M144.3,97.2c7.5,1.7,10.7,8.9,10.4,17.8l-19.4,16.7
l-9.5-20C128.1,101.9,136.4,95.4,144.3,97.2z"/>
</defs>
<clipPath id="SVGID_00000183228974749018653680000011449113744219068558_">
<use xlink:href="#SVGID_00000158016513509204490220000010745535794086262176_"  overflow="visible"/>
</clipPath>
<g clip-path="url(#SVGID_00000183228974749018653680000011449113744219068558_)">
<polygon fill="#93021E" points="135.5,114.2 135.2,114.2 137.4,89.2 137.6,89.2	"/>
<polygon fill="#94021F" points="135.4,114.2 135.2,114.2 137.5,89.3 137.7,89.3	"/>
<polygon fill="#94021F" points="135.4,114.2 135.2,114.2 137.6,89.3 137.8,89.4	"/>
<polygon fill="#94021F" points="135.4,114.2 135.2,114.2 137.7,89.4 138,89.4	"/>
<polygon fill="#94021F" points="135.4,114.2 135.2,114.2 137.8,89.5 138,89.5	"/>
<polygon fill="#95031F" points="135.4,114.2 135.2,114.2 138,89.6 138.2,89.6	"/>
<polygon fill="#95031F" points="135.4,114.2 135.2,114.2 138,89.7 138.3,89.7	"/>
<polygon fill="#960320" points="135.4,114.2 135.2,114.2 138.2,89.7 138.4,89.8	"/>
<polygon fill="#960320" points="135.4,114.2 135.2,114.2 138.3,89.8 138.5,89.8	"/>
<polygon fill="#970320" points="135.4,114.2 135.3,114.2 138.4,89.9 138.6,89.9	"/>
<polygon fill="#970320" points="135.4,114.2 135.3,114.2 138.5,90 138.7,90	"/>
<polygon fill="#970320" points="135.4,114.2 135.3,114.2 138.6,90.1 138.8,90.1	"/>
<polygon fill="#970320" points="135.4,114.2 135.3,114.2 138.7,90.1 138.9,90.2	"/>
<polygon fill="#980421" points="135.4,114.2 135.3,114.2 138.8,90.2 139,90.2	"/>
<polygon fill="#980421" points="135.4,114.2 135.3,114.2 138.9,90.3 139.1,90.3	"/>
<polygon fill="#990421" points="135.4,114.2 135.3,114.2 139,90.4 139.2,90.4	"/>
<rect x="125.2" y="102.2" transform="matrix(0.119 -0.9929 0.9929 0.119 19.3522 226.383)" fill="#990421" width="24" height="0.2"/>
<polygon fill="#9A0421" points="135.4,114.2 135.3,114.2 139.2,90.5 139.4,90.6	"/>
<polygon fill="#9A0421" points="135.4,114.2 135.3,114.2 139.3,90.6 139.5,90.6	"/>
<polygon fill="#9A0422" points="135.4,114.2 135.3,114.2 139.4,90.7 139.6,90.7	"/>
<polygon fill="#9A0422" points="135.4,114.2 135.3,114.2 139.5,90.8 139.7,90.8	"/>
<polygon fill="#9B0522" points="135.4,114.2 135.3,114.2 139.6,90.8 139.8,90.9	"/>
<polygon fill="#9B0522" points="135.4,114.2 135.3,114.2 139.7,90.9 139.9,91	"/>
<polygon fill="#9C0522" points="135.4,114.2 135.3,114.2 139.8,91 140,91	"/>
<polygon fill="#9C0522" points="135.4,114.2 135.3,114.2 139.9,91.1 140.1,91.1	"/>
<polygon fill="#9D0523" points="135.4,114.2 135.3,114.2 140,91.2 140.2,91.2	"/>
<polygon fill="#9D0523" points="135.4,114.2 135.3,114.2 140.1,91.2 140.3,91.3	"/>
<polygon fill="#9D0623" points="135.4,114.2 135.3,114.2 140.2,91.3 140.4,91.4	"/>
<polygon fill="#9D0623" points="135.4,114.2 135.3,114.2 140.3,91.4 140.5,91.4	"/>
<polygon fill="#9E0623" points="135.4,114.2 135.3,114.2 140.5,91.5 140.6,91.5	"/>
<polygon fill="#9E0623" points="135.4,114.2 135.3,114.2 140.6,91.6 140.7,91.6	"/>
<polygon fill="#9F0624" points="135.4,114.2 135.3,114.2 140.6,91.6 140.8,91.7	"/>
<polygon fill="#9F0624" points="135.4,114.2 135.3,114.2 140.8,91.7 141,91.8	"/>
<polygon fill="#9F0624" points="135.4,114.2 135.3,114.2 140.9,91.8 141.1,91.8	"/>
<polygon fill="#9F0624" points="135.4,114.2 135.3,114.2 141,91.9 141.2,91.9	"/>
<polygon fill="#A00724" points="135.4,114.2 135.3,114.2 141.1,92 141.3,92	"/>
<polygon fill="#A00724" points="135.4,114.2 135.3,114.2 141.2,92 141.4,92.1	"/>
<polygon fill="#A10724" points="135.4,114.2 135.3,114.2 141.3,92.1 141.5,92.2	"/>
<polygon fill="#A10724" points="135.4,114.2 135.3,114.2 141.4,92.2 141.6,92.2	"/>
<polygon fill="#A20725" points="135.4,114.2 135.3,114.2 141.5,92.3 141.7,92.3	"/>
<polygon fill="#A20725" points="135.4,114.2 135.3,114.2 141.6,92.4 141.8,92.4	"/>
<polygon fill="#A20825" points="135.4,114.2 135.3,114.2 141.7,92.4 141.9,92.5	"/>
<polygon fill="#A20825" points="135.4,114.2 135.3,114.2 141.8,92.5 142,92.6	"/>
<polygon fill="#A30825" points="135.4,114.2 135.3,114.2 141.9,92.6 142.1,92.6	"/>
<polygon fill="#A30825" points="135.4,114.2 135.3,114.2 142,92.7 142.2,92.7	"/>
<polygon fill="#A40826" points="135.4,114.2 135.3,114.2 142.1,92.8 142.3,92.8	"/>
<polygon fill="#A40826" points="135.4,114.2 135.3,114.2 142.2,92.8 142.4,92.9	"/>
<polygon fill="#A50826" points="135.4,114.2 135.3,114.2 142.3,92.9 142.5,93	"/>
<polygon fill="#A50826" points="135.4,114.2 135.3,114.2 142.4,93 142.6,93	"/>
<polygon fill="#A50926" points="135.4,114.2 135.3,114.2 142.5,93.1 142.7,93.1	"/>
<polygon fill="#A50926" points="135.4,114.2 135.3,114.2 142.6,93.1 142.8,93.2	"/>
<polygon fill="#A60927" points="135.4,114.2 135.3,114.2 142.7,93.2 142.9,93.3	"/>
<polygon fill="#A60927" points="135.4,114.2 135.3,114.2 142.8,93.3 143,93.4	"/>
<rect x="128.1" y="103.7" transform="matrix(0.3468 -0.9379 0.9379 0.3468 -6.475 198.3747)" fill="#A70927" width="22.1" height="0.2"/>
<polygon fill="#A70927" points="135.4,114.2 135.3,114.2 143,93.5 143.2,93.5	"/>
<polygon fill="#A80A27" points="135.4,114.2 135.3,114.2 143.2,93.5 143.3,93.6	"/>
<polygon fill="#A80A27" points="135.4,114.2 135.3,114.2 143.3,93.6 143.4,93.7	"/>
<polygon fill="#A80A27" points="135.4,114.2 135.3,114.2 143.4,93.7 143.5,93.8	"/>
<polygon fill="#A80A27" points="135.4,114.2 135.3,114.2 143.5,93.8 143.6,93.8	"/>
<polygon fill="#A90A28" points="135.4,114.2 135.3,114.2 143.6,93.8 143.8,93.9	"/>
<polygon fill="#A90A28" points="135.4,114.2 135.3,114.2 143.7,93.9 143.8,94	"/>
<polygon fill="#AA0A28" points="135.4,114.2 135.3,114.2 143.8,94 143.9,94.1	"/>
<polygon fill="#AA0A28" points="135.4,114.2 135.3,114.2 143.9,94.1 144.1,94.2	"/>
<polygon fill="#AB0B28" points="135.4,114.2 135.3,114.2 144,94.2 144.2,94.2	"/>
<polygon fill="#AB0B28" points="135.4,114.2 135.3,114.2 144.1,94.2 144.3,94.3	"/>
<rect x="129" y="104.2" transform="matrix(0.4114 -0.9115 0.9115 0.4114 -12.8094 188.8521)" fill="#AC0B29" width="21.7" height="0.2"/>
<polygon fill="#AC0B29" points="135.4,114.2 135.3,114.2 144.3,94.4 144.5,94.5	"/>
<polygon fill="#AC0B29" points="135.4,114.2 135.3,114.2 144.4,94.5 144.6,94.6	"/>
<polygon fill="#AC0B29" points="135.4,114.2 135.3,114.2 144.5,94.6 144.7,94.6	"/>
<polygon fill="#AD0C29" points="135.4,114.2 135.3,114.2 144.6,94.6 144.8,94.7	"/>
<polygon fill="#AD0C29" points="135.4,114.2 135.3,114.2 144.7,94.7 144.9,94.8	"/>
<polygon fill="#AE0C2A" points="135.4,114.2 135.3,114.2 144.8,94.8 145,94.9	"/>
<polygon fill="#AE0C2A" points="135.4,114.2 135.3,114.2 144.9,94.9 145.1,95	"/>
<polygon fill="#AF0C2A" points="135.4,114.2 135.3,114.1 145,95 145.2,95.1	"/>
<polygon fill="#AF0C2A" points="135.4,114.2 135.3,114.1 145.2,95.1 145.3,95.1	"/>
<polygon fill="#AF0C2A" points="135.4,114.2 135.3,114.1 145.2,95.1 145.4,95.2	"/>
<polygon fill="#AF0C2A" points="135.4,114.2 135.3,114.1 145.3,95.2 145.5,95.3	"/>
<polygon fill="#B00D2A" points="135.4,114.2 135.3,114.1 145.5,95.3 145.6,95.4	"/>
<polygon fill="#B00D2A" points="135.4,114.2 135.3,114.1 145.6,95.3 145.7,95.4	"/>
<polygon fill="#B10D2B" points="135.4,114.2 135.3,114.1 145.7,95.4 145.8,95.5	"/>
<polygon fill="#B10D2B" points="135.4,114.2 135.3,114.1 145.8,95.5 145.9,95.6	"/>
<polygon fill="#B20D2B" points="135.4,114.2 135.3,114.1 145.9,95.6 146,95.7	"/>
<polygon fill="#B20D2B" points="135.4,114.2 135.3,114.1 146,95.7 146.1,95.8	"/>
<polygon fill="#B20D2B" points="135.4,114.2 135.3,114.1 146.1,95.8 146.2,95.8	"/>
<polygon fill="#B20D2B" points="135.4,114.2 135.3,114.1 146.2,95.8 146.3,95.9	"/>
<polygon fill="#B30D2C" points="135.4,114.2 135.3,114.1 146.3,95.9 146.4,96	"/>
<polygon fill="#B30D2C" points="135.4,114.2 135.3,114.1 146.4,96 146.5,96.1	"/>
<polygon fill="#B40E2C" points="135.4,114.2 135.3,114.1 146.5,96.1 146.6,96.2	"/>
<polygon fill="#B40E2C" points="135.4,114.2 135.3,114.1 146.6,96.2 146.7,96.2	"/>
<polygon fill="#B50E2C" points="135.4,114.2 135.3,114.1 146.7,96.2 146.9,96.3	"/>
<polygon fill="#B50E2C" points="135.4,114.2 135.3,114.1 146.8,96.3 147,96.4	"/>
<polygon fill="#B50E2C" points="135.4,114.2 135.3,114.1 146.9,96.4 147.1,96.5	"/>
<polygon fill="#B50E2C" points="135.4,114.2 135.3,114.1 147,96.5 147.2,96.6	"/>
<polygon fill="#B60E2D" points="135.4,114.2 135.3,114.1 147.1,96.6 147.3,96.7	"/>
<polygon fill="#B60E2D" points="135.4,114.2 135.3,114.1 147.2,96.6 147.4,96.7	"/>
<polygon fill="#B70F2D" points="135.4,114.2 135.3,114.1 147.3,96.7 147.5,96.8	"/>
<polygon fill="#B70F2D" points="135.4,114.2 135.3,114.1 147.4,96.8 147.6,96.9	"/>
<polygon fill="#B80F2D" points="135.4,114.2 135.3,114.1 147.5,96.9 147.7,97	"/>
<polygon fill="#B80F2D" points="135.4,114.2 135.3,114.1 147.6,96.9 147.8,97.1	"/>
<polygon fill="#B90F2D" points="135.4,114.2 135.3,114.1 147.7,97 147.9,97.1	"/>
<polygon fill="#B90F2D" points="135.4,114.2 135.3,114.1 147.9,97.1 148,97.2	"/>
<polygon fill="#B90F2E" points="135.4,114.2 135.3,114.1 147.9,97.2 148.1,97.3	"/>
<polygon fill="#B90F2E" points="135.4,114.2 135.3,114.1 148.1,97.3 148.2,97.4	"/>
<polygon fill="#B90F2E" points="135.4,114.2 135.3,114.1 148.2,97.3 148.3,97.4	"/>
<polygon fill="#BA0F2E" points="135.4,114.2 135.3,114.1 148.3,97.4 148.4,97.5	"/>
<polygon fill="#BA0F2E" points="135.4,114.2 135.3,114.1 148.4,97.5 148.5,97.6	"/>
<polygon fill="#BB102E" points="135.4,114.2 135.3,114.1 148.5,97.6 148.6,97.7	"/>
<polygon fill="#BB102E" points="135.4,114.2 135.3,114.1 148.6,97.7 148.7,97.8	"/>
<polygon fill="#BC102E" points="135.4,114.2 135.3,114.1 148.7,97.7 148.8,97.9	"/>
<polygon fill="#BC102E" points="135.4,114.2 135.3,114.1 148.8,97.8 148.9,97.9	"/>
<polygon fill="#BC102F" points="135.4,114.2 135.3,114.1 148.9,97.9 149,98	"/>
<polygon fill="#BC102F" points="135.4,114.2 135.3,114.1 149,98 149.1,98.1	"/>
<polygon fill="#BD102F" points="135.4,114.2 135.3,114.1 149.1,98.1 149.2,98.2	"/>
<polygon fill="#BD102F" points="135.4,114.2 135.3,114.1 149.2,98.1 149.3,98.3	"/>
<polygon fill="#BE102F" points="135.4,114.2 135.3,114.1 149.3,98.2 149.4,98.3	"/>
<polygon fill="#BE102F" points="135.4,114.2 135.3,114.1 149.4,98.3 149.5,98.4	"/>
<polygon fill="#BF112F" points="135.4,114.2 135.3,114.1 149.5,98.4 149.6,98.5	"/>
<polygon fill="#BF112F" points="135.4,114.2 135.3,114.1 149.6,98.5 149.7,98.6	"/>
<polygon fill="#BF1130" points="135.4,114.2 135.3,114.1 149.7,98.5 149.9,98.7	"/>
<polygon fill="#BF1130" points="135.4,114.2 135.3,114.1 149.8,98.6 149.9,98.7	"/>
<polygon fill="#C01130" points="135.4,114.2 135.3,114.1 149.9,98.7 150.1,98.8	"/>
<polygon fill="#C01130" points="135.4,114.2 135.3,114.1 150,98.8 150.2,98.9	"/>
<polygon fill="#C11130" points="135.4,114.2 135.3,114.1 150.1,98.8 150.3,99	"/>
<polygon fill="#C11130" points="135.4,114.2 135.3,114.1 150.2,98.9 150.4,99.1	"/>
<polygon fill="#C21130" points="135.4,114.2 135.3,114.1 150.3,99 150.5,99.1	"/>
<polygon fill="#C21130" points="135.4,114.2 135.3,114.1 150.4,99.1 150.6,99.2	"/>
<polygon fill="#C21231" points="135.4,114.2 135.3,114.1 150.6,99.2 150.7,99.3	"/>
<polygon fill="#C21231" points="135.4,114.2 135.3,114.1 150.7,99.2 150.8,99.4	"/>
<polygon fill="#C31231" points="135.4,114.2 135.3,114.1 150.8,99.3 150.9,99.5	"/>
<polygon fill="#C31231" points="135.4,114.2 135.3,114.1 150.9,99.4 151,99.5	"/>
<polygon fill="#C41231" points="135.4,114.2 135.3,114.1 151,99.5 151.1,99.6	"/>
<polygon fill="#C41231" points="135.4,114.2 135.3,114.1 151.1,99.6 151.2,99.7	"/>
<polygon fill="#C51231" points="135.4,114.3 135.3,114.1 151.2,99.6 151.3,99.8	"/>
<polygon fill="#C51231" points="135.4,114.3 135.3,114.1 151.3,99.7 151.4,99.9	"/>
<polygon fill="#C51232" points="135.4,114.3 135.3,114.1 151.4,99.8 151.5,99.9	"/>
<polygon fill="#C51232" points="135.4,114.3 135.3,114.1 151.5,99.9 151.6,100	"/>
<polygon fill="#C61332" points="135.4,114.3 135.3,114.1 151.6,100 151.7,100.1	"/>
<polygon fill="#C61332" points="135.4,114.3 135.3,114.1 151.7,100 151.8,100.2	"/>
<polygon fill="#C71332" points="135.4,114.3 135.3,114.1 151.8,100.1 151.9,100.3	"/>
<polygon fill="#C71332" points="135.4,114.3 135.3,114.1 151.9,100.2 152,100.3	"/>
<polygon fill="#C81332" points="135.4,114.3 135.3,114.1 152,100.3 152.1,100.4	"/>
<polygon fill="#C81332" points="135.4,114.3 135.3,114.1 152.1,100.4 152.2,100.5	"/>
<polygon fill="#C81333" points="135.4,114.3 135.3,114.1 152.2,100.4 152.3,100.6	"/>
<polygon fill="#C81333" points="135.4,114.3 135.3,114.1 152.3,100.5 152.4,100.7	"/>
<polygon fill="#C91333" points="135.4,114.3 135.3,114.1 152.4,100.6 152.5,100.7	"/>
<polygon fill="#C91333" points="135.4,114.3 135.3,114.1 152.5,100.7 152.7,100.8	"/>
<polygon fill="#CA1333" points="135.4,114.3 135.3,114.1 152.6,100.8 152.7,100.9	"/>
<polygon fill="#CA1333" points="135.4,114.3 135.3,114.1 152.7,100.8 152.9,101	"/>
<polygon fill="#CB1433" points="135.4,114.3 135.3,114.1 152.9,100.9 152.9,101.1	"/>
<rect x="133.2" y="107.5" transform="matrix(0.8129 -0.5824 0.5824 0.8129 -35.6892 104.1022)" fill="#CB1433" width="22" height="0.2"/>
<polygon fill="#CB1434" points="135.4,114.3 135.3,114.1 153.1,101.1 153.2,101.2	"/>
<polygon fill="#CB1434" points="135.4,114.3 135.3,114.1 153.2,101.1 153.3,101.3	"/>
<polygon fill="#CC1434" points="135.4,114.3 135.3,114.1 153.3,101.2 153.4,101.4	"/>
<polygon fill="#CC1434" points="135.4,114.3 135.3,114.1 153.4,101.3 153.5,101.5	"/>
<polygon fill="#CD1434" points="135.4,114.3 135.3,114.1 153.5,101.4 153.6,101.5	"/>
<polygon fill="#CD1434" points="135.4,114.3 135.3,114.1 153.6,101.5 153.7,101.6	"/>
<polygon fill="#CE1434" points="135.4,114.3 135.3,114.1 153.7,101.5 153.8,101.7	"/>
<polygon fill="#CE1434" points="135.4,114.3 135.3,114.1 153.8,101.6 153.9,101.8	"/>
<polygon fill="#CE1435" points="135.4,114.3 135.3,114.1 153.9,101.7 154,101.9	"/>
<polygon fill="#CE1435" points="135.4,114.3 135.3,114.1 154,101.8 154.1,101.9	"/>
<polygon fill="#CF1435" points="135.4,114.3 135.3,114.1 154.1,101.9 154.2,102	"/>
<polygon fill="#CF1435" points="135.4,114.3 135.3,114.1 154.2,101.9 154.3,102.1	"/>
<polygon fill="#D01535" points="135.4,114.3 135.3,114.1 154.3,102 154.4,102.2	"/>
<polygon fill="#D01535" points="135.4,114.3 135.3,114.1 154.4,102.1 154.5,102.3	"/>
<polygon fill="#D11535" points="135.4,114.3 135.3,114.1 154.5,102.2 154.6,102.3	"/>
<polygon fill="#D11535" points="135.4,114.3 135.3,114.1 154.6,102.3 154.7,102.4	"/>
<polygon fill="#D11536" points="135.4,114.3 135.3,114.1 154.7,102.3 154.8,102.5	"/>
<polygon fill="#D11536" points="135.4,114.3 135.3,114.1 154.8,102.4 154.9,102.6	"/>
<polygon fill="#D21536" points="135.4,114.3 135.3,114.1 154.9,102.5 155,102.7	"/>
<polygon fill="#D21536" points="135.4,114.3 135.3,114.1 155,102.6 155.1,102.7	"/>
<polygon fill="#D31536" points="135.4,114.3 135.3,114.1 155.1,102.7 155.2,102.8	"/>
<polygon fill="#D31536" points="135.4,114.3 135.3,114.1 155.2,102.7 155.3,102.9	"/>
<polygon fill="#D41536" points="135.4,114.3 135.3,114.1 155.3,102.8 155.4,103	"/>
<polygon fill="#D41536" points="135.4,114.3 135.3,114.1 155.4,102.9 155.6,103.1	"/>
<polygon fill="#D41536" points="135.4,114.3 135.3,114.1 155.6,103 155.6,103.1	"/>
<polygon fill="#D41536" points="135.4,114.3 135.3,114.1 155.7,103.1 155.7,103.2	"/>
<polygon fill="#D51637" points="135.4,114.3 135.3,114.1 155.8,103.1 155.9,103.3	"/>
<polygon fill="#D51637" points="135.4,114.3 135.3,114.1 155.9,103.2 156,103.4	"/>
<polygon fill="#D61637" points="135.4,114.3 135.3,114.1 156,103.3 156.1,103.5	"/>
<polygon fill="#D61637" points="135.4,114.3 135.3,114.1 156.1,103.4 156.2,103.5	"/>
<polygon fill="#D71637" points="135.4,114.3 135.3,114.1 156.2,103.5 156.3,103.6	"/>
<polygon fill="#D71637" points="135.4,114.3 135.3,114.1 156.3,103.5 156.4,103.7	"/>
<polygon fill="#D71637" points="135.4,114.3 135.3,114.1 156.4,103.6 156.5,103.8	"/>
<polygon fill="#D71637" points="135.4,114.3 135.3,114.1 156.5,103.7 156.6,103.9	"/>
<polygon fill="#D81637" points="135.4,114.3 135.3,114.1 156.6,103.7 156.7,103.9	"/>
<polygon fill="#D81637" points="135.4,114.3 135.3,114.1 156.7,103.8 156.8,104	"/>
<polygon fill="#D91638" points="135.4,114.3 135.3,114.1 156.8,103.9 156.9,104.1	"/>
<polygon fill="#D91638" points="135.4,114.3 135.3,114.1 156.9,104 157,104.2	"/>
<polygon fill="#DA1738" points="135.4,114.3 135.3,114.1 157,104.1 157.1,104.3	"/>
<polygon fill="#DA1738" points="135.4,114.3 135.3,114.1 157.1,104.2 157.2,104.3	"/>
<polygon fill="#DB1738" points="135.4,114.3 135.3,114.1 157.2,104.2 157.3,104.4	"/>
<polygon fill="#DB1738" points="135.4,114.3 135.3,114.1 157.3,104.3 157.4,104.5	"/>
<polygon fill="#DB1738" points="135.4,114.3 135.3,114.1 157.4,104.4 157.5,104.6	"/>
<polygon fill="#DB1738" points="135.4,114.3 135.3,114.1 157.5,104.5 157.6,104.7	"/>
<polygon fill="#DC1739" points="135.4,114.3 135.3,114.1 157.6,104.6 157.7,104.7	"/>
<rect x="134.4" y="109.4" transform="matrix(0.9214 -0.3886 0.3886 0.9214 -31.0183 65.5783)" fill="#DC1739" width="24.4" height="0.2"/>
<polygon fill="#DD1739" points="135.4,114.3 135.3,114.1 157.8,104.7 157.9,104.9	"/>
<polygon fill="#DD1739" points="135.4,114.3 135.3,114.1 158,104.8 158,105	"/>
<polygon fill="#DD1739" points="135.4,114.3 135.3,114.1 158.1,104.9 158.1,105.1	"/>
<polygon fill="#DD1739" points="135.4,114.3 135.3,114.1 158.2,104.9 158.2,105.1	"/>
<polygon fill="#DE1739" points="135.4,114.3 135.3,114.1 158.3,105 158.3,105.2	"/>
<polygon fill="#DE1739" points="135.4,114.3 135.3,114.1 158.4,105.1 158.4,105.3	"/>
<polygon fill="#DF1839" points="135.4,114.3 135.3,114.1 158.5,105.2 158.5,105.4	"/>
<polygon fill="#DF1839" points="135.4,114.3 135.3,114.1 158.6,105.3 158.6,105.5	"/>
<polygon fill="#E0183A" points="135.4,114.3 135.3,114.1 158.7,105.4 158.8,105.5	"/>
<rect x="134.6" y="109.8" transform="matrix(0.9383 -0.3457 0.3457 0.9383 -28.922 57.632)" fill="#E0183A" width="25" height="0.2"/>
<polygon fill="#E0183A" points="135.4,114.3 135.3,114.1 158.9,105.5 159,105.7	"/>
</g>
</g>
</g>
</g>
<g>
<path fill="#93021E" d="M135.3,124.5c9.7,0,17.7-7.5,17.7-16.7c0-2.2-0.5-4.3-2-6.3v-0.1c2.6,3.4,4.2,7.6,4.2,12.2
c0,11-8.9,19.9-19.9,19.9V124.5z"/>
<path fill="#E0183A" d="M135.3,133.5c-11,0-19.9-8.9-19.9-19.9c0-4.6,1.6-8.9,4.2-12.2v0.1c-1.5,2-2,4.1-2,6.3
c0,9.3,8,16.7,17.7,16.7V133.5z"/>
<g>
<defs>
<path id="SVGID_00000002345946595368915220000008865499387336092546_" d="M135.3,124.5c9.7,0,17.7-7.5,17.7-16.7
c0-2.2-0.5-4.3-2-6.3v-0.1c2.6,3.4,4.2,7.6,4.2,12.2c0,11-8.9,19.9-19.9,19.9s-19.9-8.9-19.9-19.9c0-4.6,1.6-8.9,4.2-12.2v0.1
c-1.5,2-2,4.1-2,6.3C117.7,117,125.7,124.5,135.3,124.5z"/>
</defs>
<clipPath id="SVGID_00000048463962839880155620000008895678553210911137_">
<use xlink:href="#SVGID_00000002345946595368915220000008865499387336092546_"  overflow="visible"/>
</clipPath>
<g clip-path="url(#SVGID_00000048463962839880155620000008895678553210911137_)">
<polygon fill="#E0183A" points="122.7,137.7 122.4,137.6 135.2,106.6 135.5,106.8"/>
<polygon fill="#E0183A" points="122.6,137.5 135.2,106.6 135.5,106.8 122.8,137.6"/>
<polygon fill="#E0183A" points="122.8,137.5 135.2,106.6 135.5,106.8 123,137.6"/>
<polygon fill="#DF1839" points="122.9,137.4 135.2,106.6 135.5,106.8 123.2,137.6"/>
<polygon fill="#DF1839" points="123.1,137.4 135.2,106.6 135.5,106.8 123.4,137.5"/>
<polygon fill="#DE1739" points="123.3,137.4 135.2,106.6 135.5,106.8 123.5,137.5"/>
<polygon fill="#DE1739" points="123.5,137.3 135.2,106.6 135.5,106.8 123.7,137.4"/>
<polygon fill="#DD1739" points="123.6,137.3 135.2,106.6 135.5,106.8 123.9,137.4"/>
<polygon fill="#DD1739" points="123.8,137.3 135.2,106.6 135.5,106.8 124.1,137.4"/>
<polygon fill="#DD1739" points="124,137.2 135.2,106.6 135.5,106.8 124.3,137.3"/>
<polygon fill="#DD1739" points="124.2,137.2 135.2,106.6 135.5,106.7 124.4,137.3"/>
<polygon fill="#DC1739" points="124.4,137.2 135.2,106.6 135.5,106.7 124.6,137.3"/>
<polygon fill="#DC1739" points="124.5,137.1 135.2,106.7 135.5,106.7 124.8,137.2"/>
<polygon fill="#DB1738" points="124.7,137.1 135.2,106.7 135.5,106.7 125,137.2"/>
<polygon fill="#DB1738" points="124.9,137.1 135.2,106.7 135.5,106.7 125.2,137.2"/>
<polygon fill="#DB1738" points="125.1,137 135.2,106.7 135.5,106.7 125.3,137.1"/>
<polygon fill="#DB1738" points="125.2,137 135.2,106.7 135.5,106.7 125.5,137.1"/>
<polygon fill="#DA1738" points="125.4,137 135.2,106.7 135.5,106.7 125.7,137.1"/>
<polygon fill="#DA1738" points="125.6,136.9 135.2,106.7 135.5,106.7 125.9,137"/>
<polygon fill="#D91638" points="125.8,136.9 135.2,106.7 135.5,106.7 126,137"/>
<polygon fill="#D91638" points="125.9,136.9 135.2,106.7 135.5,106.7 126.2,136.9"/>
<polygon fill="#D81637" points="126.1,136.8 135.2,106.7 135.5,106.7 126.4,136.9"/>
<polygon fill="#D81637" points="126.3,136.8 135.2,106.7 135.5,106.7 126.6,136.9"/>
<polygon fill="#D71637" points="126.5,136.8 135.2,106.7 135.5,106.7 126.7,136.8"/>
<polygon fill="#D71637" points="126.7,136.7 135.2,106.7 135.5,106.7 126.9,136.8"/>
<polygon fill="#D71637" points="126.8,136.7 135.2,106.7 135.5,106.7 127.1,136.8"/>
<polygon fill="#D71637" points="127,136.7 135.2,106.7 135.5,106.7 127.3,136.7"/>
<polygon fill="#D61637" points="127.2,136.6 135.2,106.7 135.5,106.7 127.4,136.7"/>
<polygon fill="#D61637" points="127.4,136.6 135.2,106.7 135.5,106.7 127.6,136.7"/>
<polygon fill="#D51637" points="127.5,136.6 135.2,106.7 135.5,106.7 127.8,136.6"/>
<polygon fill="#D51637" points="127.7,136.5 135.2,106.7 135.5,106.7 128,136.6"/>
<polygon fill="#D41536" points="127.9,136.5 135.2,106.7 135.5,106.7 128.1,136.5"/>
<polygon fill="#D41536" points="128.1,136.4 135.2,106.7 135.5,106.7 128.3,136.5"/>
<polygon fill="#D41536" points="128.3,136.4 135.2,106.7 135.5,106.7 128.5,136.5"/>
<polygon fill="#D41536" points="128.4,136.4 135.2,106.7 135.5,106.7 128.7,136.4"/>
<polygon fill="#D31536" points="128.6,136.3 135.2,106.7 135.5,106.7 128.9,136.4"/>
<polygon fill="#D31536" points="128.8,136.3 135.2,106.7 135.5,106.7 129,136.4"/>
<polygon fill="#D21536" points="129,136.3 135.2,106.7 135.5,106.7 129.2,136.3"/>
<polygon fill="#D21536" points="129.1,136.2 135.2,106.7 135.5,106.7 129.4,136.3"/>
<polygon fill="#D11536" points="129.3,136.2 135.2,106.7 135.5,106.7 129.6,136.2"/>
<polygon fill="#D11536" points="129.5,136.2 135.2,106.7 135.5,106.7 129.7,136.2"/>
<polygon fill="#D11535" points="129.7,136.1 135.2,106.7 135.5,106.7 129.9,136.2"/>
<polygon fill="#D11535" points="129.9,136.1 135.2,106.7 135.5,106.7 130.1,136.1"/>
<polygon fill="#D01535" points="130,136.1 135.2,106.7 135.5,106.7 130.3,136.1"/>
<polygon fill="#D01535" points="130.2,136 135.2,106.7 135.5,106.7 130.5,136.1"/>
<polygon fill="#CF1435" points="130.4,136 135.2,106.7 135.5,106.7 130.6,136"/>
<polygon fill="#CF1435" points="130.6,136 135.2,106.7 135.5,106.7 130.8,136"/>
<polygon fill="#CE1435" points="130.7,135.9 135.2,106.7 135.5,106.7 131,136"/>
<polygon fill="#CE1435" points="130.9,135.9 135.2,106.7 135.5,106.7 131.2,135.9"/>
<polygon fill="#CE1434" points="131.1,135.9 135.2,106.7 135.5,106.7 131.3,135.9"/>
<polygon fill="#CE1434" points="131.3,135.8 135.2,106.7 135.5,106.7 131.5,135.9"/>
<polygon fill="#CD1434" points="131.4,135.8 135.2,106.7 135.5,106.7 131.7,135.8"/>
<polygon fill="#CD1434" points="131.6,135.8 135.2,106.7 135.5,106.7 131.9,135.8"/>
<polygon fill="#CC1434" points="131.8,135.7 135.2,106.7 135.5,106.7 132,135.8"/>
<polygon fill="#CC1434" points="132,135.7 135.2,106.7 135.5,106.7 132.2,135.7"/>
<polygon fill="#CB1434" points="132.2,135.6 135.2,106.7 135.5,106.7 132.4,135.7"/>
<polygon fill="#CB1434" points="132.3,135.6 135.2,106.7 135.5,106.7 132.6,135.6"/>
<polygon fill="#CB1433" points="132.5,135.6 135.2,106.7 135.5,106.7 132.7,135.6"/>
<polygon fill="#CB1433" points="132.7,135.6 135.2,106.7 135.5,106.7 132.9,135.6"/>
<polygon fill="#CA1333" points="132.9,135.5 135.2,106.7 135.5,106.7 133.1,135.5"/>
<polygon fill="#CA1333" points="133,135.5 135.2,106.7 135.5,106.7 133.3,135.5"/>
<polygon fill="#C91333" points="133.2,135.4 135.2,106.7 135.5,106.7 133.5,135.5"/>
<polygon fill="#C91333" points="133.4,135.4 135.2,106.7 135.5,106.7 133.6,135.4"/>
<polygon fill="#C81333" points="133.6,135.4 135.2,106.7 135.5,106.7 133.8,135.4"/>
<polygon fill="#C81333" points="133.8,135.3 135.2,106.7 135.5,106.7 134,135.4"/>
<polygon fill="#C81332" points="133.9,135.3 135.2,106.7 135.5,106.7 134.2,135.3"/>
<polygon fill="#C81332" points="134.1,135.3 135.2,106.7 135.5,106.7 134.3,135.3"/>
<polygon fill="#C71332" points="134.3,135.2 135.2,106.7 135.5,106.7 134.5,135.3"/>
<polygon fill="#C71332" points="134.5,135.2 135.2,106.7 135.5,106.7 134.7,135.2"/>
<polygon fill="#C61332" points="134.6,135.2 135.2,106.7 135.5,106.7 134.9,135.2"/>
<polygon fill="#C61332" points="134.8,135.1 135.2,106.7 135.5,106.7 135,135.1"/>
<polygon fill="#C51232" points="135,135.1 135.2,106.7 135.5,106.7 135.2,135.1"/>
<polygon fill="#C51232" points="135.2,135.1 135.2,106.7 135.5,106.7 135.4,135.1"/>
<polygon fill="#C51231" points="135.3,135 135.2,106.7 135.5,106.7 135.6,135"/>
<polygon fill="#C51231" points="135.5,135 135.2,106.7 135.5,106.7 135.8,135"/>
<polygon fill="#C41231" points="135.7,135 135.2,106.7 135.5,106.7 135.9,135"/>
<polygon fill="#C41231" points="135.9,134.9 135.2,106.7 135.5,106.7 136.1,134.9"/>
<polygon fill="#C31231" points="136.1,134.9 135.2,106.7 135.5,106.7 136.3,134.9"/>
<polygon fill="#C31231" points="136.2,134.9 135.2,106.7 135.5,106.7 136.5,134.9"/>
<polygon fill="#C21231" points="136.4,134.8 135.2,106.7 135.5,106.7 136.6,134.8"/>
<polygon fill="#C21231" points="136.6,134.8 135.2,106.7 135.5,106.7 136.8,134.8"/>
<polygon fill="#C21130" points="136.8,134.8 135.2,106.7 135.5,106.7 137,134.8"/>
<polygon fill="#C21130" points="136.9,134.7 135.2,106.7 135.5,106.7 137.2,134.7"/>
<polygon fill="#C11130" points="137.1,134.7 135.2,106.7 135.5,106.7 137.3,134.7"/>
<polygon fill="#C11130" points="137.3,134.7 135.2,106.7 135.5,106.7 137.5,134.6"/>
<polygon fill="#C01130" points="137.5,134.6 135.2,106.7 135.5,106.7 137.7,134.6"/>
<polygon fill="#C01130" points="137.6,134.6 135.2,106.7 135.5,106.7 137.9,134.6"/>
<polygon fill="#BF1130" points="137.8,134.6 135.2,106.7 135.5,106.7 138.1,134.5"/>
<polygon fill="#BF1130" points="138,134.5 135.2,106.7 135.5,106.7 138.2,134.5"/>
<polygon fill="#BF112F" points="138.2,134.5 135.2,106.7 135.5,106.7 138.4,134.5"/>
<rect x="136.8" y="106.6" transform="matrix(0.9937 -0.1121 0.1121 0.9937 -12.65 16.1066)" fill="#BF112F" width="0.2" height="27.9"/>
<polygon fill="#BE102F" points="138.5,134.4 135.2,106.7 135.5,106.7 138.8,134.4"/>
<polygon fill="#BE102F" points="138.7,134.4 135.2,106.7 135.5,106.7 138.9,134.4"/>
<polygon fill="#BD102F" points="138.9,134.4 135.2,106.7 135.5,106.7 139.1,134.3"/>
<polygon fill="#BD102F" points="139.1,134.3 135.2,106.7 135.5,106.7 139.3,134.3"/>
<polygon fill="#BC102F" points="139.2,134.3 135.2,106.7 135.5,106.7 139.5,134.2"/>
<polygon fill="#BC102F" points="139.4,134.2 135.2,106.7 135.5,106.7 139.6,134.2"/>
<polygon fill="#BC102E" points="139.6,134.2 135.2,106.7 135.5,106.7 139.8,134.2"/>
<polygon fill="#BC102E" points="139.8,134.2 135.2,106.7 135.5,106.7 140,134.1"/>
<polygon fill="#BB102E" points="139.9,134.1 135.2,106.7 135.5,106.7 140.2,134.1"/>
<polygon fill="#BB102E" points="140.1,134.1 135.2,106.7 135.5,106.7 140.4,134.1"/>
<polygon fill="#BA0F2E" points="140.3,134.1 135.2,106.7 135.5,106.7 140.5,134"/>
<polygon fill="#BA0F2E" points="140.5,134 135.2,106.7 135.5,106.7 140.7,134"/>
<polygon fill="#B90F2E" points="140.6,134 135.2,106.7 135.5,106.7 140.9,134"/>
<polygon fill="#B90F2E" points="140.8,134 135.2,106.7 135.5,106.7 141.1,133.9"/>
<rect x="138.1" y="106.4" transform="matrix(0.9782 -0.2078 0.2078 0.9782 -21.9815 31.3446)" fill="#B90F2E" width="0.2" height="27.8"/>
<polygon fill="#B90F2D" points="141.2,133.9 135.2,106.7 135.5,106.7 141.4,133.8"/>
<polygon fill="#B90F2D" points="141.4,133.9 135.2,106.7 135.5,106.7 141.6,133.8"/>
<polygon fill="#B80F2D" points="141.5,133.8 135.2,106.7 135.5,106.7 141.8,133.8"/>
<polygon fill="#B80F2D" points="141.7,133.8 135.2,106.7 135.5,106.7 141.9,133.7"/>
<polygon fill="#B70F2D" points="141.9,133.8 135.2,106.7 135.5,106.7 142.1,133.7"/>
<polygon fill="#B70F2D" points="142.1,133.7 135.2,106.7 135.5,106.7 142.3,133.7"/>
<polygon fill="#B60E2D" points="142.2,133.7 135.2,106.7 135.5,106.7 142.5,133.6"/>
<polygon fill="#B60E2D" points="142.4,133.7 135.2,106.7 135.5,106.7 142.6,133.6"/>
<polygon fill="#B50E2C" points="142.6,133.6 135.2,106.7 135.5,106.7 142.8,133.6"/>
<polygon fill="#B50E2C" points="142.8,133.6 135.2,106.7 135.5,106.7 143,133.5"/>
<polygon fill="#B50E2C" points="143,133.6 135.2,106.7 135.5,106.7 143.2,133.5"/>
<polygon fill="#B50E2C" points="143.1,133.5 135.2,106.7 135.5,106.7 143.4,133.5"/>
<polygon fill="#B40E2C" points="143.3,133.5 135.2,106.7 135.5,106.7 143.5,133.4"/>
<polygon fill="#B40E2C" points="143.5,133.5 135.2,106.7 135.5,106.7 143.7,133.4"/>
<polygon fill="#B30D2C" points="143.7,133.4 135.2,106.7 135.5,106.7 143.9,133.4"/>
<rect x="139.5" y="106" transform="matrix(0.9515 -0.3075 0.3075 0.9515 -30.1419 48.7404)" fill="#B30D2C" width="0.2" height="28"/>
<polygon fill="#B20D2B" points="144,133.4 135.2,106.7 135.5,106.7 144.2,133.3"/>
<rect x="139.7" y="106" transform="matrix(0.9475 -0.3198 0.3198 0.9475 -31.0544 51.0188)" fill="#B20D2B" width="0.2" height="28.1"/>
<polygon fill="#B20D2B" points="144.4,133.3 135.2,106.7 135.5,106.7 144.6,133.2"/>
<polygon fill="#B20D2B" points="144.5,133.2 135.2,106.7 135.5,106.7 144.8,133.2"/>
<polygon fill="#B10D2B" points="144.7,133.2 135.2,106.7 135.5,106.7 145,133.1"/>
<polygon fill="#B10D2B" points="144.9,133.2 135.2,106.7 135.5,106.7 145.1,133.1"/>
<polygon fill="#B00D2A" points="145.1,133.1 135.2,106.7 135.5,106.7 145.3,133"/>
<polygon fill="#B00D2A" points="145.3,133.1 135.2,106.7 135.5,106.7 145.5,133"/>
<polygon fill="#AF0C2A" points="145.4,133.1 135.2,106.7 135.5,106.7 145.7,133"/>
<polygon fill="#AF0C2A" points="145.6,133 135.2,106.7 135.5,106.7 145.8,133"/>
<polygon fill="#AF0C2A" points="145.8,133 135.2,106.7 135.5,106.7 146,132.9"/>
<polygon fill="#AF0C2A" points="146,133 135.2,106.7 135.5,106.7 146.2,132.9"/>
<polygon fill="#AE0C2A" points="146.1,132.9 135.2,106.7 135.5,106.7 146.4,132.8"/>
<polygon fill="#AE0C2A" points="146.3,132.9 135.2,106.8 135.5,106.6 146.5,132.8"/>
<polygon fill="#AD0C29" points="146.5,132.9 135.2,106.8 135.5,106.6 146.7,132.8"/>
<polygon fill="#AD0C29" points="146.7,132.8 135.2,106.8 135.5,106.6 146.9,132.7"/>
<polygon fill="#AC0B29" points="146.9,132.8 135.2,106.8 135.5,106.6 147.1,132.7"/>
<polygon fill="#AC0B29" points="147,132.8 135.2,106.8 135.5,106.6 147.2,132.7"/>
<polygon fill="#AC0B29" points="147.2,132.7 135.2,106.8 135.5,106.6 147.4,132.6"/>
<polygon fill="#AC0B29" points="147.4,132.7 135.2,106.8 135.5,106.6 147.6,132.6"/>
<polygon fill="#AB0B28" points="147.6,132.7 135.2,106.8 135.5,106.6 147.8,132.6"/>
<polygon fill="#AB0B28" points="147.7,132.6 135.2,106.8 135.5,106.6 148,132.5"/>
<polygon fill="#AA0A28" points="147.9,132.6 135.2,106.8 135.5,106.6 148.1,132.5"/>
<polygon fill="#AA0A28" points="148.1,132.6 135.2,106.8 135.5,106.6 148.3,132.4"/>
<polygon fill="#A90A28" points="148.3,132.5 135.2,106.8 135.5,106.6 148.5,132.4"/>
<polygon fill="#A90A28" points="148.4,132.5 135.2,106.8 135.5,106.6 148.7,132.4"/>
<polygon fill="#A80A27" points="148.6,132.4 135.2,106.8 135.5,106.6 148.8,132.3"/>
<polygon fill="#A80A27" points="148.8,132.4 135.2,106.8 135.5,106.6 149,132.3"/>
<polygon fill="#A80A27" points="149,132.4 135.2,106.8 135.5,106.6 149.2,132.3"/>
<polygon fill="#A80A27" points="149.2,132.3 135.2,106.8 135.5,106.6 149.4,132.2"/>
<polygon fill="#A70927" points="149.3,132.3 135.2,106.8 135.5,106.6 149.5,132.2"/>
<polygon fill="#A70927" points="149.5,132.3 135.2,106.8 135.5,106.6 149.7,132.2"/>
<polygon fill="#A60927" points="149.7,132.2 135.2,106.8 135.5,106.6 149.9,132.1"/>
<polygon fill="#A60927" points="149.9,132.2 135.2,106.8 135.5,106.6 150.1,132.1"/>
<polygon fill="#A50926" points="150,132.2 135.2,106.8 135.5,106.6 150.3,132"/>
<polygon fill="#A50926" points="150.2,132.1 135.2,106.8 135.5,106.6 150.4,132"/>
<polygon fill="#A50826" points="150.4,132.1 135.2,106.8 135.5,106.6 150.6,132"/>
<polygon fill="#A50826" points="150.6,132.1 135.2,106.8 135.5,106.6 150.8,131.9"/>
<polygon fill="#A40826" points="150.7,132 135.2,106.8 135.5,106.6 151,131.9"/>
<polygon fill="#A40826" points="150.9,132 135.2,106.8 135.5,106.6 151.1,131.9"/>
<polygon fill="#A30825" points="151.1,132 135.2,106.8 135.5,106.6 151.3,131.8"/>
<polygon fill="#A30825" points="151.3,131.9 135.2,106.8 135.5,106.6 151.5,131.8"/>
<polygon fill="#A20825" points="151.5,131.9 135.2,106.8 135.5,106.6 151.7,131.8"/>
<polygon fill="#A20825" points="151.6,131.9 135.2,106.8 135.5,106.6 151.9,131.7"/>
<polygon fill="#A20725" points="151.8,131.8 135.2,106.8 135.5,106.6 152,131.7"/>
<polygon fill="#A20725" points="152,131.8 135.2,106.8 135.5,106.6 152.2,131.7"/>
<polygon fill="#A10724" points="152.2,131.8 135.2,106.8 135.4,106.6 152.4,131.6"/>
<polygon fill="#A10724" points="152.4,131.7 135.2,106.8 135.4,106.6 152.6,131.6"/>
<polygon fill="#A00724" points="152.5,131.7 135.2,106.8 135.4,106.6 152.7,131.6"/>
<polygon fill="#A00724" points="152.7,131.7 135.2,106.8 135.4,106.6 152.9,131.5"/>
<polygon fill="#9F0624" points="152.9,131.6 135.2,106.8 135.4,106.6 153.1,131.5"/>
<polygon fill="#9F0624" points="153.1,131.6 135.2,106.8 135.4,106.6 153.3,131.4"/>
<polygon fill="#9F0624" points="153.2,131.6 135.2,106.8 135.4,106.6 153.4,131.4"/>
<polygon fill="#9F0624" points="153.4,131.5 135.2,106.8 135.4,106.6 153.6,131.4"/>
<polygon fill="#9E0623" points="153.6,131.5 135.2,106.8 135.4,106.6 153.8,131.3"/>
<polygon fill="#9E0623" points="153.8,131.4 135.2,106.8 135.4,106.6 154,131.3"/>
<polygon fill="#9D0623" points="153.9,131.4 135.2,106.8 135.4,106.6 154.2,131.3"/>
<polygon fill="#9D0623" points="154.1,131.4 135.2,106.8 135.4,106.6 154.3,131.2"/>
<polygon fill="#9D0523" points="154.3,131.3 135.2,106.8 135.4,106.6 154.5,131.2"/>
<polygon fill="#9D0523" points="154.5,131.3 135.2,106.8 135.4,106.6 154.7,131.2"/>
<polygon fill="#9C0522" points="154.7,131.3 135.2,106.8 135.4,106.6 154.9,131.1"/>
<polygon fill="#9C0522" points="154.8,131.2 135.2,106.8 135.4,106.6 155,131.1"/>
<polygon fill="#9B0522" points="155,131.2 135.2,106.8 135.4,106.6 155.2,131"/>
<polygon fill="#9B0522" points="155.2,131.2 135.3,106.8 135.4,106.6 155.4,131"/>
<polygon fill="#9A0422" points="155.4,131.1 135.3,106.8 135.4,106.6 155.6,131"/>
<polygon fill="#9A0422" points="155.5,131.1 135.3,106.8 135.4,106.6 155.7,130.9"/>
<polygon fill="#9A0421" points="155.7,131.1 135.3,106.8 135.4,106.6 155.9,130.9"/>
<polygon fill="#9A0421" points="155.9,131 135.3,106.8 135.4,106.6 156.1,130.9"/>
<polygon fill="#990421" points="156.1,131 135.3,106.8 135.4,106.6 156.3,130.8"/>
<polygon fill="#990421" points="156.3,131 135.3,106.8 135.4,106.6 156.4,130.8"/>
<polygon fill="#980421" points="156.4,130.9 135.3,106.8 135.4,106.6 156.6,130.8"/>
<polygon fill="#980421" points="156.6,130.9 135.3,106.8 135.4,106.6 156.8,130.7"/>
<polygon fill="#970320" points="156.8,130.9 135.3,106.8 135.4,106.6 157,130.7"/>
<polygon fill="#970320" points="157,130.8 135.3,106.8 135.4,106.6 157.1,130.6"/>
<polygon fill="#970320" points="157.1,130.8 135.3,106.8 135.4,106.6 157.3,130.6"/>
<polygon fill="#970320" points="157.3,130.8 135.3,106.8 135.4,106.6 157.5,130.6"/>
<polygon fill="#960320" points="157.5,130.7 135.3,106.8 135.4,106.6 157.7,130.5"/>
<polygon fill="#960320" points="157.7,130.7 135.3,106.8 135.4,106.6 157.9,130.5"/>
<polygon fill="#95031F" points="157.8,130.7 135.3,106.8 135.4,106.6 158,130.5"/>
<polygon fill="#95031F" points="158,130.6 135.3,106.8 135.4,106.6 158.2,130.4"/>
<polygon fill="#94021F" points="158.2,130.6 135.3,106.8 135.4,106.6 158.4,130.4"/>
<polygon fill="#94021F" points="158.4,130.6 135.3,106.8 135.4,106.6 158.6,130.4"/>
<polygon fill="#94021F" points="158.6,130.5 135.3,106.8 135.4,106.6 158.8,130.3"/>
<polygon fill="#94021F" points="158.7,130.5 135.3,106.8 135.4,106.6 158.9,130.3"/>
<polygon fill="#93021E" points="159.1,130.3 158.9,130.5 135.3,106.8 135.4,106.6"/>
</g>
</g>
</g>
</g>
</g>
<path fill="#231F20" d="M356,116.7c0-4.2,3.2-6.6,6.6-6.6s6.7,2.4,6.7,6.6c0,4-2.7,6.9-6.7,6.9C358.7,123.7,356,120.7,356,116.7z
M358.6,116.7c0,2.4,0.9,5.3,4,5.3c3.2,0,4.1-2.8,4.1-5.3c0-2.3-1-4.9-4.1-4.9C359.6,111.8,358.6,114.4,358.6,116.7z"/>
<path fill="#231F20" d="M381.4,121.9c-1.4,1.1-2.6,1.8-4.3,1.8c-3.1,0-4.8-1.7-4.8-4.9v-8.3h2.4v7.8c0,2.4,1.1,3.7,3.3,3.7
c1.9,0,3.4-1.5,3.4-4v-7.5h2.4v12.9h-2.4V121.9z"/>
<path fill="#231F20" d="M390,112.5L390,112.5c1.1-1.5,3-2.3,4.5-2.3c5.3,0,6.1,4.5,6.1,6.4c0,3.9-2.4,7.1-6.4,7.1
c-1.7,0-3.2-0.8-4.2-2l0,0v8.1h-2.4v-19.3h2.4V112.5z M398,116.5c0-2.3-1.3-4.7-3.7-4.7c-2.8,0-4.2,2-4.2,5.4c0,2.5,1.2,4.8,4.2,4.8
C397.2,122,398,118.9,398,116.5z"/>
<path fill="#231F20" d="M340.9,121.2c-1,0.5-2.2,0.7-3.8,0.7c-4.1,0-7.4-3.1-7.4-7.6c0-4.2,2.8-7.4,7.7-7.4c2,0,3.6,0.6,4.7,1.3V106
c-1.2-0.6-2.8-1-4.8-1c-6.8,0-10.5,4.7-10.5,9.3c0,4.9,3.5,9.4,10.2,9.4c2.4,0,4.7-0.6,6.5-1.2v-9h-2.6L340.9,121.2L340.9,121.2z"/>
<path fill="#231F20" d="M354.4,110.6c-0.7-0.3-1.4-0.4-1.8-0.4c-1.4,0-2.5,0.9-3.1,1.8v-1.6h-2.4v12.9h2.4v-6.9c0-2.9,1.2-4,2.5-4
c1,0,1.7,0.2,2.3,0.6v-2.4H354.4z"/>
<path fill="#231F20" d="M185.3,111.2c2.1-0.9,3.8-1.1,5.3-1.1c4.3,0,6.3,1.7,6.3,5.3v5.1c0,0.7,0,2.1,0.1,2.8h-4.5
c0-0.4-0.1-1-0.1-1.4v-0.7c-2.8,4.3-9.1,2.6-9.1-1.2c0-4.2,5.5-5.1,8.9-5.8c-0.3-1.1-1.4-1.7-2.6-1.8c-1.6-0.1-3,0.2-4.3,0.9
L185.3,111.2L185.3,111.2z M187.5,119.3c0,1.1,0.7,1.8,2,1.8c1.5,0,3-1.6,3-4.5v-0.9C190.9,116,187.5,116.9,187.5,119.3z"/>
<path fill="#231F20" d="M229.1,111.2c2-0.9,3.8-1.1,5.3-1.1c4.3,0,6.3,1.7,6.3,5.3v5.1c0,0.7,0,2.1,0.1,2.8h-4.5
c-0.1-0.4-0.1-1-0.1-1.4v-0.7c-2.8,4.3-9.1,2.6-9.1-1.2c0-4.2,5.5-5.1,8.9-5.8c-0.3-1.1-1.4-1.7-2.6-1.8c-1.6-0.1-3.1,0.2-4.3,0.9
L229.1,111.2L229.1,111.2z M231.3,119.3c0,1.1,0.7,1.8,1.9,1.8c1.5,0,3-1.6,3-4.5v-0.9C234.7,116,231.3,116.9,231.3,119.3z"/>
<polygon fill="#231F20" points="223.3,123.3 218.5,123.3 216.5,114.7 214.4,123.3 209.7,123.3 206.6,110.4 211,110.4 213,119.7 
215.2,110.4 218.6,110.4 221.1,119.6 223.2,110.4 227.1,110.4 "/>
<path fill="#231F20" d="M164.8,123.3V105h7.4c9.9,0,10.7,6.6,10.7,8.6c0,7.1-5.6,9.7-10.9,9.7C172,123.3,164.8,123.3,164.8,123.3z
M169.9,108v12.3h2.3c3.4,0,5.3-2.4,5.3-6.7c0-3.3-2.1-5.6-5.1-5.6C172.4,108,169.9,108,169.9,108z"/>
<path fill="#231F20" d="M204.3,123.3h-4.7v-12.9h4.7V123.3z M202,103.4c-1.5,0-2.7,1.1-2.7,2.5s1.2,2.5,2.7,2.5s2.7-1.1,2.7-2.5
C204.7,104.6,203.5,103.4,202,103.4z"/>
<polygon fill="#231F20" points="262.7,123.3 257.9,123.3 257.9,115 251.2,115 251.2,123.3 246.4,123.3 246.4,105.1 251.2,105.1 
251.2,112 257.9,112 257.9,105.1 262.7,105.1 "/>
<path fill="#231F20" d="M290.7,121.4c-0.7,1.3-2.9,2.4-4.8,2.2c-1.9-0.2-4.4-1.6-4.4-4.9v-8.4h4.7v7.9c0,1.4,0.7,2.3,2.2,2.3
c1,0,2.2-0.5,2.2-2.8v-7.4h4.5v12.9h-4.4L290.7,121.4L290.7,121.4z"/>
<path fill="#231F20" d="M320.7,120.8v2.1c-6,2.3-11.7-0.7-11.7-6.3c0-1.5,0.5-6.5,7-6.5c3,0,6.1,1.4,6.1,6.2c0,0.3,0,0.6,0,1h-8.8
v0.3C313.2,120.9,316.6,122,320.7,120.8z M313.2,115.2v0.3h5.1v-0.3c0-3.1-1.8-3.4-2.5-3.4C314.6,111.8,313.2,112.7,313.2,115.2z"/>
<path fill="#231F20" d="M302.6,113.5c0-1.1,1.2-1.3,1.9-1.3c0.8,0,1.5,0.1,2.5,0.5v-2.1c-1.4-0.4-2.7-0.5-4.2-0.5
c-3.1,0-5,1.3-5,3.6c0,3.3,5.1,4.1,5.1,6.3c0,0.9-0.6,1.5-1.6,1.5s-2.3-0.3-3.6-0.9v2.3c1.6,0.6,3.4,0.8,4.6,0.8
c3.8,0,5.5-1.9,5.5-3.8C307.7,116.2,302.6,115.7,302.6,113.5z"/>
<path fill="#231F20" d="M272.2,121.9c1.9,0,2.9-2,2.9-5.2c0-3-1-4.8-2.9-4.8c-2,0-2.9,1.8-2.9,4.8
C269.2,119.8,270.2,121.9,272.2,121.9z M264.6,116.7c0-4.4,3.8-6.7,7.6-6.7c3.7,0,7.6,2.4,7.6,6.7c0,4.2-3.1,7.1-7.6,7.1
C267.7,123.8,264.6,120.9,264.6,116.7z"/>
<path fill="#231F20" d="M405.2,119c0,2.8,2.3,5.1,5.1,5.1c2.8,0,5-2.3,5-5.1c0-2.8-2.3-5-5-5C407.5,113.9,405.2,116.2,405.2,119z
M405.8,119c0-2.5,2-4.5,4.5-4.5s4.5,2,4.5,4.5s-2,4.5-4.5,4.5S405.8,121.5,405.8,119z"/>
<path fill="#231F20" d="M412,120.2c-0.1-0.6-0.4-0.9-0.9-1.1c0.7-0.3,1.1-0.8,1.1-1.4c0-0.4-0.2-0.8-0.5-1c-0.4-0.3-1-0.5-1.8-0.5
c-0.5,0-1.1,0.1-1.5,0.1v5.6h0.6c0,0,0-2.3,0-2.5c0.1,0,0.9,0,0.9,0c0.8,0,1.2,0.3,1.4,1.1c0.2,0.8,0.3,1.3,0.4,1.4h0.7
C412.4,121.5,412.2,121.1,412,120.2z M409.1,116.6c0.2,0,0.5-0.1,0.9-0.1c0.8,0,1.7,0.2,1.7,1.1c0,0.7-0.6,1.1-1.6,1.1
c0,0-0.8,0-1,0V116.6z"/>
<rect x="349.2" y="30.1" fill="#0062AE" width="6.5" height="36.7"/>
<rect x="391.3" y="30.1" fill="#0062AE" width="6.5" height="36.7"/>
<path fill="#0062AE" d="M362.4,30.1v6.5c0,0,7.5,0,7.9,0c0,0.5,0,30.2,0,30.2h6.5c0,0,0-29.7,0-30.2c0.4,0,7.9,0,7.9,0v-6.5
C384.7,30.1,362.4,30.1,362.4,30.1z"/>
<path fill="#0062AE" d="M329.1,29.4c-7.6,0-12.2,5.6-12.2,14.9v22.5h6.5V44.3c0-8.4,4.2-8.4,5.6-8.4s5.6,0,5.6,8.4v22.5h6.5V44.3
C341.3,34.9,336.7,29.4,329.1,29.4z"/>
<path fill="#0062AE" d="M418,29.4c-7.6,0-12.1,5.6-12.1,14.9v22.5h6.5c0,0,0-13.4,0-13.9c0.5,0,10.8,0,11.3,0c0,0.5,0,13.9,0,13.9
h6.5V44.3C430.1,34.9,425.6,29.4,418,29.4z M412.3,44.3c0-8.4,4.2-8.4,5.6-8.4s5.6,0,5.6,8.4c0,0,0,1.8,0,2.2c-0.4,0-10.8,0-11.3,0
C412.3,46,412.3,44.3,412.3,44.3z"/>
<rect x="302.4" y="30.1" fill="#0062AE" width="6.6" height="36.7"/>
<path fill="#0062AE" d="M214.5,29.4c-2.6,0-5.1,1-7,2.8c-1.9-1.8-4.4-2.8-7-2.8c-5.7,0-10.3,4.6-10.3,10.3v27.2h6.5V39.6
c0-2.1,1.7-3.7,3.8-3.7s3.7,1.7,3.7,3.7v27.2h6.6V39.6c0-2.1,1.7-3.7,3.7-3.7c2.1,0,3.7,1.7,3.7,3.7v27.2h6.5V39.6
C224.8,34,220.2,29.4,214.5,29.4z"/>
<path fill="#0062AE" d="M143.9,29.4c-7.7,0-12.2,5.6-12.2,15v8.1c0,9.4,4.6,15,12.2,15c7.7,0,12.2-5.6,12.2-15v-8.1
C156.1,35,151.6,29.4,143.9,29.4z M138.2,44.4c0-8.4,4.3-8.4,5.7-8.4s5.7,0,5.7,8.4v8.1c0,8.4-4.3,8.4-5.7,8.4s-5.7,0-5.7-8.4V44.4z
"/>
<path fill="#0062AE" d="M243.4,29.4c-7.7,0-12.2,5.6-12.2,15v8.1c0,9.4,4.6,15,12.2,15c7.7,0,12.2-5.6,12.2-15v-8.1
C255.6,35,251.1,29.4,243.4,29.4z M237.7,44.4c0-8.4,4.3-8.4,5.7-8.4s5.7,0,5.7,8.4v8.1c0,8.4-4.3,8.4-5.7,8.4s-5.7,0-5.7-8.4V44.4z
"/>
<path fill="#0062AE" d="M183.5,40.2c0-5.9-4.9-10.8-10.7-10.8c-5.9,0-10.8,4.7-10.8,10.5c0,4.8,2.8,8.2,9.3,11.5
c5.7,2.8,5.7,4.6,5.7,5.7c0,2.2-1.9,3.9-4.2,3.9c-2.2,0-4.2-1.9-4.2-4.1H162c0,5.8,4.9,10.6,10.8,10.6c5.9,0,10.7-4.7,10.7-10.5
c0-4.8-2.8-8.3-9.3-11.5c-5.7-2.9-5.7-4.6-5.7-5.7c0-2.2,1.9-3.9,4.2-3.9c2.4,0,4.2,2.3,4.2,4.3C176.9,40.2,183.5,40.2,183.5,40.2z"
/>
<path fill="#0062AE" d="M283.2,40.2c0-5.9-4.9-10.8-10.7-10.8c-5.9,0-10.7,4.7-10.7,10.5c0,4.8,2.8,8.2,9.3,11.5
c5.7,2.8,5.7,4.6,5.7,5.7c0,2.2-1.9,3.9-4.2,3.9c-2.2,0-4.2-1.9-4.2-4.1h-6.6c0,5.8,4.9,10.6,10.7,10.6c5.9,0,10.7-4.7,10.7-10.5
c0-4.8-2.8-8.3-9.3-11.5c-5.7-2.9-5.7-4.6-5.7-5.7c0-2.2,1.9-3.9,4.2-3.9c2.4,0,4.2,2.3,4.2,4.3C276.6,40.2,283.2,40.2,283.2,40.2z"
/>
<path fill="#0062AE" d="M109.1,52.5c0,8.4,4.3,8.4,5.5,8.4c1.4,0,4.3-0.2,4.8-4.2h6.7c-0.7,7-5.2,10.8-11.5,10.8
c-7.5,0-12.1-5.6-12.1-15v-8.1c0-9.4,4.6-15,12.1-15c6.3,0,10.8,3.8,11.5,10.8h-6.7c-0.5-4.1-3.5-4.2-4.8-4.2c-1.2,0-5.5,0-5.5,8.4
V52.5z"/>
<path fill="#0062AE" d="M42.4,12.7c-19.6,0-35.6,15.9-35.6,35.6c0-15.8,12.8-28.6,28.6-28.6C51.2,19.6,64,32.4,64,48.2
S51.2,76.8,35.4,76.8S6.8,64,6.8,48.2c0,19.7,15.9,35.6,35.6,35.6C62,83.8,78,67.9,78,48.2C77.9,28.6,62,12.7,42.4,12.7"/>
<path fill="#3D92D0" d="M35.4,76.8C51.2,76.8,64,64,64,48.2c0,12-9.7,21.7-21.7,21.7s-21.6-9.7-21.6-21.7c0-11.9,9.7-21.6,21.6-21.6
c12,0,21.7,9.7,21.7,21.6c0-15.8-12.8-28.6-28.6-28.6S6.8,32.4,6.8,48.2C6.8,64,19.6,76.8,35.4,76.8"/>
<path fill="#9DCAEE" d="M42.4,26.6c-12,0-21.6,9.7-21.6,21.6c0-8.1,6.6-14.7,14.7-14.7s14.7,6.6,14.7,14.7s-6.6,14.7-14.7,14.7
s-14.7-6.6-14.7-14.7c0,12,9.7,21.7,21.6,21.7c12,0,21.7-9.7,21.7-21.7C64,36.3,54.3,26.6,42.4,26.6"/>
</svg>
