<svg  xmlns="http://www.w3.org/2000/svg" x="0px" y="0px" width="290px" height="150px" viewBox="0 0 290 150">
<polygon fill="#3C3C3B" points="9,97.4 9,105.5 21.5,105.5 21.5,135.9 31.3,135.9 31.3,105.5 43.8,105.5 43.8,97.4 	"/>
<polygon fill="#3C3C3B" points="48.6,105.6 48.6,97.4 83.4,97.4 83.4,105.6 70.9,105.6 70.9,135.9 61.2,135.9 61.2,105.6 	"/>
<path fill="#3C3C3B" d="M95,107.2c0.9-2.5,2.1-4.6,3.7-6.1c1.6-1.6,3.6-2.7,6-3.4c2.4-0.7,5.1-1,8-1c5.4,0,9.8,1,12.9,3.1
c3.2,2.1,5,5.6,5.5,10.6h-9.9c-0.3-2.4-1.2-4-2.6-4.8c-1.5-0.8-3.4-1.2-5.9-1.2c-1.3,0-2.6,0.1-3.7,0.4c-1.1,0.3-2.1,0.7-2.9,1.5
c-0.8,0.7-1.5,1.7-1.9,2.9c-0.4,1.2-0.7,2.8-0.7,4.7v5.7c0,3.7,0.8,6.3,2.6,7.6c1.7,1.3,3.8,2,6.6,2c2.3,0,4.2-0.4,5.7-1.2
c1.4-0.8,2.4-2.3,2.8-4.6h9.9c-0.6,4.9-2.4,8.4-5.6,10.4c-3.2,2.1-7.5,3.1-12.9,3.1c-3,0-5.6-0.3-8-1c-2.4-0.7-4.3-1.8-6-3.3
c-1.6-1.5-2.9-3.6-3.7-6.2c-0.9-2.6-1.3-5.7-1.3-9.5C93.6,112.9,94.1,109.7,95,107.2"/>
<path fill="#3C3C3B" d="M143,129.8c0.7,0.5,1.7,0.7,3.1,0.7c2.1,0,3.7-0.5,5-1.5c1.2-0.9,1.8-2.3,1.8-4.2v-1.2l-6.6,0.3
c-1.5,0.1-2.6,0.4-3.3,0.8c-0.7,0.5-1.1,1.2-1.1,2.1v0.7C141.9,128.5,142.2,129.2,143,129.8 M135.3,121.5c2-1.5,5.1-2.3,9.4-2.6
l8.2-0.4v-1.1c0-1.7-0.4-2.9-1.2-3.5c-0.8-0.6-2.1-0.9-3.7-0.9c-1.5,0-2.7,0.2-3.4,0.7c-0.7,0.5-1.2,1.3-1.5,2.3h-9.8
c0.4-3.1,1.8-5.4,4.2-7c2.4-1.6,5.9-2.3,10.5-2.3c4.7,0,8.3,0.8,10.7,2.6c2.4,1.7,3.5,4.5,3.5,8.1v18.5h-9.1V132
c-0.9,1.5-2.3,2.6-4,3.5c-1.7,0.8-4,1.2-6.7,1.2c-3.3,0-5.8-0.8-7.5-2.3c-1.7-1.5-2.6-3.6-2.6-6.2
C132.3,125.2,133.3,123,135.3,121.5"/>
<path fill="#3C3C3B" d="M188.7,119.1c0-2.1-0.5-3.6-1.6-4.5c-1-0.9-2.7-1.3-4.8-1.3c-2.2,0-3.8,0.4-4.9,1.3
c-1.1,0.9-1.6,2.5-1.6,4.5v5.3c0,2.1,0.6,3.6,1.6,4.5c1.1,0.9,2.6,1.3,4.7,1.3c2.1,0,3.7-0.4,4.8-1.3c1.1-0.9,1.6-2.4,1.6-4.5
V119.1z M175.7,107.4v3.7c1.1-1.6,2.4-2.7,4.1-3.5c1.7-0.7,3.7-1.1,6.1-1.1c3.8,0,6.9,1.2,9.1,3.5c2.2,2.4,3.3,6.2,3.3,11.6
c0,5.2-1.1,9-3.2,11.3c-2.2,2.4-5.2,3.6-9.2,3.6c-2.3,0-4.2-0.3-5.9-1c-1.7-0.7-3-1.7-4.1-3.1V148h-9.4v-40.6H175.7z"/>
<rect x="201.6" y="107.4" fill="#3C3C3B" width="9.4" height="28.5"/>
<path fill="#3C3C3B" d="M202.6,95.5c0.9-0.7,2.1-1.1,3.7-1.1c1.6,0,2.8,0.4,3.7,1.1c0.9,0.7,1.3,1.9,1.3,3.4c0,1.6-0.4,2.7-1.3,3.5
c-0.9,0.7-2.1,1.1-3.7,1.1c-1.6,0-2.8-0.4-3.7-1.1c-0.9-0.7-1.4-1.9-1.4-3.5C201.2,97.4,201.7,96.2,202.6,95.5"/>
<path fill="#3C3C3B" d="M216.8,114.8h-3.5v-7.3h3.5V99h9.4v8.5h7.4v7.3h-7.4v10c0,1.3,0.3,2.3,0.8,2.9c0.6,0.6,1.6,0.9,3,0.9h3.6
v7.3h-7c-3.6,0-6.2-0.8-7.6-2.4c-1.4-1.6-2.2-4.1-2.2-7.5V114.8z"/>
<path fill="#3C3C3B" d="M245.5,129.8c0.7,0.5,1.7,0.7,3.1,0.7c2.1,0,3.7-0.5,5-1.5c1.2-0.9,1.8-2.3,1.8-4.2v-1.2l-6.6,0.3
c-1.5,0.1-2.6,0.4-3.3,0.8c-0.7,0.5-1.1,1.2-1.1,2.1v0.7C244.4,128.5,244.8,129.2,245.5,129.8 M237.8,121.5c2-1.5,5.1-2.3,9.4-2.6
l8.2-0.4v-1.1c0-1.7-0.4-2.9-1.2-3.5c-0.8-0.6-2.1-0.9-3.7-0.9c-1.5,0-2.7,0.2-3.4,0.7c-0.7,0.5-1.2,1.3-1.5,2.3h-9.8
c0.4-3.1,1.8-5.4,4.2-7c2.4-1.6,5.9-2.3,10.5-2.3c4.7,0,8.3,0.8,10.7,2.6c2.4,1.7,3.5,4.5,3.5,8.1v18.5h-9.1V132
c-0.9,1.5-2.3,2.6-4,3.5c-1.7,0.8-4,1.2-6.7,1.2c-3.3,0-5.8-0.8-7.5-2.3c-1.7-1.5-2.6-3.6-2.6-6.2
C234.9,125.2,235.9,123,237.8,121.5"/>
<rect x="269.1" y="96.6" fill="#3C3C3B" width="9.4" height="39.3"/>
<polygon fill="#174D46" points="188.4,42.1 188.4,42.1 177.6,25.4 176.4,23.5 163.4,3.6 141.8,3.6 152.6,20.2 154.7,23.5 
166.8,42.1 155.6,59.2 152.6,63.9 141.8,80.6 163.4,80.6 176.4,60.6 177.6,58.7 191.8,80.6 213.4,80.6 		"/>
<polygon fill="#174D46" points="138.4,42.1 149,25.8 138.2,9.1 128.8,23.5 127.6,25.4 116.8,42.1 116.8,42.1 91.8,80.6 
113.4,80.6 127.6,58.7 128.8,60.6 138.2,75 149,58.3 		"/>
</svg>
