<svg xmlns="http://www.w3.org/2000/svg" x="0px" y="0px" width="400px" height="110px" viewBox="0 0 400 110">
<path fill="#4C4C4C" d="M92.8,57.5c4.3-8.7,4.3-19-0.1-27.7c-1.4-2.9-4.2-4.7-7.4-4.8h-3.6v4.8h3.6c1.4,0.1,2.6,0.9,3.2,2.2
c3.7,7.4,3.8,16.1,0.2,23.5c-0.4,0.8-1,1.4-1.8,1.9c-0.8,0.4-1.6,0.6-2.4,0.6H80c-0.9,0-1.6-0.7-1.6-1.6V24.9h-4.7l0,65.7h4.8V64.1
c0-0.9,0.7-1.6,1.6-1.6h3.6c0.6,0,1.2,0.4,1.4,0.9c1.2,2.9,2.2,5.9,3,9l4.3,18.2h4.9l-4.5-19.3c-0.9-3.3-2-6.5-3.3-9.7
c-0.1-0.1-0.1-0.3-0.2-0.4C90.7,60.3,92,59,92.8,57.5"/>
<path fill="#4C4C4C" d="M162.3,69.7h-4.8v13.9c0,1.3-1.1,2.4-2.4,2.4h-5.5c-1.3,0-2.4-1.1-2.4-2.4V32.1c0-1.3,1.1-2.4,2.4-2.4h5.5
c1.3,0,2.4,1.1,2.4,2.4v13.8h4.8V28.1c0-1.8-1.4-3.2-3.2-3.2h-13.5c-1.8,0-3.2,1.4-3.2,3.2v59.4c0,1.8,1.4,3.2,3.2,3.2h13.5
c1.8,0,3.2-1.4,3.2-3.2V69.7z"/>
<path fill="#4C4C4C" d="M37.5,24.9l-8.1,46.6c0,0.2-0.2,0.3-0.3,0.3c-0.2,0-0.4-0.1-0.5-0.3L21,24.9h-4.8l10.7,65.7h4l11.4-65.7H37.5"/>
<path fill="#4C4C4C" d="M67.4,24.9H48.6l0,65.7h18.7v-4.8H55c-0.9,0-1.6-0.7-1.6-1.6l0-23.4c0-0.9,0.7-1.6,1.6-1.6h11.2v-4.8H55
c-0.9,0-1.6-0.7-1.6-1.6V31.3c0-0.9,0.7-1.6,1.6-1.6h12.4V24.9z"/>
<path fill="#4C4C4C" d="M109.5,90.7h4.8l0-59.4c0-0.9,0.7-1.6,1.6-1.6h5.5v-4.8h-19v4.8h5.5c0.9,0,1.6,0.7,1.6,1.6L109.5,90.7"/>
<path fill="#4C4C4C" d="M189.9,90.7l-8.1-46.6c0-0.2-0.2-0.4-0.5-0.3c-0.2,0-0.3,0.2-0.3,0.3l-7.6,46.5h-4.8l10.7-65.7l4,0l11.4,65.7H189.9"/>
<path fill="#4C4C4C" d="M227.7,90.7h-26.6V24.9h4.8v59.4c0,0.9,0.7,1.6,1.6,1.6h20.2V90.7z"/>
<path fill="#4C4C4C" d="M227.5,85.9c0,0,5.8,0,7.1,0h5.5c1.3,0,2.4-1.1,2.4-2.4v-21c0-1.3-1.1-2.4-2.4-2.4h-8.7c-2.2,0-4-1.8-4-4
V28.1c0-1.8,1.4-3.2,3.2-3.2h13.5c1.8,0,3.2,1.4,3.2,3.2v17.8h-4.8V32.1c0-1.3-1.1-2.4-2.4-2.4h-5.5c-1.3,0-2.4,1.1-2.4,2.4V53
c0,1.3,1.1,2.4,2.4,2.4h8.7c2.2,0,4,1.8,4,4v28.1c0,1.8-1.4,3.2-3.2,3.2h-16.5C225.9,90.7,227.5,85.9,227.5,85.9z"/>
<path fill="#4C4C4C" d="M260.8,90.7h4.8l0-59.4c0-0.9,0.7-1.6,1.6-1.6h5.5v-4.8h-19v4.8h5.5c0.9,0,1.6,0.7,1.6,1.6L260.8,90.7"/>
<path fill="#4C4C4C" d="M298.9,24.9v62.6c0,1.8-1.4,3.2-3.2,3.2h-13.5c-1.8,0-3.2-1.4-3.2-3.2V24.9h4.8v58.6c0,1.3,1.1,2.4,2.4,2.4
h5.5c1.3,0,2.4-1.1,2.4-2.4V24.9H298.9z"/>
<rect x="335.5" y="24.9" fill="#4C4C4C" width="4.8" height="65.7"/>
<rect x="128" y="24.9" fill="#4C4C4C" width="4.8" height="65.7"/>
<path fill="#4C4C4C" d="M349.8,69.2h7.1l0-35.6c0-0.9,0.7-1.6,1.6-1.6h15.4c0.9,0,1.6,0.7,1.6,1.6V40h7.1V24.9l-32.8,0L349.8,69.2"/>
<path fill="#4C4C4C" d="M382.6,46.4h-7.1l0,35.6c0,0.9-0.7,1.6-1.6,1.6h-15.4c-0.9,0-1.6-0.7-1.6-1.6v-6.3h-7.1v15.1l32.8,0L382.6,46.4"/>
<path fill="#4C4C4C" d="M314.7,24.9h-1.6v4.8h1.6c1.4,0.1,2.7,0.8,3.5,1.9c1.1,1.7,2,3.6,2.7,5.5c2.4,6.6,3.5,13.6,3.5,20.6
c0,7-1.2,14-3.5,20.6c-0.7,1.9-1.6,3.8-2.7,5.5c-0.8,1.2-2.1,1.9-3.5,1.9h-3.2c-0.9,0-1.6-0.7-1.6-1.6V24.9h-4.8v65.7h9.6
c3-0.1,5.7-1.6,7.4-4c1.3-2.1,2.4-4.3,3.2-6.6c2.5-7.1,3.8-14.6,3.8-22.2c0-7.6-1.2-15.1-3.8-22.2c-0.8-2.3-1.9-4.6-3.2-6.6
C320.5,26.5,317.7,25,314.7,24.9"/>
</svg>
