<svg  xmlns="http://www.w3.org/2000/svg" x="0px" y="0px" width="260px" height="110px" viewBox="0 0 260 110">
<path fill="#C3102A" d="M91.7,48.5c-10-52.9-85.9-48.6-89.9,5C0.7,78.4,19.2,98.5,43.7,101c2.3,0,4.6,0,6.9,0
c1.4-0.2,2.7-0.4,4.1-0.7C78.9,96.4,95.9,72.8,91.7,48.5z M83.6,68.7c-2.6,9.5-13.4,24.1-23.7,15c-9.1-7.6-14.8-18.3-21.3-28.1
c-0.6-1-0.5-1.7,0.2-2.6c1.6-2,3-3.9,6-3.8c1.2,0.1,2.5-0.5,3.6-1c9-3.8,8.9-12.9,4.8-18.6c-2.3-3-5-3.3-7.6-0.5
c-1.8,1.9-3.4,4.1-4.8,6.3C32.3,48.8,30.7,64.6,28,79.9c-0.3,1.5-0.9,2.9-1.7,4.2c-1.1,1.9-3,2.5-5.2,2c-2-0.5-2.8-2-2.8-3.8
c-0.3-13,1-26,2.1-39c0.6-6.5-10.3-5-3.7-10.7c4.5-4.2,9.3-8.1,14.1-12.1c0.5-0.4,1.7-0.8,2.1-0.5c1.3,1.2,0.4,4,0,5.5
c-0.5,1.6-1,3-1.7,4.4c-4.1,7.2-5.7,15.2-7.1,23.3c-1,5.7-2.1,11.5-3.1,17.2c-0.2,1-0.2,2.2-0.3,3.2c0.2,0,0.4,0.1,0.6,0.2
c6.3-18,11-37.6,24.7-51.5c1.6-1.7,3.4-3.2,5.4-4.3c4.1-2.5,8.8-1.1,11,3.1c2.2,4.1,2.1,8.3,1,12.6c-2.4,10-8.8,15.6-19,17.2
c-0.3,0.1-0.7,0.2-1.1,0.3c0.1,0.3,0.2,0.6,0.3,0.8c4.9,5.6,9.6,11.3,14.6,16.8c1.6,1.7,3.6,3.2,5.5,4.5c5.3,3.6,11.9,2.6,16-2.3
c0.8-1,1.5-1.9,2.3-2.9c0.4-0.5,1-1,1.9-1.2C83.8,67.5,83.8,68.1,83.6,68.7z"/>
<path fill="#2D292A" d="M258,74.1c0-4.4-2.4-5.5-8.6-5.5c-0.4,0-1.2,0-1.8,0c-1.2,0.1-2.2,0-2.2-1.7c0-1.5,0.9-1.7,2.2-1.7
c3,0.1,6.2,0,9.3,0c0-1.8,0-3.5,0-5.3c-3.6,0.1-7.2-0.2-10.9,0.1c-8.2,0.6-7.7,13.8,0.6,13.9c1.5,0,3,0.1,4.5,0
c1.1,0,1.6,0.5,1.6,1.5c0.1,1.2-0.3,1.9-1.7,1.9c-3.2-0.1-6.4,0-9.6,0c0,1.9,0,3.6,0,5.4c5.6-0.2,16.8,1.6,16.8-5.7
C258.1,75,258,76.9,258,74.1z"/>
<path fill="#2D292A" d="M213.3,72.7c-0.7-0.9-1-1.3-1.4-1.7c-2.2-3-4.4-5.7-6.4-8.9c-1.3-2-2.9-2.3-5-1.8c0,7.4,0,14.9,0,22.3
c1.7,0,3.1,0,4.9,0c0-4.1,0-8,0-11.9c2.9,3.3,5.5,6.6,7.7,10.1c1.3,2,2.9,2.3,5,1.8c0-7.4,0-14.9,0-22.4c-1.6,0-3,0-4.7,0
C213.3,64.3,213.3,68.2,213.3,72.7z"/>
<path fill="#2D292A" d="M184,60.4c-4.3-0.3-8.4-0.1-12.8-0.1c0,7.3,0,14.7,0,22.1c4.2,0,8.2,0.2,12.2-0.1c3.3-0.3,5.4-2.8,5.6-6.2
c0.2-3.3,0.2-6.5,0-9.8C188.7,63.3,186.9,60.7,184,60.4z M184.1,75.1c-0.1,1.7-1.1,2.6-2.9,2.6c-1.7,0-3.2,0-5,0c0-4.4,0-8.5,0-12.7
c1.9,0,3.8-0.2,5.6,0c1.5,0.1,2.3,1.2,2.3,2.6C184.1,70.2,184.1,72.7,184.1,75.1z"/>
<path fill="#2D292A" d="M127.6,35.1c-0.3-3.2-2.3-5.5-5.6-5.8c-3.6-0.3-7.1-0.3-10.8-0.3c-0.4,0-1,0.1-1.4,0.2c0,7.6,0,14.9,0,22.4
c1.7,0,3.2,0,5,0c0-5.9,0-11.7,0-17.6c0.7,0,1.1,0,1.7,0c1.2,0,2.4-0.1,3.6,0c1.8,0.1,2.8,1.3,2.7,3.2c-0.1,3.9-3.6,3-6.5,3
c2.1,3.9,4,7.4,5.9,10.9c0.2,0.3,0.7,0.5,1,0.5c1.4,0.1,2.8,0,4.5,0c-1.4-2.4-2.6-4.7-3.8-7C127.8,42.3,128,38.8,127.6,35.1z"/>
<path fill="#2D292A" d="M148.9,66.9c-0.3-3.9-2.4-6.3-6.3-6.7c-4.5-0.3-10.5-0.4-11.1,5.2c-0.4,3.7-0.5,7.5-0.2,11.2
c0.4,6.5,7.3,6.3,12.2,5.6c5.7-1,5.1-6.3,5.5-10.9c-0.1,0-0.1,0-0.1,0C148.9,70,149,68.4,148.9,66.9z M143.8,75.2
c0,0.4-0.1,0.9-0.3,1.2c-1.3,2.1-3.5,1.3-5.3,1.2c-1.6-0.1-2.3-1.2-2.3-2.8c0-1.2-0.1-2.5,0-3.6c0-1.2,0-2.4,0.1-3.6
c0.1-1.6,1-2.4,2.3-2.6c1-0.2,2.2-0.2,3.2,0c1.3,0.2,2.3,1,2.3,2.4C143.9,70,143.8,72.6,143.8,75.2z"/>
<path fill="#2D292A" d="M122.8,71.2c-2.7,0-5.2,0-8,0c0-3.8,0-7.4,0-11.1c-1.7,0-3.3,0-4.9,0c0,7.6,0,15,0,22.5c1.7,0,3.1,0,4.9,0
c0-2.2,0-4.3,0-6.3c2.8,0,5.3,0,8.1,0c0,2.2,0,4.3,0,6.3c1.7,0,3.1,0,4.7,0c0-7.6,0-14.9,0-22.5c-1.6,0-3.1,0-4.8,0
C122.8,63.8,122.8,67.5,122.8,71.2z"/>
<path fill="#2D292A" d="M227.7,60.2c-3.7,0.3-6,2.7-6.2,6.4c-0.2,3.1-0.2,6.3,0,9.5c0.2,2.8,1.5,5,4.3,6c3.8,1.2,7.7,0.4,11.7,0.7
c0-4.4,0-8.6,0-12.9c-3,0-5.6,0-8.6,0c0,1.7,0,3.3,0,5c0.7,0,1.3,0,1.9,0c0.6,0,1.3,0.1,1.8,0.1c0,1.1,0,2,0,3c-1,0-1.8,0-2.7,0
c-2.7,0-3.6-0.8-3.6-3.4c-0.1-1.9-0.1-3.9,0-5.8c0.1-2.7,1-3.6,3.6-3.6c2.5,0,5,0,7.6,0c0-1.7,0-3.1,0-4.7
C234.1,60.2,230.9,60,227.7,60.2z"/>
<path fill="#2D292A" d="M144.8,46.7c-3,0-5.8,0-8.7,0c0-1.3,0-2.4,0-3.6c3,0,5.8,0,8.7,0c0-1.7,0-3.1,0-4.8c-3,0-5.7,0-8.7,0
c0-1.6,0-2.9,0-4.3c3,0,5.8,0,8.7,0c0-1.7,0-3.2,0-4.8c-4.7,0-9.2,0-13.7,0c0,7.6,0,14.9,0,22.4c4.6,0,9.1,0,13.7,0
C144.8,49.9,144.8,48.4,144.8,46.7z"/>
<path fill="#2D292A" d="M159,49.1c1,0,1.7,0.2,2,1.3c0.2,0.5,1,1,1.5,1.1c1.1,0.2,2.4,0.1,3.9,0.1c-2.6-7.3-5-14.2-7.4-21.3
c-0.4-1.2-1-1.6-2.3-1.6c-1.3,0-2,0.3-2.4,1.6c-2.2,6.5-4.6,13-6.9,19.5c-0.2,0.4-0.3,1-0.4,1.7c2.3-0.5,5.3,1.4,5.9-2.5
C155,49.1,157,49.2,159,49.1z M156.6,38.8c0.8,2,1.3,3.6,2,5.4c-1.4,0-2.4,0-3.9,0C155.3,42.4,155.9,40.8,156.6,38.8z"/>
<path fill="#2D292A" d="M184,46.7c-3.7,0-7.4,0-11.2,0c0-5.9,0-11.7,0-17.6c-1.7,0-3.1,0-4.6,0c0,0.2-0.2,0.3-0.2,0.5
c0,6.9,0,14-0.1,20.9c0,1,0.6,1.1,1.4,1.1c4.9,0,9.8,0,14.7,0C184,49.9,184,48.4,184,46.7z"/>
<path fill="#2D292A" d="M181.3,33.9c1.8,0,3.6,0,5.5,0c0,6,0,11.7,0,17.6c1.7,0,3.2,0,5,0c0.1-6,0.1-11.8,0.1-17.7
c1.9,0,3.6,0,5.4,0c0-1.7,0-3.2,0-4.8c-5.4,0-10.6,0-16,0C181.3,30.7,181.3,32.2,181.3,33.9z"/>
<polygon fill="#2D292A" points="208.5,35.8 204.2,29 198.6,28.9 205.8,40.4 206,51.5 210.8,51.5 210.8,40.4 218.2,28.9 212.8,28.9"/>
<path fill="#2D292A" d="M156.9,60.1c-1.7,0-3.2,0-4.7,0c0,7.6,0,14.9,0,22.5c5.4,0,10.6,0,15.9,0c0-1.7,0-3.2,0-4.9
c-3.7,0-7.4,0-11.2,0C156.9,71.7,156.9,66,156.9,60.1z"/>
<polygon fill="#2D292A" points="192.2,60.1 192.4,82.6 197.2,82.6 197,60.1 "/>
</svg>
