<svg  xmlns="http://www.w3.org/2000/svg" x="0px" y="0px" width="110px" height="110px" viewBox="0 0 110 110">
<path fill="#317339" d="M107.5,56c0-17.1,0-34.2,0-51.3c0-1.2-0.3-1.6-1.6-1.6c-33.5,0-67,0-100.6,0c-1.2,0-1.6,0.3-1.6,1.5
c0,34.1,0,68.2,0,102.2c0,1.2,0.2,1.5,1.5,1.5c33.6,0,67.1,0,100.7,0c1.2,0,1.5-0.3,1.5-1.5C107.5,90,107.5,73,107.5,56z
M103.8,106.3c-32.1,0-64.1,0-96.2,0c-1.4,0-1.6-0.4-1.6-1.7c0-32.6,0-65.2,0-97.8c0-1.2,0.3-1.4,1.4-1.4c32.2,0,64.4,0,96.6,0
c1.1,0,1.4,0.3,1.4,1.4c0,16.3,0,32.7,0,49c0,16.3,0,32.6,0,48.9C105.4,105.9,105.1,106.3,103.8,106.3z M103.9,6.8
C103.9,6.8,103.9,6.8,103.9,6.8C103.9,6.8,103.9,6.8,103.9,6.8c-0.4,0-0.8-0.1-1.2-0.1c-31.1,0-62.3,0-93.4,0C8.2,6.7,8,7,8,8.1
c0,31.8,0,63.5,0,95.3c0,0.4,0.1,0.8,0.1,1.2c0.3,0.4,0.8,0.2,1.1,0.2c31.2,0,62.4,0,93.6,0c0.5,0,0.8-0.1,1-0.2
c0.1,0,0.1-0.1,0.1-0.1c0.2-0.2,0.3-0.6,0.3-1.1c0-31.8,0-63.6,0-95.4C104.2,7.7,104.4,7.2,103.9,6.8z M101,102.2
c0-30.9,0-61.8,0-92.7c0-0.4,0-0.7,0-1.1c0-0.6,0.5-0.4,0.8-0.4c0.3,0,0.7,0,0.7,0.5c0,0.3,0,0.6,0,1c0,15.5,0,31,0,46.5
c0,15.4,0,30.8,0,46.1c0,0.3,0,0.6,0,1c0,0.6-0.3,0.7-0.8,0.7c-0.5,0-0.8-0.1-0.8-0.7C101,102.7,101,102.4,101,102.2z M97.9,102.1
c0-30.9,0-61.8,0-92.7c0-0.4,0-0.7,0-1.1c0-0.5,0.4-0.4,0.7-0.4c0.3,0,0.7,0,0.7,0.4c0,0.4,0,0.8,0,1.2c0,15.4,0,30.7,0,46.1
c0,15.5,0,30.9,0,46.4c0,0.4,0,0.7,0,1.1c0,0.4-0.4,0.5-0.7,0.5c-0.3,0-0.7,0-0.7-0.5C97.9,102.8,97.9,102.5,97.9,102.1z M95.3,7.9
c0.6,0,1.1,0,1,0.9c0,0.2,0,0.5,0,0.7c0,30.9,0,61.8,0,92.7c0,0.2,0,0.5,0,0.7c0,0.6-0.2,0.8-0.8,0.8c-0.7,0-0.9-0.2-0.9-0.9
c0-2.1,0-4.2,0-6.4c0-13.6,0-27.2,0-40.8c0-15.5,0-30.9,0-46.4C94.7,8.8,94.3,8,95.3,7.9z M75.9,61.4c-12.9,0-25.9,0-38.8,0
c-0.4,0-0.9,0-1.5,0.1c0.9,1.2,1.8,2.3,2.9,3.1c5.4,5.5,10.9,11.1,16.3,16.6c2.4,2.5,4.8,4.9,7.2,7.4c4.2,4.2,8.4,8.5,12.6,12.7
c0.6,0.6,1.2,1.1,1.8,1.7c0.1,0.1,0.2,0.2,0.2,0.2c-0.1,0.6-0.6,0.4-0.9,0.4c-12.8,0-25.6,0-38.5,0c-0.1,0-0.3,0-0.4-0.1
c0,0,0,0,0-0.1c-0.1,0-0.1,0.1-0.2,0.1c-1,0.3-1.3-0.3-1.3-1.3c0-23.4,0-46.9,0-70.3c0-8,0-16,0-24c13.8,0,27.7,0,41.5,0
C77,8.1,77,8.2,77.1,8.3c0,0,0,0.1,0,0.1c-3.4,3.3-6.8,6.6-10.2,9.9c0,0,0,0,0,0C61.6,23.8,56.3,29.2,51,34.6
c-0.9,0.9-1.8,1.7-2.6,2.6c-4.2,4.4-8.5,8.7-12.9,13.3c0.4,0,0.6,0.1,0.7,0.1c13.4,0,26.8,0,40.2,0c1.1,0,1-0.5,1-1.2
c0-10.3,0-20.5,0-30.8c0-3.2,0-6.4,0-9.5c0-0.7,0-1.1,0.9-1.1C82.1,8,86,8,89.8,8c0,0,0,0,0,0c0,0,0,0,0,0c0,27.2,0,54.5,0,81.7
c0,4.6,0,9.2,0,13.8c-3.7,0.3-7.3,0-11,0.2c-1.2,0.1-1.5-0.3-1.5-1.5c0-13.1,0-26.1,0-39.2c0-0.5,0.2-1-0.2-1.4v0c0,0,0,0,0,0
C76.7,61.3,76.3,61.4,75.9,61.4z M93.1,102.1c0,0.5,0,0.9,0,1.4c0,0,0,0,0,0c-1.7,0.3-1.7,0.3-1.7-1.3c0-30.9,0-61.8,0-92.7
c0-1.4,0.5-1.8,1.7-1.4c0,0.4,0,0.8,0,1.2C93.1,40.2,93.1,71.2,93.1,102.1z M21.5,8C21.5,8,21.5,8,21.5,8c0,31.5,0,63,0,94.5
c0,0.7,0.1,1.3-0.9,1.2c-1.2,0-0.8-0.9-0.8-1.5c0-29.6,0-59.1,0-88.7c0-1.3,0-2.7,0-4C19.8,7.9,19.8,7.9,21.5,8
C21.5,8,21.5,8,21.5,8C21.5,8,21.5,8,21.5,8z M17.5,7.9C18,8,18.2,8.2,18.2,8.7c0,0.3,0,0.6,0,0.8c0,30.9,0,61.8,0,92.7
c0,0.6,0.3,1.3-0.4,1.6c-0.8,0.4-1.4-0.1-1.4-1.2c0-15.6,0-31.1,0-46.7c0-15.6,0-31.1,0-46.7C16.3,8.4,16.3,7.8,17.5,7.9z M13,7.9
L13,7.9C13,7.9,13,7.9,13,7.9c1.3-0.3,1.7,0.2,1.7,1.6c-0.1,30.8,0,61.7-0.1,92.5c0,0.5,0.3,1.1-0.3,1.5c-0.7,0.4-1.4-0.1-1.4-0.9
c0-1.5,0-2.9,0-4.4c0-29.7,0-59.3,0-89C13,8.9,13,8.4,13,7.9C13,7.9,13,7.9,13,7.9C13,7.9,13,7.9,13,7.9L13,7.9z M11.3,8
C11.3,8,11.3,8,11.3,8c0,0.7,0,1.4,0,2.1c0,30.7,0,61.4,0,92.1c0,0.5,0.3,1.1-0.2,1.4c-0.3,0.2-0.8,0.1-1.2,0
c-0.4-0.1-0.3-0.5-0.3-0.8c0-0.3,0-0.6,0-0.8c0-30.8,0-61.6,0-92.4C9.6,8.1,10,7.7,11.3,8C11.3,7.9,11.3,7.9,11.3,8
C11.3,7.9,11.3,8,11.3,8z"/>
</svg>
