<svg  xmlns="http://www.w3.org/2000/svg" x="0px" y="0px" width="260px" height="110px" viewBox="0 0 260 110">
<path d="M106.8,50.8V29.9h11.5c5.7,0,7.8,2.2,7.8,7.7c0,5.9-1.4,7.9-7.8,7.9h-5.4v5.4H106.8z M117.1,40.6c2.4-0.1,2.8-0.3,2.8-3
c0-2.1-0.4-2.8-2.8-2.8h-4.2v5.9H117.1z"/>
<polygon points="149.2,50.8 143.1,50.8 143.1,42.6 135.1,42.6 135.1,50.8 129,50.8 129,29.9 135.1,29.9 135.1,37.7 143.1,37.7 
143.1,29.9 149.2,29.9"/>
<path d="M159.6,47.2l-1.1,3.6h-6.4l6.9-20.9h9.3l7,20.9H169l-1.2-3.6H159.6z M163.8,34L163.8,34l-2.8,9.1h5.7L163.8,34z"/>
<polygon points="185.9,50.8 179.8,50.8 179.8,34.7 173.9,34.7 173.9,29.9 192.1,29.9 192.1,34.7 185.9,34.7"/>
<path d="M196.4,29.9H208c6.4,0,9.2,2.2,9.2,8.1v4.4c0,5.7-2,8.4-8.4,8.4h-12.5V29.9z M202.5,45.9h5.4c2.3,0,3.1-1.4,3.1-3.6V38
c0-2.7-0.9-3.3-3.1-3.3h-5.4V45.9z"/>
<path d="M226.2,47.2l-1.1,3.6h-6.4l6.9-20.9h9.3l7,20.9h-6.2l-1.2-3.6H226.2z M230.3,34L230.3,34l-2.8,9.1h5.7L230.3,34z"/>
<polygon points="252.4,50.8 246.3,50.8 246.3,34.7 240.4,34.7 240.4,29.9 258.6,29.9 258.6,34.7 252.4,34.7"/>
<path d="M116.1,64.2v0.4c0,1.8-0.2,2.4-0.9,3c-0.7,0.5-1.4,0.6-3.8,0.6c-1.9,0-2.7-0.2-3.4-0.7c-0.9-0.6-1.2-1.6-1.2-3.7
c0-1.9,0-1.9,0-2.2c0-2.5,0.2-3.3,0.9-4c0.8-0.8,1.6-1,4.4-1c1.6,0,2.1,0.1,2.7,0.4c0.6,0.4,1,1.1,1.1,2c0,0.4,0,0.6,0.1,1.3h-1.7
v-0.3c0-1.7-0.3-1.9-2.3-1.9c-3,0-3.4,0.3-3.4,2.7c0,3.1,0,3.9,0.2,4.6c0.2,1.1,0.7,1.3,2.7,1.3c2.5,0,2.9-0.3,2.9-1.9
c0-0.2,0-0.3,0-0.6H116.1z"/>
<path d="M129.8,57.1c0.9,0.4,1.4,1.2,1.6,2.5c0.1,0.5,0.1,1,0.1,2.6c0,3-0.1,3.7-0.6,4.6c-0.4,0.8-1.4,1.3-2.6,1.4
c-0.5,0-1.1,0.1-1.9,0.1c-1.8,0-2.6-0.1-3.3-0.5c-0.8-0.5-1.2-1.1-1.4-2.4c-0.1-0.6-0.1-1.1-0.1-2.9c0-2.8,0.1-3.6,0.7-4.4
c0.7-1,1.7-1.3,4.3-1.3C128.4,56.6,129.2,56.7,129.8,57.1 M129.8,62.4v-1.6c0-1-0.2-1.8-0.5-2.2c-0.4-0.4-0.9-0.5-2.6-0.5
c-1.4,0-1.9,0.1-2.3,0.3c-0.5,0.3-0.8,0.7-0.9,1.7c0,0.4,0,0.5,0,2.3c0,2.6,0,2.8,0.3,3.4c0.3,0.7,0.8,0.8,2.9,0.8
c1.7,0,2.2-0.1,2.6-0.5c0.4-0.4,0.6-1.2,0.6-2.2V62.4z"/>
<path d="M137.1,56.7h5.4c2.6,0,3.5,0.9,3.5,3.3c0,2.2-0.4,2.8-2,3.1v0.1c1.3,0.1,1.8,0.8,1.8,2.2v2.7h-1.7v-2.3
c0-0.8-0.1-1.2-0.5-1.5c-0.3-0.3-0.6-0.4-1.4-0.4h-3.4v4.1h-1.7V56.7z M142.2,62.4c0.8,0,1.3-0.1,1.6-0.4c0.4-0.3,0.5-0.7,0.5-1.6
c0-1.4-0.1-1.8-0.6-2c-0.3-0.1-0.7-0.2-1.2-0.2h-3.6v4.2H142.2z"/>
<path d="M151.7,56.7h4.6c1.7,0,2.1,0,2.6,0.3c1,0.5,1.5,1.5,1.5,3.3c0,2.1-0.5,3.1-1.8,3.5c-0.4,0.1-0.4,0.1-2.3,0.2h-2.9v4h-1.7
V56.7z M156.1,62.5c2.2,0,2.5-0.3,2.5-2c0-1.5-0.2-2-0.8-2.2c-0.3-0.1-0.4-0.1-1.4-0.1h-3v4.3H156.1z"/>
<path d="M174.1,57.1c0.9,0.4,1.4,1.2,1.6,2.5c0.1,0.5,0.1,1,0.1,2.6c0,3-0.1,3.7-0.6,4.6c-0.5,0.8-1.4,1.3-2.6,1.4
c-0.5,0-1.1,0.1-1.9,0.1c-1.8,0-2.6-0.1-3.3-0.5c-0.8-0.5-1.2-1.1-1.4-2.4c-0.1-0.6-0.1-1.1-0.1-2.9c0-2.8,0.1-3.6,0.7-4.4
c0.7-1,1.7-1.3,4.3-1.3C172.7,56.6,173.4,56.7,174.1,57.1 M174.1,62.4v-1.6c0-1-0.2-1.8-0.5-2.2c-0.4-0.4-0.9-0.5-2.6-0.5
c-1.4,0-1.9,0.1-2.3,0.3c-0.5,0.3-0.8,0.7-0.9,1.7c0,0.4,0,0.5,0,2.3c0,2.6,0,2.8,0.3,3.4c0.3,0.7,0.8,0.8,2.9,0.8
c1.7,0,2.2-0.1,2.6-0.5c0.4-0.4,0.6-1.2,0.6-2.2V62.4z"/>
<path d="M181.4,56.7h5.4c2.6,0,3.5,0.9,3.5,3.3c0,2.2-0.4,2.8-2,3.1v0.1c1.3,0.1,1.9,0.8,1.9,2.2v2.7h-1.7v-2.3
c0-0.8-0.1-1.2-0.5-1.5c-0.3-0.3-0.6-0.4-1.4-0.4h-3.4v4.1h-1.7V56.7z M186.5,62.4c0.8,0,1.3-0.1,1.6-0.4c0.4-0.3,0.5-0.7,0.5-1.6
c0-1.4-0.1-1.8-0.6-2c-0.3-0.1-0.7-0.2-1.2-0.2h-3.6v4.2H186.5z"/>
<path d="M198.6,65.8l-0.8,2.3H196l3.9-11.3h2.5l4,11.3h-1.8l-0.8-2.3H198.6z M201.2,58.1l-2.2,6.4h4.4L201.2,58.1z"/>
<polygon points="217.2,68.1 215.5,68.1 215.5,58.3 212,58.3 212,56.7 220.7,56.7 220.7,58.3 217.2,58.3"/>
<rect x="226.3" y="56.7" width="1.7" height="11.3"/>
<path d="M241.7,57.1c0.9,0.4,1.4,1.2,1.6,2.5c0.1,0.5,0.1,1,0.1,2.6c0,3-0.1,3.7-0.6,4.6c-0.5,0.8-1.4,1.3-2.6,1.4
c-0.5,0-1.1,0.1-1.9,0.1c-1.8,0-2.6-0.1-3.3-0.5c-0.8-0.5-1.2-1.1-1.4-2.4c-0.1-0.6-0.1-1.1-0.1-2.9c0-2.8,0.1-3.6,0.7-4.4
c0.7-1,1.7-1.3,4.3-1.3C240.3,56.6,241.1,56.7,241.7,57.1 M241.7,62.4v-1.6c0-1-0.2-1.8-0.5-2.2c-0.4-0.4-0.9-0.5-2.6-0.5
c-1.4,0-1.9,0.1-2.3,0.3c-0.5,0.3-0.8,0.7-0.9,1.7c0,0.4,0,0.5,0,2.3c0,2.6,0,2.8,0.3,3.4c0.3,0.7,0.8,0.8,2.9,0.8
c1.7,0,2.2-0.1,2.6-0.5c0.3-0.4,0.6-1.2,0.6-2.2V62.4z"/>
<path d="M258.6,68.1h-2.7l-3.7-6.9c-0.2-0.4-0.4-0.8-0.9-1.9c-0.2-0.3-0.3-0.6-0.5-1h-0.1c0,1,0.1,1.8,0.1,2.4v7.5h-1.6V56.7h2.7
l3.3,6.2c0.4,0.7,0.7,1.4,1.8,3.6h0c0-1,0-1.8,0-2.3v-7.5h1.6V68.1z"/>
<path d="M113.8,76.2c0-0.8-0.2-1.4-0.6-1.7c-0.4-0.3-1.1-0.5-2.1-0.5h-4.3v7.7h0.1h1.1v-3h2.9h0.3c0.9,0,1.2,0.4,1.2,1.2v1.8h1.2
v-2c0-0.7-0.3-1.2-0.9-1.5c0.3-0.1,0.6-0.2,0.7-0.5C113.7,77.4,113.8,76.9,113.8,76.2 M112.7,76.4c0,0.5-0.1,0.8-0.4,1
c-0.2,0.2-0.7,0.3-1.5,0.3H108v-2.8h3.1c0.7,0,1.1,0.1,1.2,0.3C112.5,75.3,112.7,75.8,112.7,76.4"/>
<path d="M121.2,79.8H120V80v0.2c0,0.3-0.1,0.5-0.3,0.6c-0.2,0.1-0.6,0.2-1.4,0.2c-0.8,0-1.2-0.1-1.4-0.3c-0.2-0.2-0.3-0.6-0.3-1.4
h4.5v-0.5c0-1-0.2-1.7-0.6-2c-0.4-0.3-1.2-0.5-2.3-0.5c-1.1,0-1.8,0.2-2.2,0.6c-0.4,0.4-0.6,1.1-0.6,2.2c0,1.1,0.2,1.9,0.6,2.3
c0.4,0.4,1.2,0.6,2.3,0.6c1,0,1.7-0.1,2.1-0.3c0.4-0.2,0.7-0.7,0.7-1.3l0-0.2L121.2,79.8z M120,78.2l0,0.1h-3.3
c0-0.6,0.1-0.9,0.3-1.1c0.2-0.2,0.6-0.3,1.3-0.3c0.7,0,1.2,0.1,1.3,0.2C119.9,77.4,120,77.7,120,78.2"/>
<path d="M127.7,76.5c-0.4-0.3-1.1-0.4-2.2-0.4c-1,0-1.6,0.1-2,0.3c-0.4,0.2-0.5,0.7-0.5,1.3v0.1h1.2l0-0.1c0-0.1,0-0.1,0-0.2
c0-0.4,0.4-0.7,1.5-0.7c0.6,0,1.1,0.1,1.2,0.2c0.1,0.1,0.3,0.5,0.3,1.1v0.3c-0.4-0.3-1-0.4-1.9-0.4c-0.9,0-1.6,0.1-2,0.4
c-0.4,0.3-0.6,0.8-0.6,1.4c0,1.1,0.9,1.7,2.5,1.7c0.9,0,1.5-0.1,2-0.5l0,0.2l0,0.1h1.2v-3.6C128.3,77.4,128.1,76.8,127.7,76.5
M126.9,79.3c0.2,0.1,0.3,0.3,0.3,0.7c0,0.5-0.5,0.8-1.8,0.9c-0.6,0-1-0.1-1.2-0.2c-0.2-0.1-0.3-0.3-0.3-0.7c0-0.4,0.1-0.6,0.3-0.7
c0.2-0.1,0.6-0.2,1.3-0.2C126.2,79.1,126.7,79.2,126.9,79.3"/>
<polygon points="130.5,74 130.4,74 130.4,81.7 131.6,81.7 131.6,74 131.5,74"/>
<polygon points="137.3,81.7 143.2,81.7 143.2,80.8 143.2,80.7 138.5,80.7 138.5,78.2 143,78.2 143,77.3 143,77.2 138.5,77.2 
138.5,74.9 143.2,74.9 143.2,74.1 143.2,74 137.3,74"/>
<path d="M148.2,78.5l-0.9,0l-0.7,0c-0.6,0-0.8-0.2-0.8-0.7c0-0.3,0.1-0.5,0.2-0.6c0.1-0.1,0.6-0.1,1.2-0.1c0.7,0,1.2,0,1.3,0.1
c0.1,0,0.2,0.2,0.2,0.6v0.1h1.2l0-0.1l0-0.2c0-0.9-0.9-1.4-2.6-1.4c-1,0-1.7,0.1-2.1,0.3c-0.4,0.2-0.6,0.7-0.6,1.3
c0,0.6,0.2,1.1,0.7,1.3c0.5,0.2,1.4,0.3,2.8,0.3c0.6,0,0.7,0.2,0.8,0.7c0,0.4-0.1,0.5-0.3,0.6c-0.2,0.1-0.7,0.2-1.4,0.2
c-0.6,0-1-0.1-1.2-0.2c-0.2-0.1-0.2-0.3-0.2-0.6v-0.2l0-0.1h-1.2l0,0.4c0,0.6,0.2,1,0.6,1.3c0.4,0.2,1.1,0.3,2.2,0.3
c1,0,1.7-0.1,2.1-0.3c0.4-0.2,0.6-0.7,0.6-1.3C150.1,79.1,149.4,78.5,148.2,78.5"/>
<path d="M154.4,79.9l0,0.3c0,0.4-0.2,0.6-0.7,0.6c-0.5,0-0.7-0.2-0.8-0.7v-3h2.4v-0.8v-0.1h-0.1h-2.2v-1.3h-1.2v1.3H151h-0.1V77
v0.1h0.9v3v0.2c0,0.9,0.7,1.4,1.9,1.4c0.6,0,1.1-0.1,1.4-0.4c0.3-0.3,0.5-0.7,0.5-1.3v-0.4l0-0.1h-1.1L154.4,79.9z"/>
<path d="M161.5,76.5c-0.4-0.3-1.1-0.4-2.2-0.4c-1,0-1.6,0.1-2,0.3c-0.4,0.2-0.5,0.7-0.5,1.3v0.1h1.1v-0.1v-0.1
c0-0.4,0.4-0.7,1.5-0.7c0.6,0,1,0.1,1.2,0.2c0.1,0.1,0.3,0.5,0.2,1.1v0.4c-0.4-0.3-1-0.4-1.9-0.4c-0.9,0-1.6,0.1-2,0.4
c-0.4,0.3-0.6,0.8-0.6,1.4c0,1.1,0.9,1.7,2.5,1.7c0.9,0,1.5-0.1,2-0.5l0,0.2l0,0.1h1.2v-3.6C162.1,77.4,161.9,76.8,161.5,76.5
M161,80c0,0.5-0.5,0.8-1.8,0.9c-0.6,0-1-0.1-1.2-0.2c-0.2-0.1-0.3-0.3-0.3-0.7c0-0.4,0.1-0.6,0.3-0.7c0.2-0.1,0.6-0.2,1.3-0.2
c0.7,0,1.2,0.1,1.4,0.2C160.9,79.4,161,79.6,161,80"/>
<path d="M166.8,79.9l0,0.3c0,0.4-0.2,0.6-0.7,0.6c-0.5,0-0.7-0.2-0.8-0.7v-3h2.4v-0.8v-0.1h-0.1h-2.2v-1.3h-1.2v1.3h-0.7h-0.1V77
v0.1h0.9v3v0.2c0,0.9,0.7,1.4,1.9,1.4c0.6,0,1.1-0.1,1.4-0.4c0.3-0.3,0.5-0.7,0.5-1.3l0-0.4v-0.1h-1.1L166.8,79.9z"/>
<path d="M174.6,79.8h-1.2V80v0.2c0,0.3-0.1,0.5-0.3,0.6c-0.2,0.1-0.6,0.2-1.4,0.2c-0.8,0-1.2-0.1-1.4-0.3c-0.2-0.1-0.3-0.6-0.3-1.4
h4.5v-0.5c0-1-0.2-1.7-0.6-2c-0.4-0.3-1.2-0.5-2.3-0.5c-1.1,0-1.8,0.2-2.2,0.6c-0.4,0.4-0.6,1.1-0.6,2.2c0,1.1,0.2,1.9,0.6,2.3
c0.4,0.4,1.2,0.6,2.3,0.6c1,0,1.7-0.1,2.1-0.3c0.4-0.2,0.7-0.7,0.7-1.3l0-0.2V79.8z M170.2,78.3c0-0.6,0.1-0.9,0.3-1.1
c0.2-0.2,0.6-0.3,1.3-0.3c0.7,0,1.2,0.1,1.3,0.2c0.2,0.1,0.3,0.4,0.3,1l0,0.1H170.2z"/>
<path d="M184.7,74h-4.2v7.7h0.1h4.3c1.2,0,2.1-0.3,2.5-0.9c0.4-0.6,0.6-1.7,0.6-3.3c0-1.3-0.2-2.3-0.7-2.8
C186.9,74.2,186,74,184.7,74 M186.9,77.9c0,1.2-0.2,2-0.4,2.3c-0.3,0.3-0.9,0.5-2,0.5h-2.8v-5.8h3c1,0,1.6,0.2,1.8,0.5
C186.8,75.7,186.9,76.6,186.9,77.9"/>
<path d="M195.3,79.8h-1.2V80v0.2c0,0.3-0.1,0.5-0.3,0.6c-0.2,0.1-0.6,0.2-1.4,0.2c-0.8,0-1.2-0.1-1.4-0.3c-0.2-0.1-0.3-0.6-0.3-1.4
h4.5v-0.5c0-1-0.2-1.7-0.6-2c-0.4-0.3-1.2-0.5-2.3-0.5c-1.1,0-1.8,0.2-2.2,0.6c-0.4,0.4-0.6,1.1-0.6,2.2c0,1.1,0.2,1.9,0.6,2.3
c0.4,0.4,1.2,0.6,2.3,0.6c1,0,1.7-0.1,2.1-0.3c0.4-0.2,0.7-0.7,0.6-1.3l0-0.2L195.3,79.8z M194.1,78.3h-3.3c0-0.6,0.1-0.9,0.3-1.1
c0.2-0.2,0.6-0.3,1.3-0.3c0.7,0,1.2,0.1,1.4,0.2c0.2,0.1,0.3,0.4,0.3,1L194.1,78.3z"/>
<polygon points="200.7,76.2 199.6,79.1 199.3,80 199.2,80.5 199.1,80.6 199,80.4 198.9,80 198.5,79.1 197.4,76.2 196.2,76.2 
198.4,81.7 199.8,81.7 202,76.2 201.8,76.2"/>
<path d="M208.6,79.8h-1.2V80v0.2c0,0.3-0.1,0.5-0.3,0.6c-0.2,0.1-0.6,0.1-1.4,0.1c-0.8,0-1.2-0.1-1.4-0.3c-0.2-0.2-0.3-0.6-0.3-1.4
h4.5v-0.5c0-1-0.2-1.7-0.6-2c-0.4-0.3-1.2-0.5-2.3-0.5c-1.1,0-1.8,0.2-2.2,0.6c-0.4,0.4-0.6,1.1-0.6,2.2c0,1.1,0.2,1.9,0.6,2.3
c0.4,0.4,1.2,0.6,2.3,0.6c1,0,1.7-0.1,2.1-0.3c0.4-0.2,0.7-0.7,0.7-1.3l0-0.2L208.6,79.8z M204.2,78.3c0-0.6,0.1-0.9,0.3-1.1
c0.2-0.2,0.6-0.3,1.3-0.3c0.7,0,1.2,0.1,1.4,0.2c0.2,0.1,0.3,0.4,0.3,1l0,0.1H204.2z"/>
<polygon points="210.6,74 210.4,74 210.4,81.7 211.6,81.7 211.6,74 211.5,74"/>
<path d="M216.3,76.1c-1.2,0-1.9,0.2-2.3,0.5c-0.4,0.4-0.5,1.1-0.6,2.3c0,1.1,0.2,1.9,0.6,2.3c0.4,0.4,1.2,0.5,2.3,0.5
c1.2,0,1.9-0.2,2.3-0.5c0.4-0.4,0.5-1.1,0.6-2.3c0-1.1-0.2-1.9-0.6-2.3C218.2,76.3,217.4,76.1,216.3,76.1 M217.7,80.6
c-0.1,0.2-0.6,0.3-1.4,0.3c-0.8,0-1.3-0.1-1.4-0.3c-0.1-0.2-0.3-0.7-0.3-1.6c0-0.9,0.1-1.5,0.3-1.6c0.1-0.2,0.6-0.3,1.4-0.3
c0.8,0,1.3,0.1,1.4,0.3c0.1,0.2,0.3,0.7,0.3,1.6C218,79.8,217.8,80.4,217.7,80.6"/>
<path d="M224,76.1c-0.9,0-1.5,0.2-1.9,0.5l0-0.3l0-0.1H221v0.1v7.6h1.2v-2.7c0.4,0.3,1.1,0.5,1.9,0.5c0.9,0,1.6-0.2,2-0.6
c0.4-0.4,0.6-1.1,0.6-2.1c0-1.1-0.2-1.8-0.5-2.2C225.6,76.3,225,76.1,224,76.1 M225.1,77.4c0.2,0.2,0.3,0.8,0.3,1.6
c0,0.8-0.1,1.3-0.3,1.5c-0.2,0.2-0.6,0.3-1.3,0.3c-0.7,0-1.1-0.1-1.3-0.4c-0.2-0.2-0.3-0.7-0.3-1.5c0-0.9,0.1-1.4,0.3-1.6
c0.2-0.2,0.6-0.4,1.3-0.3C224.5,77,224.9,77.2,225.1,77.4"/>
<path d="M235.5,76.1c-1,0-1.7,0.3-2.1,0.8c-0.3-0.5-1-0.8-1.9-0.8c-0.8,0-1.5,0.2-1.9,0.6l0-0.4v-0.1h-1.2v0.1v5.3h1.2v-3.1
c0-1.1,0.5-1.5,1.7-1.6c0.9,0,1.2,0.3,1.2,0.9l0,0.2v3.5h1.2v-3.1c0-0.6,0.1-1,0.3-1.2c0.2-0.2,0.7-0.3,1.4-0.3
c0.5,0,0.9,0.1,1,0.2c0.1,0.1,0.2,0.4,0.2,0.8v3.6h1.2v-3.5c0-0.6-0.2-1.2-0.6-1.5C236.8,76.3,236.3,76.1,235.5,76.1"/>
<path d="M245.5,79.8h-1.2V80v0.2c0,0.3-0.1,0.5-0.3,0.6c-0.2,0.1-0.6,0.1-1.4,0.1c-0.8,0-1.2-0.1-1.4-0.3c-0.2-0.1-0.3-0.6-0.3-1.4
h4.5v-0.5c0-1-0.2-1.7-0.6-2c-0.4-0.3-1.2-0.5-2.3-0.5c-1.1,0-1.8,0.2-2.2,0.6c-0.4,0.4-0.6,1.1-0.6,2.2c0,1.1,0.2,1.9,0.6,2.3
c0.4,0.4,1.2,0.6,2.3,0.6c1,0,1.7-0.1,2.1-0.3c0.4-0.2,0.7-0.7,0.7-1.2l0-0.2L245.5,79.8z M241.1,78.3c0-0.6,0.1-0.9,0.3-1.1
c0.2-0.2,0.6-0.3,1.4-0.3c0.7,0,1.2,0.1,1.3,0.2c0.2,0.1,0.3,0.4,0.3,1v0.1H241.1z"/>
<path d="M250.4,76.1c-0.9,0-1.6,0.2-2,0.6l0-0.4v-0.1h-1.1v0.1v5.3h1.2v-3.2c0-0.9,0.5-1.4,1.8-1.4c0.6,0,0.9,0.1,1.1,0.2
c0.2,0.1,0.3,0.4,0.3,0.8v0.2v3.4h1.2v-3.5c0-0.8-0.2-1.3-0.5-1.6C251.9,76.3,251.3,76.1,250.4,76.1"/>
<path d="M257.5,79.5l0,0.4l0,0.3c0,0.4-0.2,0.6-0.7,0.6c-0.5,0-0.7-0.2-0.7-0.7v-3h2.4v-0.8v-0.1h-0.1H256v-1.3h-1.2v1.3h-0.7H254
V77v0.1h0.9v3v0.2c0,0.9,0.7,1.4,1.9,1.4c0.6,0,1.1-0.1,1.4-0.4c0.3-0.3,0.5-0.7,0.5-1.3l0-0.4v-0.1H257.5z"/>
<polygon fill="#DA2128" points="45,4 0,29.9 0,58.7 10.1,64.5 10.1,35.6 45,15.5 80,35.6 80,52.8 45,72.9 30.2,64.3 30.2,47.2 
45,38.7 54,43.9 35.6,54.5 45.5,60.2 74.1,43.7 45,27 20.1,41.4 20.1,70.2 45,84.5 90,58.6 90,29.9"/>
<polygon fill="#FCAF17" points="0,70.3 0,81.6 45,107.5 45,96"/>
<polygon fill="#0067AC" points="45,96 45,107.5 90,81.7 90,70.3"/>
</svg>
