<svg xmlns="http://www.w3.org/2000/svg" x="0px" y="0px" width="260px" height="110px" viewBox="0 0 260 110">
<path fill="#EF3B3A" d="M127.7,39.1c1-3,2.2-5,3.7-6.1c1.4-1.1,3.6-1.6,6.6-1.6h22.5
c2.9,0,4.8,0.5,5.5,1.6c0.7,1.1,0.5,3.1-0.5,6.1l-5.8,17.1c-1,3-2.2,5-3.7,6.1c-1,0.8-2.4,1.3-4.3,1.5l0.4,6.2h-4.5l-0.4-6h-1.5
h-4.8h-4.2h-9.8c-3,0-4.8-0.5-5.5-1.6c-0.7-1.1-0.5-3.1,0.5-6.1L127.7,39.1L127.7,39.1z M136.6,35.9c-1.3,0-2.7,1.1-3.2,2.4
L127,57.1c-0.4,1.3,0.3,2.4,1.6,2.4h18.3l-0.4-6.1l4.6,0.1l0.3,5.9c1.1-0.3,2.2-1.2,2.5-2.3l6.4-18.9c0.4-1.3-0.3-2.4-1.6-2.4
H136.6z"/>
<polygon fill="#EF3B3A" points="211.6,64 222.7,31.5 254.1,31.5 252.6,35.8 226.6,35.8 
223.5,44.9 239.4,44.9 249.5,44.9 248,49.2 237.9,49.2 222.1,49.2 218.5,59.5 244.5,59.5 243,64"/>
<path fill="#EF3B3A" d="M45.9,31.5h2.9h2.5l-8.5,24.8c-1,3-2.2,5-3.7,6.1
c-1.4,1.1-3.6,1.6-6.5,1.6H13.3c-2.9,0-4.8-0.5-5.5-1.6c-0.7-1.1-0.5-3.1,0.5-6.1l8.5-24.8h2.5h3l-8.7,25.7
c-0.4,1.3,0.3,2.4,1.6,2.4h18.9c1.3,0,2.7-1.1,3.2-2.4L45.9,31.5L45.9,31.5z"/>
<polygon fill="#EF3B3A" points="104.1,64 115.2,31.5 120.6,31.5 109.5,64 	"/>
<path fill="#EF3B3A" d="M207.3,31.5h2.9h2.5l-8.5,24.8c-1,3-2.2,5-3.7,6.1
c-1.4,1.1-3.6,1.6-6.5,1.6h-19.3c-2.9,0-4.8-0.5-5.5-1.6c-0.7-1.1-0.5-3.1,0.5-6.1l8.5-24.8h2.5h3l-8.7,25.7
c-0.4,1.3,0.3,2.4,1.6,2.4h18.9c1.3,0,2.7-1.1,3.2-2.4L207.3,31.5L207.3,31.5z"/>
<path fill="#EF3B3A" d="M59.9,71.9c-1.8,5-2.3,9.7-1.7,15.1c-12-2.3-12.1-13.1-8.8-24.5
L60.6,29c1.7-4.5,10.6-9.7,17.6-10.2c-5.5,2.7,0,35.2,0.8,42.7l15.4-44.6c1.8-5,2.3-9.7,1.7-15.1c11.9,3.4,12.5,12.2,8.8,24.5
L94.7,56.6C90.5,66.3,83.1,70.3,76,70.1c2.7-5.2-1.6-23.1-2.3-37.8L59.9,71.9z"/>
<path fill="#4D4D4E" d="M20.1,107.7l6.8-9.9h2.2l6.9,9.9h-2.3l-1.6-2.4h-8.5l-1.6,2.4
H20.1L20.1,107.7z M24.6,104h6.7l-3.4-5L24.6,104z"/>
<path fill="#4D4D4E" d="M223.9,107.7v-9.9H234c0.9,0,1.6,0.1,2,0.5
c0.4,0.3,0.6,0.8,0.6,1.5v2.2c0,0.7-0.2,1.2-0.6,1.5c-0.4,0.3-1.1,0.5-2,0.5h-1.8l5.7,3.8h-3.1l-5.1-3.8H226v3.8H223.9L223.9,107.7
z M233.2,99.1H226v3.5h7.2c0.5,0,0.9-0.1,1.1-0.2c0.2-0.2,0.3-0.4,0.3-0.8v-1.4c0-0.4-0.1-0.6-0.3-0.8
C234,99.2,233.7,99.1,233.2,99.1z"/>
<path fill="#4D4D4E" d="M203.9,107.7l6.8-9.9h2.2l6.9,9.9h-2.3l-1.6-2.4h-8.5l-1.6,2.4
H203.9L203.9,107.7z M208.4,104h6.7l-3.4-5L208.4,104z"/>
<path fill="#4D4D4E" d="M134.6,107.7v-9.9h10.1c0.9,0,1.6,0.1,2,0.5
c0.4,0.3,0.6,0.8,0.6,1.5v2.2c0,0.7-0.2,1.2-0.6,1.5c-0.4,0.3-1.1,0.5-2,0.5h-8v3.8H134.6L134.6,107.7z M143.9,99.1h-7.2v3.4h7.2
c0.5,0,0.9-0.1,1.1-0.2c0.2-0.2,0.3-0.4,0.3-0.8v-1.4c0-0.4-0.1-0.6-0.3-0.8C144.7,99.2,144.4,99.1,143.9,99.1z"/>
<path fill="#4D4D4E" d="M114.6,107.7l6.8-9.9h2.2l6.9,9.9h-2.3l-1.6-2.4h-8.5l-1.6,2.4
H114.6L114.6,107.7z M119.1,104h6.7l-3.4-5L119.1,104z"/>
<path fill="#4D4D4E" d="M67.3,97.8c1.2,0,2.1,0.1,2.9,0.2c0.8,0.1,1.4,0.3,1.9,0.6
c0.8,0.4,1.4,1,1.9,1.7c0.5,0.7,0.7,1.5,0.7,2.4c0,0.9-0.2,1.8-0.7,2.5c-0.5,0.7-1.1,1.3-1.9,1.7c-0.5,0.3-1.2,0.5-1.9,0.6
c-0.8,0.1-1.7,0.2-2.9,0.2h-6.9v-9.9H67.3L67.3,97.8z M67,99.1h-4.5v7.2H67c2,0,3.5-0.3,4.3-0.8c0.8-0.6,1.3-1.5,1.3-2.8
c0-1.3-0.4-2.2-1.3-2.7C70.4,99.4,69,99.1,67,99.1z"/>
<path fill="#4D4D4E" d="M186.6,105.1c0,0.1,0,0.1,0,0.2l-1.4,1l0,0l0,0l0,0
c-0.1,0-0.2,0.1-0.2,0.1h0h-5.8c-0.1,0-0.1-0.1-0.2-0.2v-1.8c0-0.1,0-0.1,0.1-0.2c0-0.1,0.1-0.1,0.1-0.2l0,0l2.9-1.6h0l0,0
c0.1,0,0.2,0,0.2,0l0,0l0,0L186.6,105.1L186.6,105.1z M186.5,107.1l1.4-1.1l2.6,1.7h2.6l-4-2.6l2.8-2.1h-2.1l-1.8,1.4l-6.1-3.9V99
h4.8v1v0.5h1.6v-0.2v-0.3v-0.3c0-0.8-0.2-1.3-0.6-1.6c-0.4-0.3-1.2-0.4-2.3-0.4H183c-1.1,0-1.8,0.1-2.3,0.4
c-0.4,0.3-0.7,0.7-0.7,1.4v0.6c0,0.3,0.1,0.5,0.2,0.8c0.2,0.2,0.4,0.5,0.8,0.7l-2.4,1.2c-0.6,0.3-1,0.6-1.2,0.8
c-0.2,0.2-0.3,0.6-0.3,1v0.6c0,0.9,0.2,1.5,0.6,1.8c0.4,0.3,1.2,0.5,2.3,0.5h4.1c0.6,0,1,0,1.3-0.1
C185.9,107.5,186.2,107.3,186.5,107.1z"/>
<polygon fill="#4D4D4E" points="247.2,99.1 247.2,107.7 245.1,107.7 245.1,99.1 
239.4,99.1 239.4,97.8 252.9,97.8 252.9,99.1 	"/>
<polygon fill="#4D4D4E" points="152.4,107.7 152.4,97.8 164.4,97.8 164.4,99.1 
154.5,99.1 154.5,101.9 160.6,101.9 164.4,101.9 164.4,103.2 160.6,103.2 154.5,103.2 154.5,106.3 164.4,106.3 164.4,107.7 	"/>
<path fill="#4D4D4E" d="M109.4,99.1L109.4,99.1c-0.1-0.1-0.3-0.1-0.5-0.1h-7.7
c-0.2,0-0.3,0.1-0.4,0.1h0v0c-0.1,0.1-0.2,0.2-0.2,0.3v6.4c0,0.1,0.1,0.2,0.2,0.3v0h0c0.1,0.1,0.3,0.1,0.4,0.1h7.7
c0.2,0,0.3-0.1,0.4-0.1h0v0c0.1-0.1,0.2-0.2,0.2-0.3v-1.2v-0.9h1.9v0.3v0.6v0.6c0,0.9-0.2,1.5-0.6,1.9c-0.4,0.3-1.2,0.5-2.3,0.5h-7
c-1.1,0-1.9-0.2-2.3-0.5c-0.4-0.3-0.6-0.9-0.6-1.8v-5.2c0-0.9,0.2-1.5,0.6-1.8c0.4-0.3,1.2-0.5,2.3-0.5h7c1.1,0,1.9,0.2,2.3,0.5
c0.4,0.3,0.6,0.9,0.6,1.8v0.5v0.5v0.3h-1.9v-0.8v-1.1C109.6,99.4,109.5,99.3,109.4,99.1L109.4,99.1z"/>
<path fill="#4D4D4E" d="M90.6,99.1h-8.8v2.8h7.9c1.1,0,1.9,0.2,2.3,0.5
c0.4,0.3,0.6,0.9,0.6,1.8v1.1c0,0.9-0.2,1.5-0.6,1.9c-0.4,0.3-1.2,0.5-2.3,0.5h-7.3c-1.1,0-1.9-0.2-2.3-0.5
c-0.4-0.3-0.6-0.9-0.6-1.8v-0.3v-0.4h1.9v0.6v1h9.3v-3h-7.8c-1.1,0-1.9-0.2-2.3-0.5c-0.4-0.3-0.6-0.9-0.6-1.8v-0.9
c0-0.9,0.2-1.5,0.6-1.8c0.4-0.3,1.2-0.5,2.3-0.5h6.6c1.1,0,1.9,0.2,2.3,0.5c0.4,0.3,0.6,0.9,0.6,1.7v0.2v0.4h-1.8V100V99.1z"/>
<path fill="#4D4D4E" d="M40.1,107.7v-9.9h1.3l9.3,6.6c0.2,0.2,0.4,0.3,0.7,0.5
c0.2,0.2,0.5,0.4,0.7,0.7c-0.1-0.3-0.1-0.6-0.1-1c0-0.3,0-0.8,0-1.4v-5.4h1.9v9.9h-1.2l-9.6-6.9c0,0-0.1-0.1-0.2-0.1
c-0.5-0.3-0.8-0.7-1.1-1c0,0.3,0.1,0.6,0.1,1c0,0.3,0,0.7,0,1.2v5.8H40.1z"/>
<polygon fill="#4D4D4E" points="6.2,107.7 6.2,97.8 8.3,97.8 8.3,106.3 17.8,106.3 
17.8,107.7 	"/>

</svg>
