<svg xmlns="http://www.w3.org/2000/svg" x="0px" y="0px" width="260px" height="110px" viewBox="0 0 260 110">
<path fill="#00694D" d="M197.9,56c0-10,0-20,0-30c0-0.5,0.1-0.6,0.6-0.6c17.5,0,35,0,52.6,0c0.5,0,0.6,0.1,0.6,0.6c0,4,0,8.1,0,12.1
c0,0.5-0.1,0.6-0.6,0.6c-12.5,0-25,0-37.5,0c-0.7,0-0.6-0.1-0.6,0.6c0,2.9,0,5.8,0,8.7c0,0.4,0.1,0.6,0.5,0.6c11.3,0,22.5,0,33.8,0
c0.5,0,0.6,0.1,0.6,0.6c0,4.1,0,8.2,0,12.2c0,0.5-0.1,0.6-0.6,0.6c-11.3,0-22.5,0-33.8,0c-0.5,0-0.6,0.1-0.6,0.6c0,3.2,0,6.4,0,9.5
c0,0.4,0.1,0.6,0.5,0.6c12.5,0,25.1,0,37.6,0c0.5,0,0.6,0.1,0.6,0.6c0,4.3,0,8.5,0,12.8c0,0.4-0.1,0.6-0.5,0.6
c-17.5,0-35.1,0-52.6,0c-0.4,0-0.6-0.1-0.6-0.6C198,76.1,197.9,66.1,197.9,56z"/>
<path fill="#006A4D" d="M48.6,39.3c-3.7,0-7.4,0-11,0.1c-2.9,0.1-5.7,0.4-8.4,1.6c-5.5,2.4-8.8,6.5-9.5,12.5
c-0.5,4.9,0.7,9.3,4.1,13.1c2.3,2.6,5.3,4,8.6,4.7c1.9,0.4,3.8,0.5,5.7,0.6c8,0.3,15.9,0.2,23.9,0.1c0.7,0,0.6-0.1,0.6,0.6
c0,4.5,0,9.1,0,13.6c0,0.3-0.1,0.5-0.4,0.5c-7.3,0-14.5,0.1-21.8-0.1c-4.9-0.1-9.8-0.6-14.5-2c-6.6-2-11.8-5.9-15.7-11.5
c-2.3-3.3-4-7-4.7-11c-1.8-11.3,1.2-21.1,9.8-29c2.6-2.4,5.6-4.3,8.9-5.5c3.3-1.2,6.7-1.8,10.2-2c3.7-0.2,7.5-0.1,11.2-0.1
c5.5,0,11,0,16.5,0c0.3,0,0.4,0.1,0.4,0.4c0,4.4-0.1,8.7-0.1,13.1c0,0.4-0.2,0.4-0.4,0.4C57.5,39.3,53.1,39.3,48.6,39.3z"/>
<path fill="#00694D" d="M120.4,56.8c-1-0.7-2.1-1.2-3.3-1.8c0.2-0.1,0.4-0.1,0.5-0.2c3.2-1.2,5.7-3.2,7.2-6.4
c1.2-2.6,1.5-5.3,1.5-8.1c0-2.9-0.8-5.5-2.5-7.9c-1.9-2.6-4.5-4.1-7.5-5.2c-3.7-1.3-7.5-1.8-11.4-1.8c-10.9,0-21.9,0-32.8-0.1
c-0.4,0-0.4,0.2-0.4,0.5c0,20,0,40.1,0,60.1c0,0.5,0.1,0.5,0.6,0.5c9.9,0,19.8,0,29.7,0c2.3,0,4.5,0,6.8-0.3
c3.6-0.5,7.1-1.4,10.2-3.3c6.4-3.8,8.7-10.5,7.6-16.7C125.9,62.2,123.7,59.1,120.4,56.8z M107.2,72.3c-6.7,0-13.3,0-20,0
c-0.3,0-0.4-0.1-0.4-0.4c0-3.2,0-6.3,0-9.5c0-0.4,0.1-0.4,0.5-0.4c3.4,0,6.7,0,10.1,0c3.2,0,6.5,0,9.7,0c2.8,0,5.1,2.2,5.2,5
C112.3,69.8,110,72.3,107.2,72.3z M108.5,48.6c-0.3,0.1-0.6,0.1-1,0.1c-6.8,0-13.5,0-20.3,0.1c-0.4,0-0.5-0.1-0.5-0.5
c0-3,0-6.1,0-9.1c0-0.4,0.1-0.5,0.5-0.5c3.5,0,6.9,0,10.4,0c3.3,0,6.6,0,9.9,0c2.7,0,4.8,2.1,4.9,4.8
C112.5,45.8,110.8,48,108.5,48.6z"/>
<path fill="#00694D" d="M188.5,80c0-4.5,0-9.1,0-13.6c0-2.5-0.8-4.8-2.4-6.9c-1.7-2.2-3.8-3.6-6.4-4.6c0.2-0.1,0.4-0.2,0.5-0.2
c3.6-1.6,6.2-4.1,7.5-7.8c0.9-2.5,1.1-5.2,0.8-7.8c-0.3-2.7-1.2-5.3-3-7.4c-1.9-2.3-4.4-3.7-7.2-4.7c-3.7-1.2-7.5-1.6-11.4-1.6
c-10.7,0-21.5,0-32.2,0c-0.5,0-0.5,0.1-0.5,0.6c0,20,0,40,0,60.1c0,0.4,0.1,0.5,0.5,0.5c4.6,0,9.2,0,13.8,0c0.5,0,0.6-0.1,0.6-0.6
c0-7.9,0-15.8,0-23.7c0-0.3,0-0.5,0.4-0.5c5.3,0,10.7,0,16,0c2.7,0,4.9,1.1,6.5,3.2c1.4,1.7,1.9,3.7,1.9,5.9c0,5,0,10,0,15
c0,0.4,0.1,0.5,0.5,0.5c4.5,0,9.1,0,13.6,0c0.4,0,0.5-0.1,0.5-0.4C188.5,84.1,188.5,82.1,188.5,80z M170,48.7c-2.2,0-4.3,0-6.5,0
c-4.6,0-9.2,0-13.8,0c-0.4,0-0.5-0.1-0.5-0.5c0-2.9,0-5.9,0-8.8c0-0.4,0.1-0.5,0.5-0.5c3.5,0,6.9,0,10.4,0c3.3,0,6.6,0,10,0
c2.4,0,4.3,1.5,4.8,3.8C175.5,45.7,173.1,48.6,170,48.7z"/>
</svg>
