<svg xmlns="http://www.w3.org/2000/svg" x="0px" y="0px" width="260px" height="110px" viewBox="0 0 260 110">
<path fill="#141ED1" d="M247.1,51.6c0.7-0.7,1.2-1.1,1.8-1.6c5.3-5.1,6.2-12.4,2.3-18.7c-3.4-5.4-8.8-7.6-14.7-8.4
c-10.2-1.4-20.5-0.4-30.7-0.4c-1.8,0-2.1,0.8-2,2.3c0.1,20.2,0.1,40.4,0,60.5c0,1.9,0.7,2.4,2.3,2.4c7.5,0.1,15,0.2,22.5,0.2
c5.3,0,10.6-0.5,15.6-2.4c6.8-2.5,10.9-7.3,11.7-14.5C256.7,63,254.7,56.1,247.1,51.6z M225.7,34.4c2.9,0,5.8,0,8.6,1.1
c3.1,1.2,4.6,3.3,4.4,6.2c-0.2,2.6-2,4.7-5,5.5c-0.7,0.2-1.4,0.4-2.1,0.4c-1.9,0.1-3.8,0-5.8,0c-6.9,0.1-6.9,0.1-6.9-6.6
C219,34.4,219,34.4,225.7,34.4z M232.2,74.6c-2,0.2-4,0.2-6.1,0.3c-2.2-0.3-5.4,0.8-6.7-0.8c-1.1-1.3-0.3-4.4-0.4-6.6
c0-1.2,0-2.4,0-3.6c0-4.6,0-4.7,4.8-4.7c3.1,0,6.2-0.3,9.3,0.3c4.8,1,7.4,3.7,7.2,7.5C240.1,70.9,236.7,74.1,232.2,74.6z"/>
<path fill="#141ED1" d="M158.4,56.7c0.9-2.1,1.6-3.9,2.4-5.7c4-8.8,8.1-17.6,12.1-26.4c0.7-1.5,1.5-2,3.1-2c3.7,0.1,7.3,0.1,11,0
c1.5,0,2.1,0.4,2.3,1.9c1.4,12.4,2.5,24.8,3.3,37.2c0.5,7.7,0.7,15.4,1.3,23.1c0.2,2.3-0.6,2.8-2.7,2.7c-3.4-0.2-6.8-0.1-10.2,0
c-1.7,0.1-2.2-0.5-2.2-2.2c-0.3-10.1-0.7-20.2-1.1-30.2c-0.1-2.2-0.4-4.4-0.6-6.6c-1,0.3-1,1.2-1.3,1.9c-3.8,8.9-7.6,17.8-11.3,26.7
c-0.6,1.5-1.4,2.1-3,2c-2.9-0.2-6.5,0.8-8.6-0.5c-2-1.2-2.4-4.9-3.5-7.5c-3.2-7.6-6.4-15.1-10.1-22.6c-0.2,2.4-0.5,4.7-0.6,7.1
c-0.4,9.7-0.9,19.4-1.1,29.1c-0.1,2.4-0.7,2.9-3,2.8c-3.4-0.2-6.8-0.1-10.2,0c-1.6,0.1-2-0.5-1.9-2.1c0.5-8.3,0.8-16.7,1.4-25
c0.8-11.4,1.8-22.8,3.1-34.2c0.3-2.5,0.8-4,3.8-3.7c3,0.3,6.1,0.3,9.1,0c2.3-0.2,3.2,0.8,4.1,2.6c4.6,10,9.4,19.8,13.4,30
C157.7,55.7,158,56,158.4,56.7z"/>
<path fill="#EA2D4B" d="M40.2,52.7c-0.2,1.5-0.7,3.1-1.8,4.4c-4.3,4.8-8.5,9.6-12.8,14.4c-2,2.3-4.3,2.7-6.2,1.2
c-1.9-1.5-2.2-3.6-0.7-6.1c3.3-5.7,6.6-11.4,10.1-17c1.5-2.5,4.3-3.6,6.8-2.8C38.1,47.4,40.1,50,40.2,52.7z"/>
<path fill="#EA2D4B" d="M49.1,43.3c-1,0.1-2-0.3-3-0.8c-5.7-2.5-11.4-5-17-7.5c-3-1.3-4-3.1-3.2-5.5c0.8-2.5,2.7-3.3,6-2.6
c6.2,1.4,12.5,2.7,18.7,4.1c3.4,0.8,5.5,3.8,5,6.8C55,41.3,52.5,43.4,49.1,43.3z"/>
<path fill="#EA2D4B" d="M89.2,62.5c-0.1,1.7-1,3-2.8,3.8c-6.2,2.7-12.3,5.5-18.5,8.1c-3.5,1.4-7.2-0.3-8.3-3.6
c-1.2-3.5,0.7-7.1,4.5-8.1c6.6-1.6,13.3-3.1,20-4.5C86.7,57.7,89.1,59.7,89.2,62.5z"/>
<path fill="#EA2D4B" d="M43.9,66c2.3,0.1,4.1,1.1,5.3,3.2c3.4,5.8,6.8,11.5,10.2,17.3c1.3,2.3,0.9,4.6-1.1,5.8
c-2.1,1.3-4.1,1-5.7-0.8c-4.5-5.1-9-10.1-13.4-15.3c-1.7-2-2.1-4.3-0.9-6.7C39.4,67.3,41.3,66.1,43.9,66z"/>
<path fill="#EA2D4B" d="M62.8,45.6c0.6-6.2,1.1-12.6,1.8-19.1c0.2-2.4,1.6-3.9,4-4.1c2.2-0.2,4.1,1.4,4.4,4
c0.7,6.5,1.4,12.9,1.9,19.4c0.4,4.6-2,7.4-6,7.5C64.9,53.3,62.6,50.6,62.8,45.6z"/>
<path fill="#EA2D4B" d="M62.9,98.7c0.4-5.1,0.8-10.3,1.2-15.6c0.3-3.1,2.1-5.1,4.7-5.1c2.6-0.1,4.4,1.7,4.7,5
c0.6,5.3,1,10.5,1.4,15.8c0.4,5.1-2.1,8.3-6.1,8.2C64.9,107,62.7,103.9,62.9,98.7z"/>
<path fill="#EA2D4B" d="M54.7,28.7c-3.3,0.1-5.8-3.6-4-6.8c3.1-5.5,6.4-10.9,9.8-16.1c1.9-3,5.6-3.4,8.5-1.5
c2.7,1.9,3.7,5.8,1.5,8.4c-4,5-8.3,9.8-12.4,14.6C57.2,28.3,56.1,28.5,54.7,28.7z"/>
<path fill="#EA2D4B" d="M8.4,85.3c0-2.8,1.4-5.1,4.1-5.8c6.1-1.6,12.2-3.1,18.3-4.4c2.5-0.5,4.6,0.9,5.3,3.3
c0.7,2.2-0.3,4.5-2.7,5.6c-5.5,2.4-11,4.8-16.6,7C12.5,92.7,8.4,89.8,8.4,85.3z"/>
<path fill="#EA2D4B" d="M11.9,22.7c2.9,0,4.6,1.1,5.8,3c3,5,6.1,10,9.1,15c1.5,2.6,1.1,5-1.1,6.5c-2.1,1.5-4.4,1.3-6.3-0.9
c-3.9-4.4-7.8-9-11.6-13.5c-1.7-2-2-4.2-0.9-6.6C7.9,23.9,9.9,22.7,11.9,22.7z"/>
<path fill="#EA2D4B" d="M106.4,53.9c-0.1,4.3-4.1,7.3-8.2,5.7c-5.8-2.2-11.5-4.6-17.1-7.2c-2.1-0.9-3.1-2.8-2.5-5.2
c0.6-2.5,2.4-3.9,4.8-3.5c6.5,1.1,13,2.6,19.4,4.6C105.3,49,106.4,51.2,106.4,53.9z"/>
</svg>
