<svg width="156" height="100" viewBox="0 0 156 100" fill="none" xmlns="http://www.w3.org/2000/svg">
<g clip-path="url(#clip0_2_250)">
<path d="M41.2943 94.4053H42.1399V97.9405H44.2184V98.7293H41.2954V94.4053H41.2943ZM48.9311 96.5678C48.9311 97.8035 47.9455 98.7643 46.7826 98.7643C45.6197 98.7643 44.6341 97.8035 44.6341 96.5678C44.6341 95.3321 45.6197 94.3713 46.7826 94.3713C47.9455 94.3713 48.9311 95.3321 48.9311 96.5678ZM45.4797 96.5678C45.4797 97.3916 46.0781 97.9745 46.7826 97.9745C47.4871 97.9745 48.0866 97.3905 48.0866 96.5678C48.0866 95.7451 47.4882 95.1601 46.7826 95.1601C46.077 95.1601 45.4797 95.744 45.4797 96.5678ZM49.8402 94.4053H50.5797L52.5521 97.2196V94.4053H53.3977V98.7293H52.6582L50.6858 95.9149V98.7293H49.8402V94.4053ZM57.7243 98.3184C57.6192 98.4072 57.5055 98.4828 57.3786 98.5452C57.1609 98.6548 56.8502 98.7654 56.4553 98.7654C55.2935 98.7654 54.3068 97.8046 54.3068 96.5689C54.3068 95.3332 55.2924 94.3724 56.4553 94.3724C57.4705 94.3724 58.2242 95.0932 58.4277 95.9171H57.547C57.4344 95.5402 57.0537 95.1623 56.4553 95.1623C55.7508 95.1623 55.1524 95.7462 55.1524 96.57C55.1524 97.3938 55.7508 97.9766 56.4553 97.9766C56.8994 97.9766 57.1806 97.7849 57.3501 97.5855C57.4486 97.4683 57.5263 97.3314 57.5831 97.1868H56.4214V96.4659H58.4999V98.7315H57.9015L57.7254 98.3195L57.7243 98.3184ZM61.8266 94.4053H62.5661L64.0812 97.5965L65.5963 94.4053H66.3358V98.7293H65.4902V96.3268L64.3623 98.7293H63.7989L62.6711 96.3268V98.7293H61.8255V94.4053H61.8266ZM68.6528 94.4053H69.4273L71.0824 98.7293H70.2018L69.8846 97.8364H68.1933L67.8761 98.7293H66.9954L68.6506 94.4053H68.6528ZM69.6045 97.0827L69.0411 95.5041L68.4777 97.0827H69.6056H69.6045ZM69.0411 99.1072C69.2873 99.1072 69.4995 99.3132 69.4995 99.5531C69.4995 99.793 69.2884 99.999 69.0411 99.999C68.7939 99.999 68.5828 99.793 68.5828 99.5531C68.5828 99.3132 68.7939 99.1072 69.0411 99.1072ZM75.5151 97.2196C75.3105 98.0435 74.5568 98.7643 73.5077 98.7643C72.3459 98.7643 71.3592 97.8035 71.3592 96.5678C71.3592 95.3321 72.3448 94.3713 73.5077 94.3713C74.5229 94.3713 75.2766 95.0921 75.4801 95.916H74.5995C74.4868 95.5391 74.1061 95.1612 73.5077 95.1612C72.8032 95.1612 72.2048 95.7451 72.2048 96.5689C72.2048 97.3927 72.8032 97.9755 73.5077 97.9755C74.1138 97.9755 74.4868 97.5976 74.6356 97.2207H75.5162L75.5151 97.2196ZM76.3892 94.4053H77.2348V96.1219H79.1022V94.4053H79.9478V98.7293H79.1022V96.9107H77.2348V98.7293H76.3892V94.4053ZM83.5206 96.9458H82.9572V96.26H83.5206V94.4063H84.9296C86.0925 94.4063 87.1131 95.4011 87.1131 96.5689C87.1131 97.7367 86.0914 98.7315 84.9296 98.7315H83.5206V96.9469V96.9458ZM84.9285 97.9405C85.633 97.9405 86.2675 97.316 86.2675 96.5678C86.2675 95.8196 85.633 95.1951 84.9285 95.1951H84.3651V96.2589H85.1396V96.9447H84.3651V97.9405H84.9285ZM89.0439 94.4053H89.8184L91.4736 98.7293H90.593L90.2757 97.8364H88.5845L88.2672 98.7293H87.3866L89.0417 94.4053H89.0439ZM89.0789 93.0665H89.7834L90.3818 93.9243H89.7134L89.4312 93.4784L89.149 93.9243H88.4795L89.0779 93.0665H89.0789ZM89.9957 97.0827L89.4323 95.5041L88.8689 97.0827H89.9968H89.9957ZM90.6827 92.7236H91.3872L90.8238 93.4445H90.2954L90.6827 92.7236ZM92.806 95.1951H91.502V94.4063H94.9534V95.1951H93.6505V98.7304H92.8049V95.1951H92.806ZM98.0001 94.4053H98.8457V97.9405H100.924V98.7293H98.0001V94.4053ZM103.34 94.4053H104.114L105.769 98.7293H104.889L104.571 97.8364H102.88L102.563 98.7293H101.682L103.337 94.4053H103.34ZM102.776 93.0665H103.551L104.009 93.9243H103.411L102.776 93.0665ZM104.291 97.0827L103.728 95.5041L103.165 97.0827H104.292H104.291ZM106.433 94.4053H107.173L109.145 97.2196V94.4053H109.991V98.7293H109.251L107.279 95.9149V98.7293H106.433V94.4053ZM111.147 94.4053H111.993V96.1219H113.86V94.4053H114.706V98.7293H113.86V96.9107H111.993V98.7293H111.147V94.4053Z" fill="white"/>
<path d="M129.819 96.4702L122.652 97.8374L120.82 96.4702L122.652 95.103L129.819 96.4702ZM26.1814 96.4702L33.3468 97.8363L35.1791 96.4702L33.3468 95.1041L26.1814 96.4702Z" fill="white"/>
<path d="M96.5331 15.6802C94.4918 13.339 92.1737 11.7407 91.0305 11.0253C89.5275 11.8239 87.5212 13.098 85.5116 15.0699C83.6322 16.9137 82.3698 18.7618 81.546 20.1827C83.6792 21.6354 85.6975 23.821 87.4118 25.7447C89.9782 28.6226 91.5491 31.3417 92.4494 33.2271C93.12 31.4118 94.1417 28.9973 96.0846 26.597C97.7342 24.5626 99.3653 23.1209 100.571 22.1952C99.827 20.45 98.5634 18.0114 96.532 15.6802H96.5331ZM95.7564 23.8933C94.4338 25.3229 93.3475 26.9673 92.2711 28.6226C91.106 26.8829 89.5515 25.1991 87.997 23.6993C87.4862 23.2042 87.3888 22.4472 87.7782 21.86C88.812 20.3032 90.1685 18.9054 91.7722 17.8624C93.5411 18.9196 94.9753 20.4216 95.973 22.0955C96.3132 22.6707 96.2082 23.4057 95.7564 23.8933ZM109.048 28.3915C107.091 26.0109 105.019 24.3589 103.57 23.477C102.158 24.3512 100.135 25.9956 98.232 28.3422C96.4193 30.5814 95.519 32.7746 94.9501 34.3522C96.9193 35.6372 98.7275 37.1666 100.333 38.9062C102.128 40.842 103.646 43.0177 104.855 45.3742C105.285 43.8558 106.057 41.7929 107.487 39.6304C109.22 37.0011 111.199 35.314 112.544 34.3412C111.935 32.7965 110.878 30.6143 109.047 28.3904L109.048 28.3915ZM108.393 35.4948C107.043 37.1205 105.811 38.9194 104.632 40.7675C103.189 38.6367 101.702 36.8653 99.9331 35.0445C99.4692 34.568 99.362 33.8866 99.6661 33.3081C100.6 31.5115 102.296 29.7225 103.994 28.6117C106.022 29.958 107.584 31.7196 108.597 33.7244C108.887 34.2985 108.813 34.9974 108.393 35.4959V35.4948ZM83.9352 54.5261C82.6586 53.3375 81.266 52.2847 79.7902 51.4006L78.0005 50.327L76.2108 51.4006C74.734 52.2847 73.3403 53.3375 72.0637 54.5261C69.8966 56.5441 68.423 58.7625 67.8378 59.7123C68.6976 60.4135 69.5411 61.1518 70.355 61.9012C71.6425 63.0942 72.743 64.3617 73.9147 65.6785C73.9442 65.7114 73.9836 65.73 74.0262 65.73C74.1138 65.73 74.1783 65.6599 74.1783 65.581C74.1783 65.5613 74.1739 65.5427 74.1663 65.5229C73.5635 64.078 72.6161 62.6505 71.8471 61.6021C71.5014 61.1343 71.1163 60.5285 71.1557 59.9194C71.1699 59.6838 71.2115 59.4111 71.5266 58.906C71.9609 58.2104 72.4597 57.5542 73.0187 56.956C75.4987 54.2994 77.9984 53.4953 77.9984 53.4953C77.9984 53.4953 80.4969 54.2994 82.9769 56.956C83.537 57.5542 84.0369 58.2093 84.4691 58.906C84.7841 59.4111 84.8257 59.6838 84.8399 59.9194C84.8804 60.5285 84.4942 61.1343 84.1485 61.6021C83.3784 62.6494 82.4332 64.078 81.8283 65.5229C81.7867 65.6215 81.8611 65.73 81.9683 65.73C82.0109 65.73 82.0525 65.7125 82.0799 65.6785C83.2515 64.3606 84.352 63.0931 85.6407 61.9012C86.4546 61.1507 87.2991 60.4135 88.1578 59.7123C87.5737 58.7614 86.099 56.543 83.9319 54.5261H83.9352ZM85.3508 27.5928C82.7045 24.6218 79.9423 22.7714 77.9995 21.6759C76.0555 22.7714 73.2944 24.6218 70.647 27.5928C68.2961 30.2308 66.7646 32.8404 65.8851 34.7608C66.9156 35.5057 68.469 36.6747 69.6691 37.7724C70.8046 38.8087 71.9696 39.9798 72.9717 41.2178C75.6759 44.5624 77.2403 47.288 78.0005 48.7681C78.7608 47.2891 80.323 44.5624 83.0272 41.2178C84.0293 39.9787 85.1943 38.8087 86.3298 37.7724C87.531 36.6747 89.0822 35.5057 90.1149 34.7608C89.2343 32.8404 87.7038 30.2297 85.3519 27.5928H85.3508ZM84.0599 36.7327C81.7375 38.9983 79.7891 41.3974 77.9995 44.225C76.2098 41.3974 74.2614 38.9983 71.9379 36.7327C71.0988 35.9472 70.9676 34.7696 71.5058 33.7836C72.9564 31.1226 75.2504 28.4243 78.0005 26.7372C80.7507 28.4243 83.0447 31.1226 84.4953 33.7836C85.0313 34.7685 84.9001 35.9461 84.061 36.7327H84.0599ZM70.4862 15.0699C68.4767 13.098 66.4704 11.8239 64.9673 11.0253C63.8263 11.7407 61.506 13.339 59.4658 15.6802C57.4344 18.0114 56.1687 20.45 55.4259 22.1952C56.6325 23.1209 58.2625 24.5626 59.9121 26.597C61.8561 28.9962 62.8789 31.4118 63.5495 33.2271C64.4487 31.3428 66.0207 28.6226 68.586 25.7447C70.3014 23.821 72.3197 21.6365 74.4518 20.1827C73.6291 18.7618 72.3667 16.9126 70.4862 15.0699ZM68.0008 23.6993C66.4463 25.1991 64.8918 26.884 63.7267 28.6226C62.6514 26.9662 61.564 25.3218 60.2414 23.8933C59.7896 23.4057 59.6846 22.6718 60.0259 22.0955C61.0225 20.4216 62.4578 18.9196 64.2267 17.8624C65.8293 18.9054 67.1847 20.3032 68.2207 21.86C68.609 22.4472 68.5127 23.2042 68.0008 23.6993ZM83.2602 4.27033C81.4333 2.24581 79.5178 0.910376 77.9995 0C76.48 0.910376 74.5656 2.24581 72.7387 4.27033C70.7816 6.43836 69.4317 8.66007 68.6965 10.1697C70.1504 11.2039 71.8482 12.5941 73.5569 14.4269C75.5851 16.6026 77.0116 18.7443 77.9995 20.4862C78.9862 18.7443 80.4116 16.6015 82.4409 14.4269C84.1485 12.5952 85.8474 11.2039 87.3013 10.1697C86.5661 8.66007 85.2173 6.43946 83.2613 4.27033H83.2602ZM81.3272 13.235C80.0506 14.4773 78.9818 15.7963 77.9995 17.3475C77.016 15.7963 75.9472 14.4773 74.6717 13.235C74.21 12.8022 74.1378 12.157 74.4321 11.6158C75.2296 10.1544 76.4865 8.67212 77.9984 7.74531C79.5091 8.67212 80.766 10.1544 81.5635 11.6158C81.8578 12.157 81.7856 12.8022 81.3261 13.235H81.3272ZM57.7669 28.3433C55.8645 25.9966 53.8397 24.3523 52.4274 23.4781C50.979 24.3599 48.906 26.012 46.95 28.3925C45.1209 30.6165 44.062 32.7987 43.4537 34.3434C44.7982 35.3162 46.7771 37.0033 48.5099 39.6326C49.9397 41.7951 50.7121 43.8591 51.1442 45.3764C52.3519 43.0199 53.8703 40.8442 55.6644 38.9084C57.2703 37.1687 59.0786 35.6394 61.0477 34.3544C60.4788 32.7768 59.5785 30.5836 57.7669 28.3443V28.3433ZM56.0658 35.0434C54.2958 36.8642 52.8092 38.6356 51.3662 40.7664C50.1859 38.9194 48.9552 37.1205 47.6053 35.4937C47.1863 34.9952 47.1108 34.2963 47.4007 33.7222C48.4137 31.7174 49.9747 29.9559 52.004 28.6095C53.704 29.7203 55.3974 31.5104 56.3317 33.3059C56.6358 33.8844 56.5297 34.5669 56.0658 35.0423V35.0434ZM74.7307 48.9237C73.0833 49.9118 71.5277 51.0851 70.1034 52.4118C67.4057 54.9249 65.6926 57.667 65.185 58.5314C65.1423 58.6048 65.0285 58.5719 65.0307 58.4875C65.0614 57.0414 65.3239 55.7728 66.4649 53.5281C67.1267 52.2288 68.1255 51.0972 69.2063 49.9852C69.8561 49.3137 69.983 48.3277 69.5225 47.5291C67.013 43.1788 63.2432 41.2868 63.2432 41.2857C63.2432 41.2868 61.2128 42.6354 59.5621 44.4605C58.9385 45.1474 58.4233 45.8332 58.0142 46.4259C57.4737 47.2059 57.3786 47.9191 57.8457 48.7593C57.9551 48.9554 59.3116 50.9372 59.8935 52.1686C60.2141 52.8434 60.4668 53.4799 60.6429 54.1164C60.6659 54.2041 60.5532 54.2588 60.4963 54.1887C59.0665 52.3702 57.6116 50.7455 56.1632 49.3509C55.3351 48.5534 54.4555 47.7668 53.5443 47.0098C54.6568 44.7662 56.0801 42.7022 57.7746 40.8716C59.3794 39.1374 61.2052 37.6321 63.206 36.3975C63.206 36.3975 65.9573 38.2895 67.7284 39.9086C68.7731 40.8617 69.8244 41.9594 70.7696 43.0813C72.2715 44.8691 73.604 46.8345 74.7296 48.9248L74.7307 48.9237ZM102.454 47.0076C101.541 47.7646 100.662 48.5523 99.8346 49.3487C98.3851 50.7433 96.9302 52.368 95.4993 54.1865C95.4435 54.2566 95.3297 54.2019 95.3538 54.1142C95.5288 53.4777 95.7826 52.8412 96.101 52.1664C96.684 50.935 98.0405 48.9532 98.1499 48.7571C98.6171 47.9169 98.5208 47.2048 97.9815 46.4237C97.5712 45.831 97.056 45.1452 96.4335 44.4583C94.7806 42.6332 92.7524 41.2857 92.7524 41.2835C92.7524 41.2846 88.9816 43.1766 86.4721 47.5269C86.0115 48.3255 86.1395 49.3115 86.7882 49.983C87.869 51.0939 88.8689 52.2266 89.5296 53.5259C90.6728 55.7706 90.9332 57.0393 90.9638 58.4853C90.9649 58.5697 90.8533 58.6026 90.8096 58.5292C90.3042 57.6659 88.5899 54.9227 85.8912 52.4096C84.4669 51.0829 82.9102 49.9085 81.2638 48.9215C82.3895 46.8301 83.7219 44.8659 85.225 43.078C86.1701 41.9562 87.2214 40.8585 88.265 39.9054C90.0361 38.2862 92.7896 36.3942 92.7896 36.3942C94.7893 37.6289 96.6162 39.1341 98.2199 40.8683C99.9156 42.6989 101.338 44.764 102.451 47.0065L102.454 47.0076Z" fill="white"/>
<path d="M0.497745 83.2023V69.6726C0.497745 67.647 0 66.2097 0 66.2097H8.96817C14.3023 66.2097 18.6102 68.9387 18.6102 76.4528C18.6102 83.967 14.3023 86.6959 8.96817 86.6959H0C0 86.6959 0.497745 85.2575 0.497745 83.2034V83.2023ZM14.6239 76.4528C14.6239 69.7318 11.4295 67.2669 7.50228 67.2669H4.51253V85.6103L7.50228 85.6398C11.4295 85.6398 14.6239 83.1749 14.6239 76.4539V76.4528Z" fill="white"/>
<path d="M43.5697 84.1511L42.8444 82.4202H36.6964C35.6714 85.6476 36.7183 86.6949 36.7183 86.6949H33.9648L40.2835 71.7739H41.4792L47.7978 86.6949H44.2753C44.2753 86.6949 44.2107 85.6476 43.5708 84.1511H43.5697ZM42.502 81.65L39.7267 75.0879L36.9513 81.65H42.5009H42.502Z" fill="white"/>
<path d="M47.754 79.2356C47.754 73.6561 50.8915 71.625 54.7772 71.625C56.592 71.625 59.0895 72.0742 60.3486 73.0996V76.3062C60.3486 76.3062 58.5338 72.416 54.7772 72.416C52.5149 72.416 50.6574 74.2334 50.6574 79.2356C50.6574 83.7677 53.902 86.7169 57.4453 85.5414V79.2991C55.3318 79.4273 53.9228 80.0254 53.9228 80.0254V78.5081H60.7326C60.7326 78.5081 60.3486 79.5555 60.3486 81.0519V84.4721C58.7482 86.5668 56.208 86.845 54.7772 86.845C50.8926 86.845 47.754 84.8139 47.754 79.2356Z" fill="white"/>
<path d="M62.1624 79.2356C62.1624 73.6561 65.2998 71.625 69.1855 71.625C73.0712 71.625 76.2087 73.6561 76.2087 79.2356C76.2087 84.815 73.0712 86.845 69.1855 86.845C65.2998 86.845 62.1624 84.8139 62.1624 79.2356ZM73.3053 79.2356C73.3053 74.2334 71.4697 72.416 69.1855 72.416C66.9014 72.416 65.0657 74.2334 65.0657 79.2356C65.0657 84.2377 66.9232 86.0552 69.1855 86.0552C71.4478 86.0552 73.3053 84.2377 73.3053 79.2356Z" fill="white"/>
<path d="M77.7664 71.7751H81.8009L90.1258 82.5704V77.1618C90.1258 73.9771 88.3963 71.7751 88.3963 71.7751H90.8938V86.6961H89.6128L78.9184 72.7797V78.6364C78.9184 83.3822 80.9892 86.695 80.9892 86.695H78.1285V74.297C78.1285 72.8225 77.7654 71.7751 77.7654 71.7751H77.7664Z" fill="white"/>
<path d="M98.7866 83.2023V69.6726C98.7866 67.6186 98.2889 66.2097 98.2889 66.2097H112.825V70.0254C112.825 70.0254 111.389 67.2669 105.381 67.2669H102.801V75.0736H109.043V77.1572C109.043 77.1572 106.699 76.1592 103.329 76.1592H102.801V85.6092H106.259C112.267 85.6092 113.704 82.8802 113.704 82.8802V86.6959H98.2878C98.2878 86.6959 98.7855 85.2575 98.7855 83.2034L98.7866 83.2023Z" fill="white"/>
<path d="M115.634 84.151V74.2968C115.634 72.8222 115.271 71.7749 115.271 71.7749H121.803C125.688 71.7749 128.826 73.7633 128.826 79.2354C128.826 84.7075 125.689 86.6959 121.803 86.6959H115.271C115.271 86.6959 115.634 85.6486 115.634 84.1521V84.151ZM125.923 79.2354C125.923 74.3406 123.596 72.5451 120.736 72.5451H118.559V85.9049L120.736 85.9268C123.596 85.9268 125.923 84.1313 125.923 79.2365V79.2354Z" fill="url(#paint0_linear_2_250)"/>
<path d="M130.747 84.151V74.2968C130.747 72.8003 130.384 71.7749 130.384 71.7749H140.971V74.5542C140.971 74.5542 139.926 72.5451 135.55 72.5451H133.671V78.2308H138.218V79.7481C138.218 79.7481 136.51 79.0218 134.055 79.0218H133.671V85.9049H136.19C140.566 85.9049 141.611 83.9165 141.611 83.9165V86.6959H130.383C130.383 86.6959 130.746 85.6486 130.746 84.1521L130.747 84.151Z" fill="white"/>
<path d="M142.872 71.7749H146.906L155.231 82.5701V77.1616C155.231 73.9769 153.501 71.7749 153.501 71.7749H155.999V86.6959H154.718L144.023 72.7795V78.6361C144.023 83.3819 146.094 86.6948 146.094 86.6948H143.234V74.2968C143.234 72.8222 142.87 71.7749 142.87 71.7749H142.872Z" fill="white"/>
<path d="M33.4179 85.903C31.4619 85.8328 30.4248 81.1878 26.7601 79.2783H27.294C29.5989 79.2783 31.4772 78.2946 31.4772 75.5372C31.4772 72.7797 29.5989 71.7751 27.294 71.7751H20.122C20.122 71.7751 20.4852 72.8225 20.4852 74.297V84.1512C20.4852 85.6477 20.122 86.695 20.122 86.695H23.7725C23.7725 86.695 23.4094 85.6477 23.4094 84.1512V79.2773C26.2 79.2773 25.7318 86.4452 33.0777 86.6884L33.419 85.903H33.4179ZM23.4083 78.5082V72.5442H26.4396C27.6134 72.5442 28.5739 73.3352 28.5739 75.5372C28.5739 77.7392 27.6134 78.5082 26.4396 78.5082H23.4083Z" fill="white"/>
</g>
<defs>
<linearGradient id="paint0_linear_2_250" x1="115.271" y1="79.2354" x2="128.825" y2="79.2354" gradientUnits="userSpaceOnUse">
<stop stop-color="white"/>
<stop offset="1" stop-color="white"/>
</linearGradient>
<clipPath id="clip0_2_250">
<rect width="156" height="100" fill="white"/>
</clipPath>
</defs>
</svg>
