<svg xmlns="http://www.w3.org/2000/svg" x="0px" y="0px"	 width="2000px" height="1125px" viewBox="0 0 2000 1125">
<rect fill="#467084" width="2000" height="1125"/>
<path opacity="0.1" fill="#26566A" d="M2000,0h-814.02c1.02,5.06,2.98,10.35,5.99,15.82c10.83,19.74,25.1,31.55,36.73,45.72
c14.33,17.47,27.65,35.3,34.05,56.67c16.89,56.33-15.65,83.82,28.02,156.57c43.52,72.48,139.11,113.17,247.57,191.17
c118.33,85.11,152.14,134.38,105.43,207.24c-60.15,93.83-194.88,147.06-160.19,316.18c10.42,50.8,24.93,77.83,41.26,135.63H2000V0z"/>
<path opacity="0.2" fill="#26566A" d="M2000,0h-738.81c-1.39,13.76,0.26,27.67,10.83,49.57c13.8,28.6,17.25,31.21,24.74,47.59
c25.37,55.48-2.59,83.98,13.77,138.5c27.19,90.59,125.15,121.03,246.96,211.3c20.22,14.98,83.65,64.26,99.71,77.3
c42.17,34.26,81.31,71.32,65.2,122.02c-15.58,49.03-76,93.23-127.15,140.45c-38.12,35.19-63.58,62.5-81.09,111.71
c-17.26,48.5-14.07,77.49-0.13,127.26c7.65,27.3,20.29,63.92,29.62,99.32H2000V0z"/>
<path opacity="0.3" fill="#26566A" d="M2000,0h-702.07c0.69,7.11,3.74,15.32,10.44,25.24c14.35,21.22,33.71,34.18,53.21,57.18
c17.68,20.85,28.27,45.63,19.63,71.68c-7.65,23.07-46.87,65.73,11.97,133.11c25.62,29.34,86.52,64.23,172.07,130.19
c29.02,22.38,46.9,36.8,70.47,54.74c59.45,45.24,84.9,62.57,99.66,75.97c18.55,16.84,31.16,33.58,38.39,50.38
c7.23,16.8,11.67,35.21,6.15,50.63c-6.87,19.19-22.37,32.09-36.67,48.25c-61.96,70.02-119.57,96.46-157.73,136.45
c-81.08,84.98-56.74,156.68-18.79,291.19H2000V0z"/>
<path opacity="0.4" fill="#26566A" d="M2000,0h-671.18c4.35,28.36,38.1,47.34,76.06,85.89c18.34,18.63,31.79,41.31,37.72,67.16
c25,109.07,26.06,116.78,106.85,197.12c66.31,65.93,103.5,102.84,182.33,154.08c22.23,14.45,42.49,27.87,64.17,45.46
c17.11,13.88,34.57,25.15,42.95,43.65c18.04,39.84-28.62,87.23-61.3,117.38c-89.54,82.62-146.64,100.85-185.51,158.17
c-18.63,27.47-28.38,60.05-30.07,93.46c-1.85,36.7,6.79,66.01,18.12,105.23c6.13,21.23,11.42,40.39,16.56,57.4H2000V0z"/>
<path opacity="0.5" fill="#26566A" d="M2000,0h-638.43c13.37,27.68,48.8,47,80.72,78.61c35.84,35.49,39.74,63.47,73.88,108.76
c24.12,32,18.92,21.22,85.49,113.8c43.65,60.7,52.39,77.39,77.63,104.93c51.46,56.13,100.81,77.14,146.66,109.77
c24.96,17.76,58.15,44.74,72.21,71.76c7.75,14.89,8.59,31.04,3.94,48.49c-13.89,52.15-50.45,75.91-97.13,104.36
c-59.42,36.22-166.46,94.98-198.35,149.95c-20.88,36-19.14,85.54-8.84,126.15c8.18,32.28,21.96,77.36,40.67,108.42H2000V0z"/>
<path opacity="0.6" fill="#26566A" d="M2000,0h-574.04c7.88,7.99,16.77,15.32,25.6,22.55c69.97,57.3,69.35,66.32,118.4,135.26
c19.27,27.09,25.79,35.02,49.23,69.77c45.94,68.13,76.77,125.51,137.89,174.61c25.86,20.78,83.67,57.6,108.18,72.63
c85.53,52.45,95.89,71.2,107.58,106.81c8,24.36,3.78,62.96-17.91,91.14c-14.97,19.45-57.77,58.87-101.58,80.22
c-52.99,25.82-91.21,35.27-141.38,72.31c-46.91,34.63-64.36,70.3-68.06,107.41c-3.65,36.6,3.73,75.66,17.63,108.47
c7.06,16.66,16.4,29.75,27.5,41.68c20.74,22.28,35.67,33.01,50.63,42.15H2000V0z"/>
</svg>
