<svg xmlns="http://www.w3.org/2000/svg" xmlns:xlink="http://www.w3.org/1999/xlink" width="2000" height="1300" viewBox="0 0 2000 1300">
<defs>
<radialGradient id="radial-gradient" cx="1049" cy="59.23" r="490" gradientTransform="matrix(1, 0, 0, -1, 0, 601.59)" gradientUnits="userSpaceOnUse">
<stop offset="0" stop-color="#004c43"/>
<stop offset="1" stop-color="#004c43" stop-opacity="0"/>
</radialGradient>
<radialGradient id="radial-gradient-2" cx="1020.82" cy="-639.26" r="931.7" gradientTransform="translate(0 1101.17) scale(1 0.67)" gradientUnits="userSpaceOnUse">
<stop offset="0.9" stop-color="#8ac1ce"/>
<stop offset="1" stop-color="#8ac1ce" stop-opacity="0"/>
</radialGradient>
<radialGradient id="radial-gradient-3" cx="1051.85" cy="801.67" r="912.59" gradientTransform="matrix(1, 0, 0, -0.72, 0, 1308.12)" gradientUnits="userSpaceOnUse">
<stop offset="0.9" stop-color="#426c8f"/>
<stop offset="1" stop-color="#426c8f" stop-opacity="0"/>
</radialGradient>
<radialGradient id="radial-gradient-4" cx="995.71" cy="793.34" r="637.89" gradientTransform="matrix(1, 0, 0, -0.81, 0, 1291.67)" gradientUnits="userSpaceOnUse">
<stop offset="0.7" stop-color="#668d6d"/>
<stop offset="1" stop-color="#668d6d" stop-opacity="0"/>
</radialGradient>
</defs>
<!--<g id="Layer_2" data-name="Layer 2">
<g id="Layer_1" data-name="Layer 1">
<rect width="2000" height="1300" fill="#6aa29e"/>
</g>
</g>-->
<g id="Layer_1-2" data-name="Layer 1">
<circle cx="1049" cy="542.36" r="490" fill="url(#radial-gradient)"/>
<path d="M1441.94,921.26c9.11.73,13.4-.09,18.18,1.4C1453.92,921.67,1448.25,922.49,1441.94,921.26Zm75,25.51a31.9,31.9,0,0,1-9.1,5.78c3.27.38,6.35-2.09,9.16-5.78ZM1382,895.59l7.75,3.6A78.91,78.91,0,0,0,1382,895.59Zm105.18,49.55c-1.18.09-2.3.14-3.36.17a80.94,80.94,0,0,1,8.52.75,50.14,50.14,0,0,0-5.15-.95Zm54.52-341c-4.27-7.43,1.57-23.76-7-35.43s-3.88-21.42-2.72-41.67-13.23-22.24-20.64-26.48-1.16-7.76-14.41-13.24-14.41-12.5-20.25-23-13.6-37-18.3-40.5-20.29-26.9-25.7-32.71-7.79-15.19-14.41-21.81-19.73-8.6-24.92-12.07c-12.69-8.47-49.66-28.1-42.22-53.46-13,31.93,45.44,55.19,66.5,67.33,6.62,6.62,9,16,14.41,21.81s21,29.21,25.7,32.71,12.46,30,18.3,40.5,7,17.52,20.25,23,7,9,14.41,13.24,21.81,6.23,20.64,26.48-5.84,30,2.72,41.67,2.73,28,7,35.43c3,5.14,5,11.79,3.76,16.94,2.36-5.35.18-13-3.11-18.78ZM1460.11,922.7c-6.23-1-11.86-.16-18.18-1.4-18.54-.64-33.38-7.44-43.86-16.59a43.2,43.2,0,0,0-8.32-5.51,174.1,174.1,0,0,0-17.12-7.28c-4.78-1.79-7.51-3.29-9.16-5.32,1.42,2.6,4.11,4.3,9.79,6.33,10.48,3.9,18.35,6.53,24.23,11.68,17.48,17.6,39,18.92,60.23,19.44,2.65.51,4.51,1.41,5.89,4.21-.71-3.4-1.61-4.84-3.49-5.6Zm97.48,69c-13.61,12.74-25.48,11.83-36.72,2.37s.75-40.42,2.57-52c-.84-.7-3.08,1.85-6.49,4.77-2.77,3.69-5.85,6.16-9.1,5.78-2.08.75-4.19.84-5.79-.78a19,19,0,0,0-9.72-5.74c-10-1.57-21.14.83-25.84-5.91,1.7,5,7.14,7.93,20.43,6.86,6.54,1,6.83,1.06,19.49,8.9.13.08,14.77-7.62,14.76-7.52-.37,3.83-11.75,38.35-.94,47.5,11.35,9.89,23.73,9.85,37.17-2.58,3.43-1.53,9.35-.08,8.16,5.42,3.23-7.4-4.28-9.18-8-7.18ZM1349.26,875.41c-5.44,8.85-10.58,2.5-30.87-15.15-21.33-17.93-34-17.5-41.91-19.26a13.22,13.22,0,0,1-5.43-2.53c9,10.87,22.11-.88,46.72,21.64,20.29,17.64,25.4,26,30.84,17.14,2.77-4.86,6.92-11.78,10.34-7.14C1355.72,862.73,1352.27,870.13,1349.26,875.41ZM1594.49,1115c-10.58-17.28-9.34-29.81-7.34-41.69s-5.13-16-33-26.36c-13.3-5-17.35-10.24-16-16.16-7.42,22,54.52,20.1,48.32,44.4-7.46,36.41,16.76,38.66,6.38,57.29C1596.55,1127,1598.13,1121.09,1594.49,1115Zm4.07-267.87c-7.4-10.91-28.43-68.92-33.1-85.67s3.89-13.63-3.11-22.2c-8.18-4.28-8.57-30.76-15.67-49.45-5.55-12.1-3.41-19.86-.83-33.1,2.5-9.86-1.19-14.19-3.91-28.72a3.53,3.53,0,0,0-.47,2.65c2.69,13.86,6.19,18.2,3.74,27.85-2.61,13.27-4.68,21.18.87,33.23,6.92,18.3,7.45,44,15.13,49,7.86,8.06-1.1,5.74,3.62,22.49s25.7,74.76,33.09,85.67c6.18,9.09,14.43,23.24,11.92,33C1614,872.19,1605.12,856.8,1598.56,847.13Zm-236,29.14c1,6.77,2.42,10,4.34,11.66-1.37-2-2.44-5-3.29-10.38-2.09-8.29-4.27-11.74-6.37-12.31,1.83,1.1,3.67,4.37,5.33,11Zm-96.44-49.72c-.91-3.91.16-7.07-1.12-11.47.67,3.73-.12,8.09,1.13,11.47Zm317.08,351.36c-1.61-5.19-3.1-9.35-5-2.93,1.56-3.45,2.88.3,4.29,4.85,1.61,5.21,17.94,21.3,28.75,25.91.22-.64.43-1.29.64-1.93-10.76-4.63-27.06-20.69-28.67-25.9Zm-12.34-21.49c-1.64,4.21-1.54,15.35-3.61,22.12,2.52-5.7,2.55-16.73,3.8-22.29Zm19-237.81c4.41-4.66,7.64-4.4,11.5-4.23-29.16,71.86,21.3,126.62,30.2,200.13,1.09-17.41-.43-32.91-5.89-44.62-51.41-110.26-28.56-136.37-20.48-157.37-5.39.21-9.08-1.65-14.62,4.21-7.56,8-16.63,23.33-33,14.9-19.73-12.09-21.13-7.08-24.57,1.69,11.11-24.79,27.56,27.36,56.88-14.71Zm-6.94,241c3-12.28,17.84-17.72,21.18-29.53-1.95,5-5.95,9.29-10.54,13.88-8.07,6.65-10.56,10.81-10.62,15.65ZM1356.7,220.45a21,21,0,0,1-3-.88c17.33,19.48,35.83,39.25,34,49.11C1392.35,260,1374.44,240.31,1356.7,220.45Zm152.45,954.37a19.51,19.51,0,0,0-1.44,7.27c-.27,4,5.43,5,6.91,1.86h-6.11a25.52,25.52,0,0,1,.64-9.13Zm38.46,8.25c-5-4.36-9.5-8-21.38-13-6-2.5-8.62,1-9.77,5.17,1.4-3.18,4.07-5.34,9.09-3.25,11.88,5,16.42,8.64,21.39,13,4.71,4.14,24.77,13.82,29-1-5.37,12.09-23.84,3.08-28.33-.87Zm3.81-156.67c9.49-7.09,17.46-17.92,20.28-26.72-3.28,8.42-10.78,18.24-19.6,24.83-3.72,2.76-5.51,5.13-5.85,7.22a17.76,17.76,0,0,1,5.17-5.33Zm-.79-484.62c2.67-10.78,7.87-22.61,15.54-36-.63.73-1.27,1.47-2,2.19C1556.93,520.72,1552.66,531.9,1550.63,541.78Zm50.63-155.67c-19.1,27.3-23.36,47.5-23.46,75,1.91-29,9.2-54,28.39-76.52,2.46-2.95,3.19-12,1.66-22.06.52,10.62-2.21,20.06-6.59,23.58ZM1258.12,797.87c.61,1.1,1.55,2.75,2.57,4.79A35,35,0,0,0,1258.12,797.87Zm106.4-747.51a5.23,5.23,0,0,0,1.55,3.6h57.56ZM1465,926.16a18.51,18.51,0,0,0,2,8.12C1466.33,932.08,1465.77,929.44,1465,926.16ZM1360.51,306.07c6.21-12.36,35.3-19.14,41.58-37.21C1394.16,286.4,1364.43,292.94,1360.51,306.07ZM1351,152.82a35.86,35.86,0,0,0-8.17,12.85,35.78,35.78,0,0,1,7.43-11c14.69-17.28,97.24-53.69,105.43-85.3C1440.91,102.59,1370,133.51,1351,152.82Zm-25,20.77a12.92,12.92,0,0,1,.36-1.49c-4.31,10,5.39,21.33,17.39,36.18l4,2c-12.75-14.69-23.17-28.49-21.75-36.69ZM1411.51,60c12.54,1.42,21.52,5.13,17,16.48,7.11-13.44-2.81-16.24-17-16.51ZM887.42,913.71c22.06,11.66,27,38.08,28.63,60.9,6.25,55.77-21.83,73.47-71.88,50.78a8.94,8.94,0,0,0-2.77-.31c-29.62,4.5-51.39,36.52-55.53,64.57-3,19.4,1.17,39.35,8.78,57.23,5.28,12.39,12.69,23.21,19.85,34.53,6.88,11.45,6.72,27.62,5,40.45,6.08-14.06,7.47-27.84-1-38.45-18.38-26.69-33.88-58.47-28.63-91.76,4.21-28.75,28.4-63.84,58.3-64.26,17.3,7.18,39.35,15.41,56.75,4.29,17.17-11.75,16.89-36.6,15.13-55.07C919.33,952.69,910.67,922.71,887.42,913.71ZM557.7,375.59c13.83,21.93,24.39,46.51,27.88,72.33,1.71,12.63.47,24.93-.23,37.57-.85,14.57-1.1,29.17-1.85,43.75-1.44,28-4.94,55.45-15.68,81.56-9.46,23-16.9,47.06-17.9,72.06-.78,20.75,2.8,41.19,6.91,61.44,2.84,14,5,28.25,9,42,6.95,24.36,24.62,43.59,43.61,59.57,5.45,4.62,11.06,9,16.77,13.35,3.59,2.71,7,5.27,11,6.91-17.09-11.76-33.32-25.32-47-41-20-21.58-24.31-51-29.41-78.82-25.39-93.79,25.06-128.59,26.67-215.06.21-27.13,4.34-54.25,2.08-81.32-8-43.24-30-90.59-66.71-116.88C537.29,344.16,548.31,360.67,557.7,375.59Zm113.48,508c-1.55-1-6.27-1-8.55-1-7.46-.2-15.48-.33-22.49-2.75a63.92,63.92,0,0,0,14.65,4.2c5.33.81,11.93,0,17.42.89a3.4,3.4,0,0,0-1-1.34ZM427.73,318.94a182.43,182.43,0,0,1-24.46-11.52,167.37,167.37,0,0,0,28.46,13.52c26,11.18,57.94,6.19,82.58,19.72-6.64-4.55-14.58-7-22.41-8.72C470.43,327.21,448.45,326.94,427.73,318.94Zm-9.62-16.59C343.94,266.41,318,176.89,304.27,95.84c-2.54-15-7.11-22.21-5.3-11,13.61,84.63,36.61,178.22,119.14,217.46ZM685.3,883.59c4.47,9.07,4.54,20.92-.62,29.67-4.89,8.3-13.91,13.4-22.26,17.58-9.11,4.55-17.53,9-28,7.6-9.74-1.35-18.74-5.49-27.74-9.29-7-3-18.81-9.58-26.7-6.84-5,1.74-5.53,8.83-5.65,13.31-.52,18.54,5.49,37.53,11.09,55,9.28,31.07,24.74,54.64,56,66.83-24.78-10.83-44.57-33.7-52-64.83-4.12-14.93-20.07-57.45-5.44-68.31,7.89-2.74,19.72,3.88,26.7,6.84,9,3.8,18,7.94,27.74,9.29,10.47,1.45,18.89-3.05,28-7.6,19.35-7.74,33.12-26.64,22.88-47.25a22.57,22.57,0,0,0-12.5-11.8A23.39,23.39,0,0,1,685.3,883.59ZM859.48,926.2c-33.5,14.11-43.79,46.62-63,73.92-37.61,51.19-107.33,101-170.44,63,77.31,49.66,164.28-30.34,201.39-104.26,18.27-25.05,43.51-39.8,60.17-31.4-7.79-6.77-19.37-4.93-28.12-1.28Z" opacity="0.1" style="isolation: isolate"/>
<path d="M1642.3,1038.46c-41.78-57.87-17.3-131.73-15.92-140.87.1-.6,2.48-30.35,2.48-30.35l-4.77-49.14s-5.53-17.65-14.87-27.69c-6.76-7.27-14.43-19.07-14.87-34.09a49.73,49.73,0,0,1,3.1-18.51c9.1-25.1,20.25-47.31,9-81.69-11.42-34.27-12.46-.69-31.84-50.18-14.21-14.45-30.42-32.75-24-64.13,2-9.88,6.3-21.06,13.59-33.82.68-.72,1.32-1.46,2-2.19a75.44,75.44,0,0,0,11-17.86c.44-1.1,1.11-2.55,1.21-2.8-.37-8.71-.64-16.61-.61-24,.1-27.51,4.36-47.71,23.46-75,4.38-3.5,7.11-13,6.59-23.57-.66-13.61-6.69-29.1-21.48-36.3-20.07-3.12-39.11,1.73-42.22,2.77-25.27,10.38-28.38,34.26-40.15,47.76-14,14.27-46.31,32.25-51.43,13.2-3.09-11.47-9.58-21.75-19.27-28.62-11.13-7.9-11.26-10.33-25.47-15.93-38.93-15.37-34.92-15.92-43-25.77-23.86-29.47,53.46-30.21,37.09-70.38-10.11-26.73-23.58-32.46-36.57-36.83a36.24,36.24,0,0,1-22.85-45.87c.1-.3.2-.6.31-.9a35.86,35.86,0,0,1,8.17-12.85c18.48-20.72,111.5-57.64,107.13-98.86h-95c6.56,16.45,81.8-8.16,65.47,22.44-13.31,27.73-93.14,65.63-102.54,97.16-1.46,8.23,9,22,21.73,36.66-9.43-5-28.07-11.83-30.87-22.92-2.35-14.07,2.94-28.28,2.84-42.41.26-31.61-24.06-60.08-14.86-92.1.55-2.37-6.57-1.27-7.1,1a73.48,73.48,0,0,0,.49,35.79c4.82,17.35,12.86,34,14.14,52.15,1.17,15.18-4.52,30.16-3.06,45.3,1.48,11.35,13.71,16.81,22.72,21.59,7,3.54,14.1,6.85,20.93,10.72a25,25,0,0,0,3.7,1.11c17.46,20.12,40.51,43.15,28.18,50.93-21,11.45-30.81,22.35-33.74,32.35-7.44,25.36,29.53,45,42.22,53.46,5.19,3.47,18.3,5.45,24.92,12.07s9,16,14.41,21.81,21,29.21,25.7,32.71,12.46,30,18.3,40.5,7,17.52,20.25,23,7,9,14.41,13.24,21.8,6.23,20.64,26.48-5.85,30,2.72,41.67,2.73,28,7,35.43c4,7.31,6.88,17.27,0,22.59,2.43,14.31,6.78,20.25,4.14,30-2.58,13.24-4.72,21,.83,33.1,7.1,18.69,7.49,45.17,15.67,49.45,7,8.57-1.56,5.45,3.11,22.2s25.7,74.76,33.1,85.67c6.56,9.67,15.48,25.06,11.28,34.8a11.66,11.66,0,0,1-2.28,3.44c-6.22,17.19-7,18.65-17.93,22.68-12.07,8-9.51,16.83-20.85,14.27-10.61-4-12.81-2.2-18.66-2.56-16.46-4.39-18.29-3.66-20.85,1.46-2.93,6.22-16.34,37.66-28.78,24.49-11.71-5.13-23.74-.56-27.32-3.84-5.61-4.29-9.23-11.55-8-18.78-1.49-3.58-19.08-2.69-20-2.69-11.33-3.28-21.47-4.17-25.94-5.66-11.63-6-15.81-7.16-20.28-13.42-9.84-4.47-20.57-9.54-20.57-9.54-4.67-2.33-8.58-1.33-11.47-3.85-1.92-1.67-3.39-4.89-4.34-11.66-1.66-6.66-3.5-9.93-5.32-11-3.08-1.85-6.15,2.47-8.39,7.15-3.57,7.45-7.16,5.07-23.86-9.54-17-14.91-25-17.89-32.5-20.57-14.32-3.58-20.58-5.37-21.77-6.56-2.89-4-6.11-10.7-5.37-16.7,0-7.53-3.95-15.35-7.24-21.13l-.51-.94c-1.13-2.92-5.54-5.19-5.54-5.19,4.56,5.88,11.76,17.35,11.62,29.56,1.08,8,3.19,13.89,7.36,17.17a13.22,13.22,0,0,0,5.43,2.53c7.94,1.76,20.58,1.33,41.91,19.26,20.29,17.65,25.43,24,30.87,15.15,3-5.28,6.46-12.68,9.69-5.3a32.13,32.13,0,0,1,1.64,5.15c.82,10.67,2.06,12.84,12.05,16.62a153.48,153.48,0,0,1,17.12,7.28,43.2,43.2,0,0,1,8.32,5.51c10.52,9.17,25.32,15.95,43.86,16.59,7.76.53,13.28.3,16.43.91,7.78,1,4.24,12.4,8.14,17.95,2.38,3.39,7.38,5.45,17.32,5.16a25,25,0,0,1,8.52.75,19,19,0,0,1,9.72,5.74c4.16,4,11.75-2.49,14.89-5,3.41-2.92,5.65-5.47,6.49-4.77-1.82,11.58-13.81,42.54-2.57,52s23.11,10.37,36.72-2.37c3.69-2.07,11.2-.26,8,7.07-1.15,2.61-3.65,5.91-8.19,10-9.6,8.36-17.66,15.59-19.19,22.07-4,20.44,55.1,18.25,49,42.52-7.48,38.67,18.56,40.12,5.75,59.17-7.28,11-20.58,17.2-21.84,23.77-1.25,5.56-1.28,16.59-3.8,22.29-1.25,2.83-3.11,4.35-6,3.22-9.51-3.67-27-25.5-36.29-20.53-11.28,5.51-17.64,9-16.42,22.74h7.13c-.28-3.84.21-18.41,10.59-13.88,11.88,5,16.42,8.64,21.38,13,4.49,4,23,13,28.36.87,1.11-2.26,1.51-6.76,2.27-9,1.87-6.42,3.36-2.26,5,2.93s17.91,21.27,28.71,25.9c-14.84,45.91-36,91.09-35.55,89.94h34.06S1690.8,1105.68,1642.3,1038.46Zm-38.18,91.63c2.91-7.52,1.24-16.82-9.89-31.7-2-10.59,8.42-35.21-8.86-45.37-16.3-10-53.48-13.17-33.27-28.51,8.82-6.59,16.32-16.41,19.6-24.83,3.39-8.7,2.27-15.89-6.6-16.44-18.14.44-18.79,19-32.83,7.35-14.1-11.42-7.19-27.73.86-57.9,3.46-8.21,5-13,24.41-1.08,16.42,8.43,25.49-6.91,33-14.9,5.54-5.86,9.23-4,14.62-4.21-8.08,21-30.93,47.11,20.48,157.37,5.46,11.71,7,27.21,5.89,44.62-1.66,26.31-9.3,57-18.41,85.42-8.58-6.9-26.11-19.27-28-27.85-3.1-13.37-4.86-17.18,8.43-28.09C1598.17,1139.38,1602.17,1135.13,1604.12,1130.09Zm-831.95,168.5c-5.57,4.41-17.41-7.46-10.78-12.71,27-20.7,50.06-62.19,42.65-96.82-1.78-6.65-8.16-13.75-12.38-20.88-24.18-38.82-31.95-92.17-1.21-129.66,11.49-14.19,33.79-32.66,53.71-26,13.46,4.51,29.71,13.5,43.86,5.74,16.13-9.76,14.36-33.63,12.89-50-1.65-26.12-8.51-55.4-41.43-42.06-33.52,14.13-43.78,46.62-63,73.92-49,65.6-130.32,110.83-197.81,41.48-14.7-15.87-22.62-36.18-28.91-56.55-7-22.82-27.5-87.71,18.21-75.43,10.2,2.42,19.52,7.32,29.2,11.09,8.18,3.15,16.33,6,24.7,2.15,12.72-6,31.61-12.64,31.78-29.35-.12-2.53,0-7.79-2.43-9.89-1.55-1-6.27-1-8.55-1-4-.17-7.9-.16-11.84-.55-11.29-1.12-20.55-5.64-29.78-12.52-30-22.17-60-49.28-70.09-86.47-3.87-14-6.14-28.56-9-42.77-10.66-46.76-9.69-85.73,8.54-130.6,5.34-13.73,10.51-27,13.34-41.51,5.3-27.7,4.94-56,6.39-84.07.67-13.06,2.22-25.94.67-39-3.06-25.8-14.62-50.3-28.85-71.75-8-11.57-16.42-24.05-27.7-32.65-6.64-4.55-14.58-7-22.41-8.72-21.47-4.73-43.45-5-64.17-13C327.46,280.51,301,178.06,284.1,80.15,279.81,55.3,293.91,54.63,298,79c1.35,8.11,2.76,16.28,4.27,24.46C319,194,348.26,286,444.1,311.21c62.5,10.27,77.36,6.54,113.61,64.39,13.83,21.93,24.39,46.51,27.88,72.33,1.71,12.63.47,24.93-.23,37.57-.85,14.57-1.1,29.17-1.85,43.75-1.44,28-4.94,55.45-15.68,81.56-9.46,23-16.9,47.06-17.9,72.06-.78,20.75,2.8,41.19,6.91,61.44,8.29,48.07,13.78,68.93,52.61,101.57,5.45,4.62,11.06,9,16.77,13.35,3.59,2.71,7,5.27,11,6.91,12.75,4.88,28.62.69,39.58,7.68,12,7.55,15.22,27.39,7.88,39.47-4.89,8.3-13.91,13.4-22.26,17.58-9.11,4.55-17.53,9-28,7.6-9.74-1.35-18.74-5.49-27.74-9.29-7-3-18.81-9.58-26.7-6.84-5,1.74-5.53,8.83-5.65,13.31-.52,18.54,5.49,37.53,11.09,55,6.18,19.31,14.32,38.46,30.37,51.63,13.44,11,29.93,19,47.45,20.28,57.24,2.49,110.52-51.11,136.14-98.19,13.92-26.1,38.73-56.85,71.73-55.23,15,.76,27.75,10.45,34.94,23.42s8.62,27.61,10,42.1c6.24,56.28-22.17,73.26-71.88,50.78-30.76.7-54.18,36.27-58.3,64.26-5.26,33.28,10.25,65.07,28.63,91.76,3,4.76,4.42,10.2,5.2,15.76C825.12,1236.19,801.5,1275.37,772.17,1298.59Z" fill="url(#radial-gradient-2)"/>
<path d="M1574.19,405.93c-3.76,4.09-7.43,8.59-13.6,7.82-9.72-1.25-17.56-13.06-28-8.86-3.55,1.71-5.24,5.77-5.16,9.56.42,6.15,2.78,12,4.51,17.82a46.45,46.45,0,0,1,2.06,14c0,12.75-10,21.92-16.7,31.74,16,3.41,22,.21,41.34,21.92,0,0,4.91-27,8-59.48,0-6.91,5.41-22.48,15.22-39.6A17.6,17.6,0,0,0,1574.19,405.93Z" fill="#e5f0d3"/>
<path d="M1335.77,50c-2.24,11.82-21.32,6-22.86,35.08-.21,9.17,2.22,18.13,4.34,27,2.55,10.68,4.7,21.63,4.23,32.64-.16,3.71-.42,8,2.13,10.49,2.22,2.18,5.82,1.93,8.39.25s4.33-4.45,5.93-7.19c6.51-11.13,12.66-23.9,23.92-29,3.27-1.46,6.78-2.17,10.14-3.35,9.06-3.19,16.74-9.72,25.15-14.57,9.86-5.37,22.44-10.9,24-23.52a6.58,6.58,0,0,0-4.21-7.66,47.61,47.61,0,0,0-17.26-4,12.43,12.43,0,0,0-5.1.59c-6,2.29-7.09,10.7-10.81,16.2-3.52,5.22-9.43,7.76-15,10a4.8,4.8,0,0,1-6.6-1.53v0c0-.07-.09-.14-.13-.22-3.68-4.41-7.62-9.72-6.73-15.58.44-2.87,2-5.36,3-8,1.55-3.92,1.44-8-2.22-10.48-3.84-3.32-7-7.59-11.4-10.07s-10.59-2.43-13.35,2a3,3,0,0,0,4.12,1h.07m263.27,310.78c-5.52-15.95-11-20.76-34.89-22-34.05-2-54.32,68.21-95.4,66.18-12.26,6.13,1.23,17.17,8.59,36.79,0,0,9.19,0,12.26,8-5.19,25.43,12,26.26,26.35,28.15,6.47-10.59,17.49-19.56,18.25-32.72-.41-7.5-3.7-14.4-5.46-21.61s-3.18-21.24,7.29-22.13c10.7-1,18,11.64,28.74,9.49,7.82-1.95,10.38-12.57,19-12.86,5.49-5.52,19-19.63,15.28-37.29ZM663.11,332.12l6.53,1.33,12.45-16.61,3,1.63-.74,3.56s.44,13.65-.15,17.65c.89,4.6,6.52,6.37,6.52,6.37,4.9,5.05,5.93,19.28,5.93,19.28L682.27,376.7l12.9,2,.15,11.41L659.7,431.17v4.42l-7,3.12-7-2.08,4.16-19.42-4.16-23.58,9-23.57L649,357.59l5.63-7.41Z" fill="#cbddaf"/>
<path d="M990.12,728h-1.81v-2.88h2.87V728Zm8.34-.19-.15-2.87,2.88-.16.17,2.87Zm-17.39,0-2.87-.16.2-2.87,2.87.17Zm27.5-.72-.3-2.87,2.87-.32.33,2.88Zm-37.61,0-2.87-.33.36-2.87,2.87.31Zm47.66-1.25-.45-2.87,2.88-.48.5,2.88Zm-57.71-.11-2.87-.49.51-2.88,2.81.49Zm67.67-1.79-.61-2.8,2.74-.79.66,2.79c-.89.27-1.84.49-2.79.69Zm-77.65-.15c-.95-.2-1.88-.43-2.87-.66l.67-2.79c.92.23,1.84.44,2.78.64Zm87.49-2.3-.78-2.78,2.73-.79.82,2.75c-.9.17-1.85.43-2.76.7Zm-97.32-.21-2.78-.81.84-2.75,2.74.8Zm107-2.87-.94-2.72,2.69-1,1,2.71Zm-116.68-.25-2.75-1,1-2.71,2.7,1Zm126.17-3.33-1.1-2.66,2.62-1.09,1.14,2.63c-.87.31-1.76.69-2.65,1Zm-135.67-.29c-.91-.37-1.8-.75-2.68-1.14l1.14-2.64,2.63,1.12Zm144.91-3.82-1.23-2.59c.85-.41,1.71-.82,2.54-1.25l1.3,2.57c-.85.36-1.72.83-2.59,1.19Zm-154.18-.44c-.87-.41-1.74-.84-2.6-1.29l1.3-2.56,2.56,1.27Zm163.2-4.31-1.44-2.52,2.47-1.43,1.44,2.48a14.79,14.79,0,0,1-2.47,1.5Zm-172.21-.42c-.85-.47-1.7-.95-2.53-1.43l1.44-2.49,2.48,1.44Zm180.94-4.71-1.53-2.45,2.39-1.52,1.57,2.4Zm-189.67-.49c-.82-.52-1.64-1-2.44-1.57l1.58-2.4,2.4,1.55ZM1093,695.2l-1.66-2.34,2.31-1.67,1.7,2.31Zm-206.52-.53L884.15,693l1.72-2.3,2.3,1.68Zm214.69-5.51-1.8-2.24,2.22-1.8,1.83,2.21Zm-222.68-.57c-.76-.62-1.51-1.23-2.24-1.85l1.84-2.21,2.2,1.81Zm230.42-6-1.93-2.14c.72-.64,1.44-1.28,2.12-1.93l2,2.11ZM870.78,682l-2.21-1.89,2-2.1,2.1,1.94Zm245.49-6.35-2-2,2-2,2.07,2-2.1,2.07ZM863.45,675c-.68-.69-1.35-1.44-2-2.09l2.09-2c.65.69,1.31,1.36,2,2Zm259.77-6.72-2.16-1.91,1.88-2.16,2.19,1.89Zm-266.68-.7c-.65-.73-1.28-1.46-1.89-2.2l2.18-1.86c.62.72,1.24,1.44,1.87,2.15Zm273.22-7.08-2.26-1.78c.59-.75,1.18-1.44,1.76-2.26l2.28,1.76Zm-279.69-.73c-.59-.75-1.18-1.52-1.76-2.29l2.3-1.74c.56.77,1.15,1.51,1.74,2.26Zm285.61-7.39-2.34-1.66c.55-.79,1.09-1.56,1.62-2.35l2.38,1.62a25.68,25.68,0,0,1-1.66,2.36Zm-291.77-.75c-.55-.79-1.1-1.6-1.63-2.4l2.39-1.6c.51.79,1.06,1.57,1.59,2.35Zm297.38-7.72-2.44-1.53c.5-.8,1-1.62,1.43-2.44l2.46,1.44a18.84,18.84,0,0,1-1.39,2.53Zm-302.94-.76-1.43-2.48,2.47-1.43c.49.82,1,1.62,1.44,2.43Zm308.06-8-2.53-1.44,1.35-2.53,2.55,1.34a28,28,0,0,1-1.31,2.63Zm-313.1-.74c-.46-.85-.91-1.7-1.35-2.56l2.54-1.33,1.34,2.52ZM1151,626l-2.6-1.22c.42-.86.82-1.72,1.21-2.6l2.61,1.19c-.34.88-.73,1.76-1.16,2.63Zm-322.25-.73c-.41-.86-.8-1.74-1.2-2.62l2.63-1.18c.39.87.77,1.73,1.18,2.59Zm326.34-8.63-2.66-1.08c.34-.89.7-1.76,1-2.66l2.67,1c-.35,1-.65,1.87-1,2.78ZM824.74,616c-.36-.91-.71-1.8-1-2.71l2.69-1,1,2.65Zm334-8.79-2.72-.92c.3-.9.61-1.81.89-2.72l2.75.88c-.35.86-.66,1.83-1,2.73Zm-337.39-.69c-.3-.92-.6-1.82-.89-2.76l2.75-.86c.28.9.57,1.81.87,2.72Zm340.37-9-2.76-.77.73-2.76,2.78.72c-.28.91-.54,1.85-.8,2.77Zm-343.3-.69c-.25-.94-.51-1.87-.74-2.88l2.79-.71c.23.93.48,1.85.72,2.77Zm345.71-9.16-2.87-.61c.2-.93.39-1.85.57-2.79l2.88.56c-.27.91-.41,1.79-.63,2.8ZM816,586.92c-.2-.95-.38-1.9-.57-2.87l2.88-.55c.18.93.37,1.87.57,2.8Zm349.89-9.27-2.88-.44c.16-.94.29-1.88.42-2.87l2.88.4a22,22,0,0,1-.43,2.91Zm-351.76-.71c-.14-1-.27-1.91-.4-2.87l2.88-.38c.13.94.26,1.89.4,2.88Zm353-9.36-2.88-.27c.09-.95.18-1.9.25-2.88l2.87.25Zm-354.26-.7c-.1-1-.17-1.93-.26-2.88l2.88-.23c.07,1,.16,1.9.24,2.88Zm354.95-9.41-2.88-.11.09-2.88,2.88.07v2.92Zm-355.62-.72c0-1,0-1.92-.08-2.87H815c0,1,0,1.89.07,2.87Zm352.89-9.37V544.5l2.87-.1v2.88ZM815,546.67h-2.88c0-1,0-1.94.09-2.87l2.87.1A20.15,20.15,0,0,1,815,546.67Zm349.67-9.27c0-.95-.15-1.9-.23-2.88l2.87-.26c.09,1,.16,1.93.23,2.88Zm-349.2-.71-2.87-.21c.08-1,.15-1.93.24-2.88l2.88.27c0,1-.12,1.87-.19,2.82Zm348.21-9.21-.39-2.88,2.87-.4.39,2.87Zm-347.17-.71-2.88-.37q.2-1.46.42-2.88l2.87.43c-.1.94-.24,1.87-.36,2.82Zm345.66-9.17c-.18-.94-.35-1.87-.55-2.79l2.87-.58c.21,1,.39,1.92.57,2.88Zm-344-.69-2.88-.55c.19-1,.38-1.9.58-2.88l2.88.58c-.22,1-.41,1.93-.58,2.86Zm341.89-9.06c-.23-.92-.46-1.84-.7-2.76l2.77-.74c.25.94.49,1.87.72,2.81Zm-339.73-.69-2.79-.69c.23-1,.47-1.89.73-2.88l2.78.76c-.29,1-.49,1.9-.72,2.82Zm337.06-8.92c-.27-1-.56-1.86-.87-2.72l2.74-.9q.45,1.38.87,2.76ZM823,497.57l-2.73-.87c.29-.93.59-1.85.89-2.77l2.73.9c-.29.92-.6,1.83-.89,2.75Zm331.14-8.78c-.33-.89-.68-1.78-1-2.67l2.68-1.05c.36.9.71,1.81,1,2.72Zm-327.86-.69-2.69-1c.35-.9.69-1.81,1-2.71l2.67,1.06c-.35.9-.7,1.8-1,2.69Zm324.1-8.54c-.37-.86-.76-1.72-1.16-2.59l2.61-1.2c.41.87.8,1.75,1.18,2.63Zm-320.29-.72-2.63-1.16c.39-.89.79-1.77,1.21-2.65l2.6,1.21-1.18,2.62Zm316-8.27c-.43-.84-.86-1.69-1.31-2.53l2.55-1.35,1.34,2.58Zm-311.69-.74-2.56-1.31c.44-.86.89-1.73,1.35-2.58l2.55,1.36c-.47.86-.91,1.69-1.34,2.54Zm307-8c-.48-.82-1-1.64-1.44-2.45l2.46-1.44c.5.82,1,1.66,1.43,2.49Zm-302.09-.75-2.48-1.44c.49-.83,1-1.65,1.44-2.49l2.46,1.51c-.5.78-1,1.6-1.48,2.42Zm296.82-7.71-1.59-2.36,2.37-1.62c.55.79,1.08,1.58,1.61,2.39Zm-291.49-.75L842.25,451c.54-.81,1.08-1.61,1.64-2.4l2.36,1.64c-.6.77-1.08,1.56-1.67,2.35Zm285.74-7.4c-.56-.76-1.14-1.51-1.73-2.26l2.28-1.77,1.75,2.3Zm-279.94-.74-2.39-1.68c.57-.77,1.16-1.54,1.77-2.3l2.26,1.77c-.55.7-1.15,1.47-1.7,2.21Zm273.7-7.07-1.86-2.17,2.18-1.89,1.88,2.2Zm-267.46-.7-2.2-1.87,1.9-2.19,2.17,1.9a25.43,25.43,0,0,0-1.83,2.18Zm260.9-6.71-2-2.06,2.08-2c.67.69,1.33,1.44,2,2.1Zm-254.19-.67-2.09-2,2-2.08,2,2Zm247.14-6.39-2.17-1.95,1.94-2.12c.72.65,1.44,1.31,2.13,2Zm-240-.65-2-2.1,2.13-2,1.94,2.15Zm232.6-6c-.73-.62-1.43-1.22-2.2-1.82l1.83-2.23,2.23,1.85ZM878,415.66l-1.86-2.2,2.19-1.84,1.81,2.23ZM1095.28,410l-2.3-1.7,1.69-2.33,2.33,1.73Zm-209.5-.55L884,407.17l2.33-1.71,1.68,2.35c-.79.5-1.55,1.1-2.31,1.68Zm201.31-5.23-2.38-1.57,1.55-2.42,2.43,1.6Zm-193.17-.49-1.58-2.4,2.43-1.57,1.53,2.41Zm184.7-4.81-2.47-1.43,1.44-2.51,2.52,1.44Zm-176.23-.44L901,396l2.5-1.44,1.44,2.5c-.88.48-1.7,1-2.52,1.43Zm167.48-4.32-2.56-1.28,1.26-2.58,2.61,1.3Zm-158.73-.37-1.3-2.57,2.58-1.28,1.27,2.59c-.87.36-1.73.76-2.56,1.2Zm149.7-3.93-2.63-1.13,1.12-2.66,2.67,1.16Zm-140.69-.31L919,386.94c.87-.37,1.76-.76,2.66-1.12l1.1,2.65c-.89.31-1.77.67-2.63,1.06Zm131.43-3.47-2.69-1,1-2.7,2.73,1Zm-122.23-.26-1-2.68c.91-.35,1.81-.67,2.73-1l.95,2.72Zm112.72-3-2.73-.82.8-2.76,2.78.84Zm-103.27-.2-.84-2.74,2.78-.84.79,2.78Zm93.67-2.47-2.78-.68.65-2.79c.93.22,1.88.43,2.87.68ZM948.42,380l-.68-2.79c.94-.23,1.87-.46,2.88-.67l.63,2.81c-1,.17-1.9.36-2.82.59Zm74.3-2-2.88-.5.49-2.88,2.88.52Zm-64.54-.13-.52-2.87,2.88-.51.47,2.88c-1,.1-1.88.27-2.82.44Zm54.64-1.44c-.93-.13-1.88-.24-2.87-.34l.33-2.88,2.87.35Zm-44.8-.08-.36-2.88,2.87-.33.32,2.88a20.57,20.57,0,0,0-2.79.27Zm34.88-.92-2.87-.19.15-2.88,2.88.19Zm-24.95,0-.2-2.88,2.88-.17.16,2.87a16.27,16.27,0,0,0-2.79.08Zm15-.39h-5v-2.88h5Z" fill="#ffe8d7"/>
<path d="M1406.84,650.19S1401,678.82,1463,765.76c35.69,50-24.48,312-89,493.24" fill="none" stroke="#668d6d" stroke-linejoin="round" stroke-width="10" stroke-dasharray="10 10"/>
<line x1="988.61" y1="738.8" x2="1039" y2="1267" fill="none" stroke="#668d6d" stroke-linejoin="round" stroke-width="10" stroke-dasharray="10 10"/>
<path d="M1975.37,363.61,1695.06,500.44a157.12,157.12,0,0,0-54.75,40.14c-46.27,52.86-106.88,118.07-125.43,127.86L1404.52,726.7a127,127,0,0,1-16.1,6.9,266.85,266.85,0,0,0-31.11,13.61l-137.15-8.65,108.43-185.65c22.51-1.31,50.93,28.65,58.05,40.46l.62,1c7.54,12.49,17.86,29.6,13.66,46.33l11.63,2.92c5.43-21.57-6.87-42-15-55.45l-.62-1c-6-9.95-33.66-42-61.51-45.94l91.31-156.34.11-.18,88.51-178.66L1860.87,18.27l-5.74-10.54-347.19,188.7-1.67.9-90,181.69L1321.4,541.45c-68.32,5.55-82.12-6.13-130.22-73-15.61-21.69-28.26-50.95-39.43-76.76-7.26-16.78-13.53-31.28-19.7-41.73-32.35-54.79-78.73-92.07-242.51-143.77C818.15,183.65,782.54,154,765.2,133c-18.55-22.42-20.53-39.8-20.55-40l-6,.58,6-.55L732.7,94.14c.08.82,2.07,20.44,22.45,45.53,26.59,32.71,70.59,58.93,130.78,77.93,160.07,50.53,205,86.26,235.78,138.43,5.79,9.81,12.22,24.67,19,40.4,4.93,11.4,10.15,23.46,15.8,35.31a2.47,2.47,0,0,0-2.72.21c-3.2,2.45-78.63,60.35-92.94,74.91-8.62,8.77-22,6.56-22.29,6.52a2.5,2.5,0,0,0-.88,4.92,30.87,30.87,0,0,0,5.08.38c5.6,0,14.72-1.26,21.66-8.32,14.06-14.31,91.63-73.85,92.41-74.45a2.46,2.46,0,0,0,.94-1.56c7.09,14.65,14.87,28.89,23.64,41.08,48.07,66.79,65.87,82.64,132.62,78.5l-103.5,177.22-14.3,5.83L989.38,724a6,6,0,0,0-1.53.1L656.77,788.5c-13.13-16.16-20.55-32.1-22.4-48-4.64-39.8,24.8-74.38,63.76-115.45,26.19-27.6,45-72.36,55.9-133a549.12,549.12,0,0,0,8.56-82.6v-1l-14.3-43.22H981.67v-5L746.57,360l-72.2-218.14L663,145.55l87.6,264.69c-.3,12.82-4.88,147.23-61.14,206.54-32.36,34.11-72.63,76.56-67,125.1,1.92,16.49,8.93,32.83,21.16,49.18L118.85,893.11l2.3,11.78L652.23,801.61c14.84,16.75,35.17,33.57,61.2,50.64C720.7,858,728.26,876.39,728.3,928L77.73,1193.44l4.54,11.12L728.16,941c-.22,10.62-.72,22.43-1.56,35.6-3.11,48.68-10,106.08-17.39,161.75C558,1207.55,385.94,1286.9,373.42,1292.68l5,10.9c3.06-1.41,175.36-80.88,328.9-151.17-1.92,14.32-3.84,28.46-5.72,42.25-3.87,28.36-7.52,55.15-10.57,79.59l11.9,1.48c3-24.37,6.69-51.13,10.56-79.45,2.2-16.2,4.48-32.89,6.72-49.77,113.23-51.8,213.17-97.18,222.66-100.31,33-10.88,210.59-177.25,230.75-196.2,6.52-6.18,30.2-16.25,57.61-27.92,32.54-13.84,73-31.07,107.94-51.29,29-16.8,42.56-21.88,53.44-26a139.21,139.21,0,0,0,17.49-7.53L1520.46,679c25.15-13.27,105-103.29,128.86-130.57a144.92,144.92,0,0,1,50.68-37l.11-.05,280.53-136.95Zm-1254.8,479-.36-.25q-33.83-22.17-54.2-43.42L989.39,736l181.33,11.43L740.29,923.1c-.47-44.71-6.93-70.71-19.72-80.5Zm506-31.55c-30.82,13.11-53.09,22.58-61.16,30.24-54.2,50.94-200.51,185-226.27,193.52-9.72,3.21-106.3,47-217,97.66,7-53.52,13.49-108.24,16.48-155.1,1-15.07,1.53-28.81,1.69-41.3l458-186.87L1337.43,758c-1.38.79-2.79,1.59-4.25,2.44-34.27,19.83-74.39,36.89-106.62,50.61Z" fill="url(#radial-gradient-3)"/>
<rect x="1062.83" y="731.4" width="12" height="60.54" transform="translate(-239.26 654.75) rotate(-30.8)" fill="#426c8f"/>
<path d="M1368.61,615.18c-57.79-29.13-91.94-11.67-112.36-1.23a90.08,90.08,0,0,1-10.54,4.91c-1.81.62-3.78,1.51-6.28,2.64-8.72,4-23.32,10.57-47.86,12.73-10.73.95-21.8-3.82-35.82-9.86-3.37-1.45-6.84-3-10.51-4.45-6.13-4.21-51.1-35.28-73-55.13l17.44-4.55,33.47-8.72c15.32-4,39.91-14.52,65.95-25.67,8.65-3.71,17.59-7.54,26.2-11.12L1209.15,500c-8.68,3.61-17.65,7.46-26.34,11.18-25.47,10.91-49.52,21.21-63.68,24.89l-33.49,8.73c-9,2.36-17.44,4.56-25.46,6.64-5.89-8.82-12.61-22.34-14.41-29.65-4-16.29-.75-52.86.64-68.48,1.31-14.65-2.24-26.35-10.55-34.77-13.42-13.6-35.16-12.94-38.46-12.75l-.26-319.42h-16l.4,484.76c-27.41,6.48-58.22,13.31-101.63,22.45C837.85,602.4,821,605.7,678.08,629.69l2.65,15.78c143.19-24,160.16-27.36,202.47-36.26,41.66-8.77,71.75-15.42,98.35-21.67l.05,63.62-.23.06c0,.11.11.42.23.89v2.95c-2.14,7.2-9.58,30.05-22.93,48.07-12.15,16.41-41.22,34.37-41.51,34.54l35.91-6.61s13.65-11.92,18.46-18.41a136.52,136.52,0,0,0,10.1-15.95v28.61l7.19-1.34,8.75.56V691.44a135.52,135.52,0,0,0,9.93,15.65c5.45,7.35,18.74,19.61,18.74,19.61l28.38,1.3c-.22-.14-22-13.9-34.26-30.43-13.16-17.76-20.58-40.21-22.83-47.75l0-66.09c18.79-4.54,36.58-9.05,56.59-14.23,20.25,21.35,80.15,62.32,82.77,64.11l.71.48.79.32c3.82,1.55,7.47,3.13,11,4.65,15.46,6.66,28.81,12.41,43.55,11.11A151.86,151.86,0,0,0,1246,636.08c2-.92,3.77-1.71,4.84-2.08a98.5,98.5,0,0,0,12.67-5.8c18.87-9.65,47.38-24.23,98,1.34L1496,690.71l6.62-14.57ZM997.53,567.27l-.11-145.61c1.3-.06,18.43-.73,27.1,8.13,4.82,4.92,6.83,12.34,6,22-1.72,19.18-4.91,54.86-.25,73.75,1.94,7.82,7.69,20.08,13.7,30C1027.79,559.77,1012.93,563.53,997.53,567.27Z" fill="url(#radial-gradient-4)"/>
<path d="M1033.85,1012.37l-1.18-9.82,7.27-.87,1.17,9.82Zm5.71-13.86-1.18-9.83-7.26.87,1.18,9.83Zm-.79,24.16,5.79-9.16-13.59,1.63Z" fill="#668d6d"/>
</g>
</svg>
